<?xml version="1.0" standalone="no"?>
<!DOCTYPE svg PUBLIC "-//W3C//DTD SVG 1.1//EN" "http://www.w3.org/Graphics/SVG/1.1/DTD/svg11.dtd" >
<svg xmlns="http://www.w3.org/2000/svg">
<metadata></metadata>
<defs>
<font id="roomlight" horiz-adv-x="1241" >
<font-face units-per-em="2048" ascent="1688" descent="-360" />
<missing-glyph horiz-adv-x="614" />
<glyph horiz-adv-x="0" />
<glyph horiz-adv-x="682" />
<glyph unicode=" "  horiz-adv-x="614" />
<glyph unicode="&#x09;" horiz-adv-x="614" />
<glyph unicode="&#xa0;" horiz-adv-x="614" />
<glyph unicode="!" horiz-adv-x="360" d="M78 90q0 45 28 74t74 29q47 0 75 -29t28 -74t-28 -73.5t-75 -28.5t-74.5 28.5t-27.5 73.5zM117 1042v289h127v-289l-11 -747h-106z" />
<glyph unicode="&#x22;" horiz-adv-x="489" d="M82 1229h137l-24 -320h-89zM270 1229h138l-25 -320h-88z" />
<glyph unicode="#" horiz-adv-x="876" d="M82 401v95h182l12 127h-194v96h201l16 188l92 -6l-14 -182h139l14 188l97 -6l-17 -182h185v-96h-193l-12 -127h205v-95h-213l-15 -188l-92 6l12 182h-137l-16 -188l-92 6l12 182h-172zM356 496h140l12 127h-139z" />
<glyph unicode="$" horiz-adv-x="1024" d="M61 66l39 108q224 -70 371 -70q64 0 107.5 2.5t100 17.5t89.5 42q57 50 57 127q0 75 -53 115q-9 6 -19 11.5t-23 10.5t-22.5 8t-26.5 7t-25 6t-28.5 6.5t-27.5 5.5l-248 45q-171 30 -235 115q-43 49 -43 151q0 125 104 193q87 60 244 71v121h137v-119q175 -9 346 -82 l-45 -102q-182 68 -348 68t-244 -47q-61 -39 -61 -107q0 -60 47 -90q42 -29 137 -45l225 -39q155 -25 234 -76q113 -78 113 -221q0 -66 -31 -126t-88 -103q-95 -74 -285 -86v-119h-137v119q-193 9 -361 82z" />
<glyph unicode="%" horiz-adv-x="1325" d="M41 760q0 119 82 201q78 81 201 81q119 0 200 -81q82 -82 82 -201q0 -115 -82 -197q-87 -84 -200 -84q-121 0 -201 80q-82 79 -82 201zM143 760q0 -77 54 -131q45 -51 127 -51q85 0 135 59q43 49 43 123q0 80 -51 131t-127 51q-78 0 -129 -51q-52 -55 -52 -131zM268 31 l695 1011l90 -57l-697 -1012zM719 262q0 119 82 201q79 82 200 82q119 0 201 -82t82 -201q0 -114 -82 -196q-87 -84 -201 -84q-121 0 -200 79q-82 79 -82 201zM821 262q0 -78 53 -131q45 -51 127 -51q86 0 136 59q43 49 43 123q0 79 -52 131q-51 51 -127 51q-78 0 -129 -51 q-51 -54 -51 -131z" />
<glyph unicode="&#x26;" horiz-adv-x="1185" d="M61 403q0 133 62 236q63 95 156 156q-43 60 -43 155q0 128 104 219q101 82 248 82q104 0 184 -43t127 -125l-94 -63q-77 119 -217 119q-102 0 -162 -54q-53 -47 -53 -133q0 -89 67 -159l484 -506q38 47 63 149l113 -30q-28 -126 -92 -209l116 -125l-88 -80l-110 117 q-148 -132 -381 -132q-197 0 -328 105q-72 57 -114 139t-42 182zM199 406q0 -127 100 -220q98 -92 250 -92q169 0 293 103l-492 512q-69 -44 -110 -121t-41 -182z" />
<glyph unicode="'" horiz-adv-x="301" d="M82 1229h137l-24 -320h-89z" />
<glyph unicode="(" horiz-adv-x="368" d="M66 559q0 206 49.5 392.5t140.5 320.5l96 -51q-78 -111 -122 -299.5t-44 -362.5q0 -172 43.5 -348t122.5 -289l-96 -51q-190 278 -190 688z" />
<glyph unicode=")" horiz-adv-x="368" d="M16 -78q76 116 121 303.5t45 358.5q0 169 -44.5 344t-121.5 293l97 51q190 -278 190 -688q0 -206 -49.5 -392.5t-140.5 -320.5z" />
<glyph unicode="*" horiz-adv-x="524" d="M27 1049l24 84l25 2l147 -66l-12 162l10 20h84l10 -22l-16 -162l143 63l27 -2l25 -86l-19 -12l-147 -31l94 -118l6 -29l-59 -47l-25 8l-84 137l-82 -135l-26 -10l-62 49l2 27l105 118l-156 35z" />
<glyph unicode="+" horiz-adv-x="665" d="M41 508v104h238v240h104v-240h242v-104h-242v-240h-104v240h-238z" />
<glyph unicode="," horiz-adv-x="348" d="M72 90q0 44 28 73.5t74 29.5t74 -29.5t28 -73.5q0 -22 -10 -49l-86 -209l-71 14l20 152q-26 10 -41.5 35.5t-15.5 56.5z" />
<glyph unicode="-" horiz-adv-x="669" d="M41 487v105h588v-105h-588z" />
<glyph unicode="." horiz-adv-x="348" d="M72 90q0 45 28 74t74 29t74 -29t28 -74t-27.5 -73.5t-74.5 -28.5t-74.5 28.5t-27.5 73.5z" />
<glyph unicode="/" horiz-adv-x="538" d="M0 -29l498 1325l106 -39l-500 -1325z" />
<glyph unicode="0" horiz-adv-x="1376" d="M61 614q0 129 46 245.5t129 203.5q182 188 452 188q271 0 453 -188q83 -87 128.5 -203.5t45.5 -245.5q0 -139 -51.5 -260.5t-145.5 -210.5q-174 -166 -430 -166t-430 166q-94 89 -145.5 210.5t-51.5 260.5zM201 614q0 -227 145 -372q148 -148 342 -148t342 148 q146 146 146 372q0 218 -136 367q-141 154 -352 154t-352 -154q-135 -148 -135 -367z" />
<glyph unicode="1" horiz-adv-x="505" d="M51 1094l281 135h71v-1229h-131v1077l-176 -73z" />
<glyph unicode="2" horiz-adv-x="1077" d="M72 1071q183 180 456 180q205 0 336 -98q142 -102 142 -283q0 -131 -84 -241q-56 -75 -207 -189l-432 -327h712v-113h-913v113l563 430q69 51 108 85t66 72q55 69 55 179q0 133 -112 200q-97 60 -234 60q-124 0 -203.5 -34.5t-179.5 -117.5z" />
<glyph unicode="3" horiz-adv-x="1105" d="M51 164l76 86q104 -92 182.5 -126t210.5 -34q113 0 185.5 26t130.5 79q79 76 79 194q0 99 -57 162q-69 78 -227 78h-350v108h344q113 0 170 78q34 46 34 123q0 104 -92 156q-85 49 -231 49q-98 0 -174.5 -27.5t-169.5 -91.5l-66 80q95 80 193 113.5t229 33.5 q178 0 301 -77q135 -83 135 -236q0 -81 -34 -137q-29 -51 -91 -94v-9q104 -38 156 -114q59 -86 59 -195q0 -172 -124 -285q-71 -62 -165.5 -94.5t-234.5 -32.5q-116 0 -205.5 24.5t-146.5 62.5t-117 100z" />
<glyph unicode="4" horiz-adv-x="1144" d="M51 195v100l787 934h114v-920h131v-104l-131 -10v-195h-135v195h-766zM217 309h600v721z" />
<glyph unicode="5" horiz-adv-x="1087" d="M51 150l76 90q48 -40 80.5 -63t78 -45.5t98 -32t120.5 -9.5q212 0 317 111q78 85 78 213q0 130 -84 211q-100 100 -274 100q-187 0 -326 -68h-100v572h813v-115h-695v-342q123 64 302 64q212 0 352 -117q139 -119 139 -305q0 -179 -121 -297q-146 -140 -401 -140 q-160 0 -267 44.5t-186 128.5z" />
<glyph unicode="6" horiz-adv-x="1144" d="M61 612q0 151 46.5 281.5t136.5 220.5q144 137 358 137q122 0 215.5 -29.5t179.5 -95.5l-65 -92q-90 60 -161.5 82.5t-166.5 22.5q-165 0 -264 -86q-103 -92 -139 -314q152 90 385 90q230 0 362 -106q135 -109 135 -307q0 -184 -129 -303q-148 -136 -370 -136 q-211 0 -346 129q-177 168 -177 506zM195 612q0 -295 129 -424q98 -98 260 -98q179 0 282 103q88 88 88 223q0 141 -88 217q-100 84 -280 84q-128 0 -215 -20.5t-176 -67.5v-17z" />
<glyph unicode="7" horiz-adv-x="1030" d="M82 1116v113h917v-96l-579 -1133h-141l573 1116h-770z" />
<glyph unicode="8" horiz-adv-x="1189" d="M61 371q0 132 95 235q58 58 141 96q-69 55 -94 97q-35 62 -35 139q0 145 119 229q117 84 311 84q210 0 322 -96q94 -78 94 -211q0 -81 -43 -145q-34 -55 -92 -82q116 -43 178 -123q71 -89 71 -213q0 -180 -131 -283q-150 -121 -405 -121q-249 0 -395 113 q-65 50 -100.5 125t-35.5 156zM195 381q0 -138 102 -207q117 -84 295 -84q201 0 313 96q90 77 90 195q0 122 -88 188q-55 43 -132 58.5t-183 15.5q-92 0 -162 12q-112 -35 -178 -110q-57 -65 -57 -164zM297 930q0 -72 53 -115q69 -55 242 -55q82 0 145 -8q75 18 115 73 q33 44 33 121q0 91 -80 144q-75 51 -213 51q-150 0 -225 -60q-70 -54 -70 -151z" />
<glyph unicode="9" horiz-adv-x="1144" d="M61 813q0 184 129 303q147 135 371 135q211 0 346 -129q176 -167 176 -506q0 -151 -47 -281t-141 -220q-145 -138 -365 -138q-122 0 -217.5 29.5t-181.5 95.5l66 93q87 -60 160.5 -82.5t170.5 -22.5q181 0 279 94q98 98 137 305q-152 -90 -385 -90q-229 0 -362 107 q-136 109 -136 307zM190 813q0 -140 89 -217q100 -84 280 -84q128 0 215 20.5t176 67.5v16q0 295 -129 424q-99 99 -260 99q-179 0 -282 -103q-89 -89 -89 -223z" />
<glyph unicode=":" horiz-adv-x="348" d="M72 90q0 45 28 74t74 29t74 -29t28 -74t-27.5 -73.5t-74.5 -28.5t-74.5 28.5t-27.5 73.5zM72 676q0 45 27.5 73.5t74.5 28.5t74.5 -28.5t27.5 -73.5t-28 -74t-74 -29t-74 29t-28 74z" />
<glyph unicode=";" horiz-adv-x="348" d="M72 90q0 44 28 73.5t74 29.5t74 -29.5t28 -73.5q0 -22 -10 -49l-86 -209l-71 14l20 152q-26 10 -41.5 35.5t-15.5 56.5zM72 676q0 45 27.5 73.5t74.5 28.5t74.5 -28.5t27.5 -73.5t-28 -74t-74 -29t-74 29t-28 74z" />
<glyph unicode="&#x3c;" horiz-adv-x="585" d="M41 504v57l434 287l49 -74l-331 -242l331 -241l-49 -74z" />
<glyph unicode="=" horiz-adv-x="671" d="M41 362v105h590v-105h-590zM41 608v105h590v-105h-590z" />
<glyph unicode="&#x3e;" horiz-adv-x="585" d="M61 291l332 241l-332 242l50 74l434 -287v-57l-434 -287z" />
<glyph unicode="?" horiz-adv-x="1028" d="M20 1051q178 200 472 200q220 0 337 -94q66 -52 102 -115t36 -149q0 -127 -78 -217q-67 -78 -199 -129l-80 -31q-54 -21 -82 -59q-28 -39 -28 -95l-2 -71h-113v84q0 90 45 147q46 63 137 99l90 34q80 29 129 84q54 60 54 144q0 118 -88 184q-89 72 -258 72 q-123 0 -217.5 -40t-180.5 -128zM340 90q0 45 28 74t74 29q47 0 75 -29t28 -74t-28 -73.5t-75 -28.5t-74.5 28.5t-27.5 73.5z" />
<glyph unicode="@" horiz-adv-x="1378" d="M47 514q0 250 168 426q87 88 208 136t261 48q154 0 282 -55.5t214 -159.5q137 -162 137 -395q0 -184 -98 -274q-65 -58 -154 -58q-97 0 -160 76q-63 -47 -116 -67.5t-119 -20.5q-140 0 -236 90q-104 93 -104 248q0 129 88 223q104 109 250 109q125 0 215 -62l37 45 l73 -14v-408q0 -44 15 -69q20 -39 61 -39q48 0 78 35q45 50 45 186q0 206 -111 332q-67 79 -169 121.5t-228 42.5q-109 0 -206.5 -37.5t-166.5 -106.5q-135 -141 -135 -352q0 -209 123 -344q143 -156 385 -156q152 0 352 70l39 -98q-192 -88 -391 -88q-145 0 -267.5 45.5 t-207.5 134.5q-162 165 -162 436zM457 508q0 -92 57 -156q64 -67 162 -67q57 0 101 16.5t91 54.5q-4 15 -4 70v244q-89 55 -190 55q-93 0 -152 -53q-65 -62 -65 -164z" />
<glyph unicode="A" horiz-adv-x="1386" d="M51 0l545 1229h192l547 -1229h-151l-109 242h-770l-106 -242h-148zM356 367h668l-311 733h-43z" />
<glyph unicode="B" horiz-adv-x="1234" d="M102 0v1229h633q166 0 266 -103q78 -78 78 -200q0 -80 -37 -144q-34 -58 -98 -98v-8q99 -42 148 -117q61 -88 61 -199q0 -155 -104 -254q-115 -106 -287 -106h-660zM244 117h520q111 0 188 80q64 67 64 165t-51 158q-70 82 -189 82h-532v-485zM244 721h514q85 0 133 61 q49 58 49 131q0 85 -55 140q-67 57 -162 57h-479v-389z" />
<glyph unicode="C" d="M61 618q0 131 48.5 246t136.5 203t207.5 136t259.5 48q150 0 260.5 -42t206.5 -130l-84 -94q-80 71 -170.5 107t-212.5 36q-220 0 -365 -145q-145 -148 -145 -365q0 -224 139 -366q70 -73 166 -112.5t205 -39.5q122 0 212 36.5t171 107.5l84 -92q-97 -89 -207.5 -132 t-259.5 -43q-277 0 -465 185q-89 88 -138 205t-49 251z" />
<glyph unicode="D" horiz-adv-x="1298" d="M102 0v1229h504q278 0 459 -187q162 -170 162 -428q0 -136 -46.5 -251t-133.5 -197q-174 -166 -441 -166h-504zM244 125h354q219 0 354 135q133 133 133 354q0 214 -131 351t-356 137h-354v-977z" />
<glyph unicode="E" horiz-adv-x="1144" d="M102 0v1229h930v-127h-788v-389h704v-125h-704v-463h819v-125h-961z" />
<glyph unicode="F" horiz-adv-x="1071" d="M102 0v1229h908v-127h-766v-424h680v-125h-680v-553h-142z" />
<glyph unicode="G" horiz-adv-x="1312" d="M72 618q0 132 48.5 248t137.5 203q185 182 469 182q151 0 265 -42t214 -130l-82 -88q-84 69 -178 102t-219 33q-222 0 -373 -151q-139 -139 -139 -357q0 -227 150 -374q145 -142 358 -142q202 0 350 111v354l-336 13v108h473v-680l-73 -14l-35 106q-85 -62 -175 -92.5 t-204 -30.5q-258 0 -442 160q-100 89 -154.5 213t-54.5 268z" />
<glyph unicode="H" horiz-adv-x="1273" d="M102 0v1229h140v-502h790v502h139v-1229h-139v606h-790v-606h-140z" />
<glyph unicode="I" horiz-adv-x="344" d="M102 0v1229h140v-1229h-140z" />
<glyph unicode="J" horiz-adv-x="1058" d="M31 135l73 90q146 -121 318 -121q192 0 291 99q112 112 112 297v729h142v-703q0 -139 -35.5 -235t-108.5 -166q-158 -148 -395 -148q-115 0 -218 41.5t-179 116.5z" />
<glyph unicode="K" horiz-adv-x="1222" d="M102 0v1229h142v-510h338l391 510h162l-433 -561l480 -668h-162l-436 598h-340v-598h-142z" />
<glyph unicode="L" horiz-adv-x="1107" d="M102 0v1229h140v-1108h815v-121h-955z" />
<glyph unicode="M" horiz-adv-x="1538" d="M102 0v1229h183l489 -684l483 684h179v-1229h-140v1057h-14l-498 -705h-36l-502 705h-15v-1057h-129z" />
<glyph unicode="N" horiz-adv-x="1345" d="M102 0v1229h148l860 -1034v1034h133v-1229h-145l-858 1036v-1036h-138z" />
<glyph unicode="O" horiz-adv-x="1421" d="M61 614q0 260 172 441q88 94 210 145t268 51q139 0 258 -48t207 -136q88 -87 136 -203.5t48 -249.5q0 -266 -178 -444q-183 -193 -471 -193q-146 0 -270 53.5t-212 149.5q-168 182 -168 434zM203 614q0 -210 133 -356q70 -76 167 -118t208 -42q109 0 204.5 41t165.5 117 q136 146 136 358q0 220 -140 363q-147 153 -366 153q-109 0 -206 -41.5t-167 -115.5q-135 -145 -135 -359z" />
<glyph unicode="P" horiz-adv-x="1204" d="M102 0v1229h592q103 0 195 -42t155 -118q99 -116 99 -278q0 -183 -129 -306q-62 -60 -145 -93.5t-175 -33.5h-448v-358h-144zM246 481h461q133 0 219 99q75 88 75 211q0 126 -75 210q-90 103 -238 103h-442v-623z" />
<glyph unicode="Q" horiz-adv-x="1421" d="M61 614q0 266 177 443q181 194 473 194q287 0 473 -192q86 -86 131 -200.5t45 -244.5q0 -217 -125 -383q-76 -99 -209 -180q44 -23 126 -72.5t126 -72.5q110 -60 238 -74l8 -94q-45 -10 -80 -10q-137 0 -316 110q-14 9 -103.5 69.5t-143.5 90.5q-71 -18 -170 -18 q-273 0 -461 182q-189 183 -189 452zM203 614q0 -196 121 -340q68 -82 168.5 -127t218.5 -45q128 0 231.5 49.5t171.5 141.5q103 137 103 321q0 210 -125 347q-145 167 -381 167q-117 0 -217.5 -45.5t-169.5 -126.5q-121 -140 -121 -342z" />
<glyph unicode="R" horiz-adv-x="1216" d="M102 0v1229h605q188 0 321 -127q127 -127 127 -311q0 -132 -80 -250q-89 -110 -217 -158l234 -383h-154l-211 358h-483v-358h-142zM244 481h467q66 0 124 25t97 69q82 85 82 216q0 119 -76 208q-42 48 -105 76.5t-135 28.5h-454v-623z" />
<glyph unicode="S" horiz-adv-x="1177" d="M61 74l39 112q253 -82 439 -82q58 0 98 2t93 9t96.5 23t76.5 42q76 57 76 160q0 88 -72 147q-77 49 -213 72l-295 51q-100 20 -164 46t-104 73q-57 69 -57 186q0 156 147 248q145 88 354 88q241 0 469 -98l-49 -111q-205 86 -407 86q-180 0 -289 -65q-92 -55 -92 -152 q0 -74 65 -116q59 -39 168 -56l271 -47q191 -34 276 -90q129 -85 129 -256q0 -76 -35 -146.5t-100 -119.5q-137 -103 -440 -103q-238 0 -480 97z" />
<glyph unicode="T" d="M51 1108v121h1139v-121h-500v-1108h-139v1108h-500z" />
<glyph unicode="U" horiz-adv-x="1263" d="M102 510v719h142v-733q0 -169 110 -279q114 -117 281 -117q169 0 278 115q107 110 107 281v733h141v-719q0 -240 -160 -391q-148 -142 -366 -142q-230 0 -379 152q-73 73 -113.5 171.5t-40.5 209.5z" />
<glyph unicode="V" horiz-adv-x="1341" d="M51 1229h154l452 -1110h31l455 1110h147l-520 -1229h-201z" />
<glyph unicode="W" horiz-adv-x="1957" d="M51 1229h158l342 -1108h20l306 1108h202l318 -1108h20l338 1108h152l-400 -1229h-211l-313 1087h-20l-301 -1087h-207z" />
<glyph unicode="X" horiz-adv-x="1277" d="M61 0l471 637l-446 592h168l383 -520l369 520h163l-436 -590l484 -639h-170l-412 563l-414 -563h-160z" />
<glyph unicode="Y" horiz-adv-x="1308" d="M51 1229h162l438 -799h13l440 799h153l-532 -944v-285h-139v279z" />
<glyph unicode="Z" horiz-adv-x="1230" d="M82 0v88l876 1028l-385 -8h-438v121h998v-101l-857 -1011l369 10h504v-127h-1067z" />
<glyph unicode="[" horiz-adv-x="393" d="M102 -176v1499h267v-113h-144v-1273h144v-113h-267z" />
<glyph unicode="\" horiz-adv-x="538" d="M0 1079l106 39l433 -1147l-105 -39z" />
<glyph unicode="]" horiz-adv-x="393" d="M25 -63h143v1273h-143v113h266v-1499h-266v113z" />
<glyph unicode="^" horiz-adv-x="671" d="M41 920l266 323h58l266 -323l-64 -56l-231 246l-232 -246z" />
<glyph unicode="_" horiz-adv-x="669" d="M0 -119h670v-102h-670v102z" />
<glyph unicode="`" horiz-adv-x="442" d="M102 1405l119 59l119 -297l-84 -39z" />
<glyph unicode="a" horiz-adv-x="1187" d="M51 0l455 1024h174l457 -1024h-150l-88 199h-618l-88 -199h-142zM332 317h516l-244 574h-29z" />
<glyph unicode="b" horiz-adv-x="1064" d="M102 0v1024h529q144 0 227 -86q66 -69 66 -172q0 -67 -31 -121q-29 -46 -72 -74v-8q72 -35 111 -92q51 -68 51 -168q0 -123 -90 -213q-93 -90 -242 -90h-549zM240 115h415q95 0 146 57q49 52 49 133q0 78 -41 125q-55 64 -145 64h-424v-379zM240 608h409q65 0 103 47 q36 42 36 103q0 66 -43 106q-43 43 -124 43h-381v-299z" />
<glyph unicode="c" horiz-adv-x="1083" d="M72 514q0 222 153 375t389 153q126 0 221 -36.5t177 -112.5l-82 -90q-67 59 -142 89t-174 30q-175 0 -290 -115t-115 -293q0 -183 110 -293q116 -119 295 -119q99 0 174 30t142 89l82 -90q-83 -75 -178 -112t-220 -37q-234 0 -387 153q-155 152 -155 379z" />
<glyph unicode="d" horiz-adv-x="1116" d="M102 0v1024h424q228 0 375 -147q143 -143 143 -365q0 -109 -37.5 -204t-105.5 -163q-145 -145 -375 -145h-424zM240 119h278q183 0 291 117q98 107 98 276q0 174 -104 281q-104 110 -285 110h-278v-784z" />
<glyph unicode="e" horiz-adv-x="993" d="M102 0v1024h787v-121h-649v-303h579v-119h-579v-362h671v-119h-809z" />
<glyph unicode="f" horiz-adv-x="927" d="M102 0v1024h764v-121h-626v-323h557v-119h-557v-461h-138z" />
<glyph unicode="g" horiz-adv-x="1126" d="M72 514q0 222 149 371q154 157 397 157t406 -151l-80 -84q-69 59 -146.5 87t-179.5 28q-177 0 -292 -115t-115 -293q0 -188 123 -305q113 -107 280 -107q161 0 277 86v277l-275 10v105h408v-566l-78 -16l-26 78q-131 -94 -306 -94q-236 0 -387 151q-74 73 -114.5 171 t-40.5 210z" />
<glyph unicode="h" horiz-adv-x="1105" d="M102 0v1024h138v-418h626v418h138v-1024h-138v487h-626v-487h-138z" />
<glyph unicode="i" horiz-adv-x="342" d="M102 0v1024h138v-1024h-138z" />
<glyph unicode="j" horiz-adv-x="913" d="M31 121l69 88q130 -107 265 -107q151 0 231 80q88 88 88 238v604h137v-582q0 -116 -29.5 -196t-91.5 -142q-128 -122 -331 -122q-98 0 -186.5 36.5t-151.5 102.5z" />
<glyph unicode="k" horiz-adv-x="1056" d="M102 0v1024h138v-418h260l319 418h158l-365 -471l404 -553h-160l-356 489h-260v-489h-138z" />
<glyph unicode="l" horiz-adv-x="970" d="M102 0v1024h138v-905h680v-119h-818z" />
<glyph unicode="m" horiz-adv-x="1320" d="M102 0v1024h166l394 -555l391 555h166v-1024h-138v848h-8l-393 -559h-45l-397 559h-9v-848h-127z" />
<glyph unicode="n" horiz-adv-x="1161" d="M102 0v1024h138l688 -829v829h131v-1024h-135l-688 831v-831h-134z" />
<glyph unicode="o" horiz-adv-x="1208" d="M61 512q0 114 42.5 213t121.5 172q155 145 379 145q237 0 393 -159q150 -150 150 -371q0 -112 -41 -210t-117 -171q-155 -149 -385 -149q-236 0 -389 153q-73 73 -113.5 170.5t-40.5 206.5zM199 512q0 -181 114 -295q117 -117 291 -117q172 0 285 113q119 116 119 299 q0 188 -121 303q-109 109 -283 109q-177 0 -293 -119q-112 -112 -112 -293z" />
<glyph unicode="p" horiz-adv-x="1036" d="M102 0v1024h496q159 0 274 -115q103 -103 103 -252q0 -142 -96 -245q-116 -119 -281 -119h-358v-293h-138zM240 412h368q102 0 166 73q64 77 64 172q0 96 -60 168q-70 80 -186 80h-352v-493z" />
<glyph unicode="q" horiz-adv-x="1206" d="M61 512q0 217 146 369q155 161 395 161q239 0 395 -159q148 -148 148 -371q0 -183 -105 -319q-68 -87 -161 -142q34 -21 75.5 -48t69 -44t51.5 -29q101 -47 197 -51l8 -92q-45 -10 -76 -10q-68 0 -129 23t-135 69q-19 12 -89 59t-112 70q-69 -16 -137 -16 q-107 0 -207.5 38.5t-177.5 114.5q-74 73 -115 170.5t-41 206.5zM199 512q0 -159 94 -274q56 -66 136 -102t173 -36q205 0 324 154q82 109 82 258q0 166 -99 279q-117 133 -307 133q-93 0 -173 -36t-136 -102q-94 -115 -94 -274z" />
<glyph unicode="r" horiz-adv-x="1046" d="M102 0v1024h506q157 0 269 -106q108 -105 108 -261q0 -119 -67 -211q-64 -88 -170 -129l204 -317h-151l-183 293h-378v-293h-138zM240 412h370q110 0 174 73q64 70 64 172q0 100 -60 166q-69 82 -188 82h-360v-493z" />
<glyph unicode="s" horiz-adv-x="1024" d="M61 66l39 108q224 -70 371 -70q64 0 107.5 2.5t100 17.5t89.5 42q57 50 57 127q0 75 -53 115q-9 6 -19 11.5t-23 10.5t-22.5 8t-26.5 7t-25 6t-28.5 6.5t-27.5 5.5l-248 45q-171 30 -235 115q-43 49 -43 151q0 125 104 193q114 75 324 75q200 0 403 -84l-47 -106 q-176 72 -346 72q-166 0 -244 -47q-61 -39 -61 -107q0 -60 47 -90q42 -29 137 -45l225 -39q155 -25 234 -76q113 -78 113 -221q0 -66 -31 -126t-88 -103q-112 -88 -371 -88q-215 0 -412 84z" />
<glyph unicode="t" horiz-adv-x="1060" d="M51 905v119h959v-119h-412v-905h-137v905h-410z" />
<glyph unicode="u" horiz-adv-x="1095" d="M102 428v596h138v-608q0 -137 86 -223q90 -93 223 -93t223 90q84 84 84 226v608h137v-596q0 -202 -135 -328q-128 -118 -309 -118q-193 0 -320 127q-127 130 -127 319z" />
<glyph unicode="v" horiz-adv-x="1148" d="M51 1024h150l364 -893h23l364 893h146l-434 -1024h-181z" />
<glyph unicode="w" horiz-adv-x="1705" d="M61 1024h150l281 -893h14l250 893h192l260 -893h15l276 893h146l-332 -1024h-203l-256 881h-10l-248 -881h-201z" />
<glyph unicode="x" horiz-adv-x="1087" d="M51 0l393 530l-372 494h159l310 -418l297 418h159l-364 -492l403 -532h-164l-333 453l-330 -453h-158z" />
<glyph unicode="y" horiz-adv-x="1122" d="M51 1024h156l352 -641h8l355 641h149l-440 -782v-242h-137v238z" />
<glyph unicode="z" horiz-adv-x="1058" d="M82 0v84l709 827l-295 -4h-371v117h848v-82l-701 -829l281 8h424v-121h-895z" />
<glyph unicode="{" horiz-adv-x="475" d="M33 518v113h43q100 0 100 104v369q0 116 61.5 167.5t163.5 51.5h66v-113h-70q-54 0 -78 -24.5t-24 -81.5v-336q0 -142 -80 -190v-9q80 -49 80 -190v-336q0 -57 24 -81.5t78 -24.5h70v-113h-66q-102 0 -163.5 51.5t-61.5 167.5v369q0 106 -100 106h-43z" />
<glyph unicode="|" horiz-adv-x="317" d="M102 -307v1638h113v-1638h-113z" />
<glyph unicode="}" horiz-adv-x="475" d="M8 -63h70q54 0 78 24.5t24 81.5v336q0 142 80 190v9q-80 49 -80 190v336q0 57 -24 81.5t-78 24.5h-70v113h66q102 0 163.5 -51.5t61.5 -167.5v-369q0 -106 100 -106h43v-113h-43q-100 0 -100 -104v-369q0 -116 -61.5 -167.5t-163.5 -51.5h-66v113z" />
<glyph unicode="~" horiz-adv-x="759" d="M51 535q89 77 189 77q64 0 143 -28q82 -29 141 -29q74 0 135 49l50 -78q-87 -75 -189 -75q-70 0 -141 26q-82 29 -143 29q-79 0 -134 -47z" />
<glyph unicode="&#xa2;" horiz-adv-x="1083" d="M72 514q0 222 153 375q132 129 320 149v121h137v-119q190 -19 330 -147l-82 -90q-67 59 -142 89t-174 30q-175 0 -290 -115t-115 -293q0 -183 110 -293q116 -119 295 -119q99 0 174 30t142 89l82 -90q-140 -128 -330 -147v-119h-137v121q-186 20 -318 149 q-155 152 -155 379z" />
<glyph unicode="&#xa5;" horiz-adv-x="1142" d="M61 1024h156l348 -580h17l354 580h145l-354 -580h172v-104h-651v104h168zM248 156v104h651v-104h-258v-156h-137v156h-256z" />
<glyph unicode="&#xa8;" horiz-adv-x="774" d="M102 1251q0 41 28 69t69 28t68.5 -28t27.5 -69t-27.5 -68.5t-68.5 -27.5t-69 27.5t-28 68.5zM479 1251q0 41 27.5 69t68.5 28t69 -28t28 -69t-28 -68.5t-69 -27.5t-68.5 27.5t-27.5 68.5z" />
<glyph unicode="&#xa9;" horiz-adv-x="1189" d="M66 512q0 226 147 373q73 75 171.5 116t209.5 41t213 -42t176 -119q141 -150 141 -369q0 -228 -127 -367q-149 -168 -403 -168q-115 0 -219.5 45.5t-177.5 124.5q-63 69 -97 164t-34 201zM170 512q0 -177 98 -293q117 -139 326 -139q98 0 184 35t142 96q100 129 100 301 q0 182 -109 303q-116 125 -317 125q-184 0 -301 -123q-123 -123 -123 -305zM299 514q0 122 98 213q93 80 215 80q56 0 99.5 -14.5t97.5 -51.5l-51 -84q-41 29 -72 39.5t-74 10.5q-85 0 -145 -54q-61 -52 -61 -139q0 -86 63 -143q58 -52 143 -52q45 0 77 10.5t73 39.5l51 -82 q-88 -68 -201 -68q-138 0 -227 86q-86 80 -86 209z" />
<glyph unicode="&#xab;" horiz-adv-x="688" d="M41 508v57l281 287l65 -53l-215 -262l215 -263l-65 -53zM281 508v57l280 287l66 -53l-215 -262l215 -263l-66 -53z" />
<glyph unicode="&#xad;" horiz-adv-x="669" d="M41 487v105h588v-105h-588z" />
<glyph unicode="&#xae;" horiz-adv-x="802" d="M41 907q0 167 111 264q104 97 247 97q165 0 267 -111q96 -96 96 -250q0 -145 -94 -245q-110 -113 -269 -113q-156 0 -256 100q-102 102 -102 258zM119 907q0 -125 78 -200q75 -84 202 -84q131 0 205 86q78 78 78 198q0 117 -74 197q-77 90 -209 90q-117 0 -194 -74 q-86 -77 -86 -213zM260 735v357h164q69 0 108 -45q29 -37 29 -82q0 -44 -20 -70q-19 -26 -47 -41l55 -119h-82l-43 103h-90v-103h-74zM334 907h90q30 0 49 19q14 14 14 39q0 21 -12 36q-15 21 -51 21h-90v-115z" />
<glyph unicode="&#xb4;" horiz-adv-x="442" d="M102 1167l119 297l119 -59l-154 -277z" />
<glyph unicode="&#xb8;" horiz-adv-x="464" d="M102 -332q82 29 111 51q43 30 43 78q0 21 -12 33t-39 12h-55v189h94l-4 -107q52 0 86 -37q32 -35 32 -90q0 -76 -69 -129q-63 -51 -162 -71z" />
<glyph unicode="&#xbb;" horiz-adv-x="688" d="M61 274l215 263l-215 262l66 53l281 -287v-57l-281 -287zM301 274l215 263l-215 262l66 53l280 -287v-57l-280 -287z" />
<glyph unicode="&#x2c6;" horiz-adv-x="749" d="M102 1184l244 237h57l244 -237l-57 -64l-215 178l-215 -178z" />
<glyph unicode="&#x2da;" horiz-adv-x="602" d="M102 1343q0 82 58 140q57 57 141 57t141 -57q58 -58 58 -140q0 -81 -58 -139q-57 -57 -141 -57t-141 57q-58 58 -58 139zM193 1343q0 -43 28 -79q26 -33 80 -33t80 33q29 37 29 79q0 43 -29 80q-26 33 -80 33t-80 -33q-28 -36 -28 -80z" />
<glyph unicode="&#x2dc;" horiz-adv-x="849" d="M102 1241q89 86 187 86q32 0 61 -7t47 -15t47 -23q53 -31 129 -31q38 0 63.5 9.5t57.5 35.5l54 -63q-85 -82 -183 -82q-81 0 -147 37q-70 39 -137 39q-69 0 -127 -49z" />
<glyph unicode="&#x401;" horiz-adv-x="1144" d="M102 0v1229h930v-127h-788v-389h704v-125h-704v-463h819v-125h-961zM258 1432q0 44 30.5 75t73.5 31q44 0 75.5 -31t31.5 -75q0 -43 -31.5 -74t-75.5 -31q-43 0 -73.5 31t-30.5 74zM676 1432q0 44 30.5 75t73.5 31t75 -31t32 -75q0 -43 -32 -74t-75 -31t-73.5 31 t-30.5 74z" />
<glyph unicode="&#x402;" horiz-adv-x="1540" d="M41 1110v119h1010v-119h-447v-285q83 64 172.5 96.5t206.5 32.5q221 0 346 -141q109 -127 109 -332v-350q0 -145 -41.5 -243t-143.5 -193l-69 67q66 81 92.5 162.5t26.5 200.5v356q0 172 -84 269q-82 92 -236 92q-110 0 -197 -33t-182 -107v-702h-139v1110h-424z" />
<glyph unicode="&#x403;" horiz-adv-x="1081" d="M102 0v1229h928v-121h-788v-1108h-140zM512 1360l127 303l119 -57l-158 -287z" />
<glyph unicode="&#x404;" d="M61 618q0 280 183 453q189 180 467 180q150 0 259 -41t208 -129l-84 -94q-84 71 -172.5 106t-210.5 35q-224 0 -373 -149q-109 -116 -129 -277h706v-120h-710q8 -182 117 -310q71 -84 172 -128t219 -44q122 0 212 36.5t171 107.5l84 -92q-97 -89 -207.5 -132t-259.5 -43 q-278 0 -469 185q-183 180 -183 456z" />
<glyph unicode="&#x405;" horiz-adv-x="1177" d="M61 74l39 112q253 -82 439 -82q58 0 98 2t93 9t96.5 23t76.5 42q76 57 76 160q0 88 -72 147q-77 49 -213 72l-295 51q-100 20 -164 46t-104 73q-57 69 -57 186q0 156 147 248q145 88 354 88q241 0 469 -98l-49 -111q-205 86 -407 86q-180 0 -289 -65q-92 -55 -92 -152 q0 -74 65 -116q59 -39 168 -56l271 -47q191 -34 276 -90q129 -85 129 -256q0 -76 -35 -146.5t-100 -119.5q-137 -103 -440 -103q-238 0 -480 97z" />
<glyph unicode="&#x406;" horiz-adv-x="344" d="M102 0v1229h140v-1229h-140z" />
<glyph unicode="&#x407;" horiz-adv-x="344" d="M-139 1432q0 44 30.5 75t73.5 31q44 0 75.5 -31t31.5 -75q0 -43 -31.5 -74t-75.5 -31q-43 0 -73.5 31t-30.5 74zM102 0v1229h140v-1229h-140zM279 1432q0 44 30.5 75t73.5 31t74.5 -31t31.5 -75q0 -43 -31.5 -74t-74.5 -31t-73.5 31t-30.5 74z" />
<glyph unicode="&#x408;" horiz-adv-x="1058" d="M31 135l73 90q146 -121 318 -121q192 0 291 99q112 112 112 297v729h142v-703q0 -139 -35.5 -235t-108.5 -166q-158 -148 -395 -148q-115 0 -218 41.5t-179 116.5z" />
<glyph unicode="&#x409;" horiz-adv-x="2174" d="M31 12l24 109q36 -8 88 -8q84 0 133 49q50 50 62 139l127 928h801v-355h401q200 0 330 -139q117 -123 117 -295q0 -184 -127 -311q-62 -62 -145 -95.5t-175 -33.5h-541v1108h-538l-121 -858q-15 -118 -90 -187q-74 -71 -195 -71q-81 0 -151 20zM1266 121h403 q123 0 213 86q90 87 90 233q0 133 -82 215q-96 99 -233 99h-391v-633z" />
<glyph unicode="&#x40a;" horiz-adv-x="2039" d="M102 0v1229h140v-502h749v502h139v-355h402q200 0 330 -139q116 -122 116 -295q0 -184 -127 -311q-129 -129 -319 -129h-541v606h-749v-606h-140zM1130 121h404q123 0 213 86q90 87 90 233q0 133 -82 215q-96 99 -233 99h-392v-633z" />
<glyph unicode="&#x40b;" horiz-adv-x="1540" d="M41 1110v119h1010v-119h-447v-285q83 64 172.5 96.5t206.5 32.5q221 0 346 -141q109 -127 109 -332v-481h-135v481q0 172 -84 269q-82 92 -236 92q-110 0 -197 -33t-182 -107v-702h-139v1110h-424z" />
<glyph unicode="&#x40c;" d="M102 0v1229h140v-512h235q68 0 113 26t69 72l156 270q45 74 107 115q71 41 168 41q59 0 90 -6l-17 -115h-20q-97 0 -148 -33q-39 -25 -63 -69l-148 -256q-31 -59 -73 -92l465 -670h-162l-418 606q-44 -10 -107 -10h-247v-596h-140zM502 1360l127 303l119 -57l-158 -287z " />
<glyph unicode="&#x40e;" horiz-adv-x="1323" d="M51 1229h166l465 -826h12l416 826h156l-541 -1022q-55 -105 -121 -158q-71 -59 -174 -59q-50 0 -94 6l18 106h31q80 0 127 31q41 24 68 80l26 49zM414 1532l102 27q15 -67 59 -105q45 -39 113 -39q72 0 111 39q37 37 55 105l104 -27q-24 -100 -86 -156q-70 -61 -184 -61 q-121 0 -192 65q-57 54 -82 152z" />
<glyph unicode="&#x40f;" horiz-adv-x="1263" d="M102 0v1229h140v-1108h780v1108h139v-1229h-461l-10 -258h-117l-10 258h-461z" />
<glyph unicode="&#x410;" horiz-adv-x="1386" d="M51 0l545 1229h192l547 -1229h-151l-109 242h-770l-106 -242h-148zM356 367h668l-311 733h-43z" />
<glyph unicode="&#x411;" horiz-adv-x="1214" d="M102 0v1229h904v-121h-764v-287h485q196 0 311 -133q105 -120 105 -274q0 -174 -119 -293q-121 -121 -297 -121h-625zM242 121h485q125 0 207 92q72 78 72 201q0 112 -70 192q-88 94 -219 94h-475v-579z" />
<glyph unicode="&#x412;" horiz-adv-x="1234" d="M102 0v1229h633q166 0 266 -103q78 -78 78 -200q0 -80 -37 -144q-34 -58 -98 -98v-8q99 -42 148 -117q61 -88 61 -199q0 -155 -104 -254q-115 -106 -287 -106h-660zM244 117h520q111 0 188 80q64 67 64 165t-51 158q-70 82 -189 82h-532v-485zM244 721h514q85 0 133 61 q49 58 49 131q0 85 -55 140q-67 57 -162 57h-479v-389z" />
<glyph unicode="&#x413;" horiz-adv-x="1081" d="M102 0v1229h928v-121h-788v-1108h-140z" />
<glyph unicode="&#x414;" horiz-adv-x="1421" d="M51 121q111 0 178 90q57 73 80 217l115 801h815v-1108h131v-377h-108l-29 256h-1051l-24 -256h-107v377zM311 121h789v987h-559l-105 -715q-25 -175 -125 -272z" />
<glyph unicode="&#x415;" horiz-adv-x="1144" d="M102 0v1229h930v-127h-788v-389h704v-125h-704v-463h819v-125h-961z" />
<glyph unicode="&#x416;" horiz-adv-x="1896" d="M61 1235q44 6 89 6q90 0 163 -37q62 -33 103 -114l133 -277q27 -56 69 -76q39 -20 113 -20h148v512h135v-512h149q67 0 111 20q44 21 72 76l133 277q22 57 98 112q73 39 166 39q45 0 92 -6l-14 -113h-23q-82 0 -129 -24q-47 -27 -74 -80l-125 -254q-2 -3 -8.5 -14t-8 -14 t-7.5 -12.5t-8.5 -13t-8 -11t-9.5 -12t-9.5 -9.5t-11.5 -10l413 -668h-165l-361 608q-50 -12 -108 -12h-164v-596h-135v596h-164q-60 0 -109 12l-358 -608h-168l414 668q-44 38 -70 96l-125 254q-35 61 -82 82q-46 22 -121 22h-22z" />
<glyph unicode="&#x417;" horiz-adv-x="1214" d="M61 84l45 109q234 -91 472 -91q215 0 325 84q98 69 98 205q0 91 -55 158q-30 38 -82 59t-110 21h-439v119h402q98 0 162 67q41 50 41 113q0 90 -80 143q-52 33 -132 48.5t-153 15.5q-189 0 -387 -70l-39 96q197 90 440 90q245 0 379 -98q111 -82 111 -221q0 -74 -41 -133 q-36 -48 -96 -88v-9q100 -40 145 -96q76 -88 76 -215q0 -183 -142 -295q-145 -119 -423 -119q-310 0 -517 107z" />
<glyph unicode="&#x418;" horiz-adv-x="1308" d="M102 0v1229h136v-1047l825 1047h143v-1229h-131v1047l-829 -1047h-144z" />
<glyph unicode="&#x419;" horiz-adv-x="1308" d="M102 0v1229h136v-1047l825 1047h143v-1229h-131v1047l-829 -1047h-144zM381 1532l102 27q15 -66 60 -105t112 -39q72 0 111 39q37 37 55 105l105 -27q-24 -100 -86 -156q-70 -61 -185 -61q-121 0 -192 65q-57 54 -82 152z" />
<glyph unicode="&#x41a;" d="M102 0v1229h140v-512h235q68 0 113 26t69 72l156 270q45 74 107 115q71 41 168 41q59 0 90 -6l-17 -115h-20q-97 0 -148 -33q-39 -25 -63 -69l-148 -256q-31 -59 -73 -92l465 -670h-162l-418 606q-44 -10 -107 -10h-247v-596h-140z" />
<glyph unicode="&#x41b;" horiz-adv-x="1409" d="M31 12l24 109q36 -8 88 -8q84 0 133 49q50 50 62 139l127 928h842v-1229h-140v1108h-579l-121 -858q-15 -118 -90 -187q-74 -71 -195 -71q-81 0 -151 20z" />
<glyph unicode="&#x41c;" horiz-adv-x="1538" d="M102 0v1229h183l489 -684l483 684h179v-1229h-140v1057h-14l-498 -705h-36l-502 705h-15v-1057h-129z" />
<glyph unicode="&#x41d;" horiz-adv-x="1273" d="M102 0v1229h140v-502h790v502h139v-1229h-139v606h-790v-606h-140z" />
<glyph unicode="&#x41e;" horiz-adv-x="1421" d="M61 614q0 260 172 441q88 94 210 145t268 51q139 0 258 -48t207 -136q88 -87 136 -203.5t48 -249.5q0 -266 -178 -444q-183 -193 -471 -193q-146 0 -270 53.5t-212 149.5q-168 182 -168 434zM203 614q0 -210 133 -356q70 -76 167 -118t208 -42q109 0 204.5 41t165.5 117 q136 146 136 358q0 220 -140 363q-147 153 -366 153q-109 0 -206 -41.5t-167 -115.5q-135 -145 -135 -359z" />
<glyph unicode="&#x41f;" horiz-adv-x="1257" d="M102 0v1229h1053v-1229h-139v1108h-774v-1108h-140z" />
<glyph unicode="&#x420;" horiz-adv-x="1204" d="M102 0v1229h592q103 0 195 -42t155 -118q99 -116 99 -278q0 -183 -129 -306q-62 -60 -145 -93.5t-175 -33.5h-448v-358h-144zM246 481h461q133 0 219 99q75 88 75 211q0 126 -75 210q-90 103 -238 103h-442v-623z" />
<glyph unicode="&#x421;" d="M61 618q0 131 48.5 246t136.5 203t207.5 136t259.5 48q150 0 260.5 -42t206.5 -130l-84 -94q-80 71 -170.5 107t-212.5 36q-220 0 -365 -145q-145 -148 -145 -365q0 -224 139 -366q70 -73 166 -112.5t205 -39.5q122 0 212 36.5t171 107.5l84 -92q-97 -89 -207.5 -132 t-259.5 -43q-277 0 -465 185q-89 88 -138 205t-49 251z" />
<glyph unicode="&#x422;" d="M51 1108v121h1139v-121h-500v-1108h-139v1108h-500z" />
<glyph unicode="&#x423;" horiz-adv-x="1316" d="M51 1229h166l465 -826h12l416 826h156l-541 -1022q-55 -105 -121 -158q-71 -59 -174 -59q-50 0 -94 6l18 106h31q80 0 127 31q41 24 68 80l26 49z" />
<glyph unicode="&#x424;" horiz-adv-x="1650" d="M61 635q0 181 115 315q67 79 161.5 122.5t203.5 43.5h217v135h137v-135h215q207 0 350 -149q129 -142 129 -332q0 -207 -149 -350q-143 -133 -330 -133h-215v-152h-137v152h-217q-199 0 -342 143q-138 138 -138 340zM197 635q0 -145 96 -248q105 -108 264 -108h201v714 h-201q-176 0 -281 -127q-79 -95 -79 -231zM895 279h201q151 0 254 98q106 101 106 258q0 154 -102 256t-258 102h-201v-714z" />
<glyph unicode="&#x425;" horiz-adv-x="1277" d="M61 0l471 637l-446 592h168l383 -520l369 520h163l-436 -590l484 -639h-170l-412 563l-414 -563h-160z" />
<glyph unicode="&#x426;" horiz-adv-x="1335" d="M102 0v1229h140v-1108h780v1108h139v-1108h123v-379h-108l-25 258h-1049z" />
<glyph unicode="&#x427;" horiz-adv-x="1286" d="M92 866v363h139v-352q0 -127 25.5 -206.5t81.5 -135.5q104 -107 309 -107q217 0 397 123v678h140v-1229h-140v434q-193 -131 -405 -131q-269 0 -416 160q-67 70 -99 167t-32 236z" />
<glyph unicode="&#x428;" horiz-adv-x="1716" d="M102 0v1229h140v-1108h546v1108h140v-1108h547v1108h139v-1229h-1512z" />
<glyph unicode="&#x429;" horiz-adv-x="1787" d="M102 0v1229h140v-1108h546v1108h140v-1108h547v1108h139v-1108h123v-379h-109l-24 258h-1502z" />
<glyph unicode="&#x42a;" horiz-adv-x="1415" d="M41 1122v107h424v-355h442q200 0 330 -139q117 -123 117 -295q0 -184 -127 -311q-62 -62 -145 -95.5t-175 -33.5h-581v1106zM465 121h444q123 0 213 86q90 87 90 233q0 133 -82 215q-96 99 -233 99h-432v-633z" />
<glyph unicode="&#x42b;" horiz-adv-x="1497" d="M102 0v1229h140v-355h442q200 0 330 -139q116 -122 116 -295q0 -185 -126 -311q-62 -62 -145 -95.5t-175 -33.5h-582zM242 121h444q123 0 213 86q90 87 90 233q0 133 -82 215q-96 99 -233 99h-432v-633zM1255 0v1229h140v-1229h-140z" />
<glyph unicode="&#x42c;" horiz-adv-x="1191" d="M102 0v1229h140v-355h442q200 0 330 -139q116 -122 116 -295q0 -185 -126 -311q-62 -62 -145 -95.5t-175 -33.5h-582zM242 121h444q123 0 213 86q90 87 90 233q0 133 -82 215q-96 99 -233 99h-432v-633z" />
<glyph unicode="&#x42d;" d="M61 152l84 92q81 -71 171 -107.5t212 -36.5q118 0 219.5 44t172.5 128q107 126 116 310h-710v120h706q-20 161 -129 277q-149 149 -373 149q-122 0 -210.5 -35t-172.5 -106l-84 94q99 88 208 129t259 41q278 0 467 -180q183 -173 183 -453q0 -276 -183 -456 q-191 -185 -469 -185q-149 0 -259.5 43t-207.5 132z" />
<glyph unicode="&#x42e;" horiz-adv-x="1779" d="M102 0v1229h140v-537h233q24 218 168 371q182 188 449 188q270 0 452 -188q83 -87 128.5 -203.5t45.5 -245.5q0 -139 -51.5 -260.5t-144.5 -210.5q-174 -166 -430 -166q-133 0 -248.5 50.5t-202.5 140.5q-74 78 -117.5 182t-50.5 221h-231v-571h-140zM612 614 q0 -216 129 -358q145 -158 351 -158q198 0 342 144q141 141 141 372q0 223 -131 367q-137 149 -352 149q-223 0 -361 -163q-119 -142 -119 -353z" />
<glyph unicode="&#x42f;" horiz-adv-x="1214" d="M61 791q0 174 119 296q64 67 152.5 104.5t187.5 37.5h592v-1229h-139v356h-492l-231 -356h-158l260 381q-135 53 -215 164q-76 107 -76 246zM207 791q0 -110 55 -189q86 -125 258 -125h453v631h-453q-158 0 -250 -121q-63 -81 -63 -196z" />
<glyph unicode="&#x430;" horiz-adv-x="1187" d="M51 0l455 1024h174l457 -1024h-150l-88 199h-618l-88 -199h-142zM332 317h516l-244 574h-29z" />
<glyph unicode="&#x431;" horiz-adv-x="1046" d="M102 0v1024h760v-115h-620v-217h383q157 0 264 -117q86 -92 86 -227q0 -132 -88 -233q-105 -115 -262 -115h-523zM242 119h383q104 0 166 71q51 64 51 158q0 101 -56 160q-62 65 -170 65h-374v-454z" />
<glyph unicode="&#x432;" horiz-adv-x="1064" d="M102 0v1024h529q144 0 227 -86q66 -69 66 -172q0 -67 -31 -121q-29 -46 -72 -74v-8q72 -35 111 -92q51 -68 51 -168q0 -123 -90 -213q-93 -90 -242 -90h-549zM240 115h415q95 0 146 57q49 52 49 133q0 78 -41 125q-55 64 -145 64h-424v-379zM240 608h409q65 0 103 47 q36 42 36 103q0 66 -43 106q-43 43 -124 43h-381v-299z" />
<glyph unicode="&#x433;" horiz-adv-x="956" d="M102 0v1024h783v-119h-645v-905h-138z" />
<glyph unicode="&#x434;" horiz-adv-x="1220" d="M51 119h33q74 0 121 65q43 66 59 178l90 662h693v-905h112v-330h-108l-23 211h-848l-20 -211h-109v330zM299 119h610v786h-438l-82 -577q-22 -141 -90 -209z" />
<glyph unicode="&#x435;" horiz-adv-x="993" d="M102 0v1024h787v-121h-649v-303h579v-119h-579v-362h671v-119h-809z" />
<glyph unicode="&#x436;" horiz-adv-x="1607" d="M61 1028q43 6 84 6q82 0 138 -33q60 -35 88 -96l108 -227q22 -42 56 -57q39 -17 86 -17h116v420h131v-420h117q47 0 86 17q33 14 55 57l109 227q27 59 84 94q59 35 141 35q40 0 86 -6l-12 -108h-29q-55 0 -94 -17q-45 -27 -63 -63l-103 -209q-25 -48 -55 -78l344 -553 h-160l-293 496q-35 -9 -84 -9h-129v-487h-131v487h-129q-52 0 -86 9l-291 -496h-159l342 553q-31 27 -54 78l-102 209q-18 36 -63 63q-39 17 -95 17h-28z" />
<glyph unicode="&#x437;" horiz-adv-x="1040" d="M61 76l43 106q192 -80 392 -80q171 0 260 66q78 58 78 162q0 76 -43 125q-48 61 -152 61h-367v115h338q81 0 125 51q31 39 31 86q0 72 -59 111q-75 49 -230 49t-323 -62l-39 99q157 77 374 77q203 0 310 -75q100 -69 100 -195q0 -62 -31 -110q-27 -44 -71 -68v-8 q63 -24 108 -76q64 -73 64 -180q0 -153 -117 -250q-118 -98 -356 -98q-254 0 -435 94z" />
<glyph unicode="&#x438;" horiz-adv-x="1130" d="M102 0v1024h131v-836l662 836h133v-1024h-129v836l-663 -836h-134z" />
<glyph unicode="&#x439;" horiz-adv-x="1130" d="M102 0v1024h131v-836l662 836h133v-1024h-129v836l-663 -836h-134zM336 1323l94 29q16 -55 47 -86q36 -31 88 -31t88 31q31 31 47 86l95 -29q-12 -72 -62 -125q-63 -63 -168 -63t-168 63q-48 51 -61 125z" />
<glyph unicode="&#x43a;" horiz-adv-x="1071" d="M102 0v1024h136v-420h180q50 0 94 23q30 20 47 53l127 223q34 63 90 98q51 33 144 33q38 0 84 -6l-13 -110h-28q-68 0 -97 -15q-43 -26 -63 -63l-121 -209q-23 -45 -57 -76l385 -555h-162l-336 496q-34 -9 -84 -9h-190v-487h-136z" />
<glyph unicode="&#x43b;" horiz-adv-x="1202" d="M31 12l24 107q39 -10 80 -10q73 0 101 32q37 29 49 115l106 768h709v-1024h-137v903h-451l-98 -692q-15 -105 -76 -160q-65 -59 -170 -59q-70 0 -137 20z" />
<glyph unicode="&#x43c;" horiz-adv-x="1320" d="M102 0v1024h166l394 -555l391 555h166v-1024h-138v848h-8l-393 -559h-45l-397 559h-9v-848h-127z" />
<glyph unicode="&#x43d;" horiz-adv-x="1093" d="M102 0v1024h138v-418h626v418h138v-1024h-138v487h-626v-487h-138z" />
<glyph unicode="&#x43e;" horiz-adv-x="1208" d="M61 512q0 114 42.5 213t121.5 172q155 145 379 145q237 0 393 -159q150 -150 150 -371q0 -112 -41 -210t-117 -171q-155 -149 -385 -149q-236 0 -389 153q-73 73 -113.5 170.5t-40.5 206.5zM199 512q0 -181 114 -295q117 -117 291 -117q172 0 285 113q119 116 119 299 q0 188 -121 303q-109 109 -283 109q-177 0 -293 -119q-112 -112 -112 -293z" />
<glyph unicode="&#x43f;" horiz-adv-x="1112" d="M102 0v1024h908v-1024h-140v903h-630v-903h-138z" />
<glyph unicode="&#x440;" horiz-adv-x="1036" d="M102 0v1024h496q159 0 274 -115q103 -103 103 -252q0 -142 -96 -245q-116 -119 -281 -119h-358v-293h-138zM240 412h368q102 0 166 73q64 77 64 172q0 96 -60 168q-70 80 -186 80h-352v-493z" />
<glyph unicode="&#x441;" horiz-adv-x="1083" d="M72 514q0 222 153 375t389 153q126 0 221 -36.5t177 -112.5l-82 -90q-67 59 -142 89t-174 30q-175 0 -290 -115t-115 -293q0 -183 110 -293q116 -119 295 -119q99 0 174 30t142 89l82 -90q-83 -75 -178 -112t-220 -37q-234 0 -387 153q-155 152 -155 379z" />
<glyph unicode="&#x442;" horiz-adv-x="1060" d="M51 905v119h959v-119h-412v-905h-137v905h-410z" />
<glyph unicode="&#x443;" horiz-adv-x="1134" d="M51 1024h162l373 -668h10l336 668h151l-448 -848q-51 -93 -100 -135q-59 -47 -150 -47q-45 0 -88 6l10 102h35q55 0 92 19q33 14 60 67l18 35z" />
<glyph unicode="&#x444;" horiz-adv-x="1394" d="M61 528q0 164 109 279q116 125 295 125h166v110h133v-110h166q91 0 171 -37t136 -104q96 -117 96 -263q0 -165 -119 -284t-284 -119h-166v-125h-133v125h-166q-169 0 -291 125q-113 116 -113 278zM193 528q0 -121 77 -198q81 -84 207 -84h154v567h-154q-123 0 -205 -82 q-79 -79 -79 -203zM764 246h154q128 0 204 82q80 80 80 200q0 112 -69 191q-88 94 -215 94h-154v-567z" />
<glyph unicode="&#x445;" horiz-adv-x="1087" d="M51 0l393 530l-372 494h159l310 -418l297 418h159l-364 -492l403 -532h-164l-333 453l-330 -453h-158z" />
<glyph unicode="&#x446;" horiz-adv-x="1142" d="M102 0v1024h138v-903h612v903h139v-903h101v-334h-109l-20 213h-861z" />
<glyph unicode="&#x447;" horiz-adv-x="1105" d="M82 719v305h139v-297q0 -103 20 -166.5t62 -107.5q84 -84 248 -84q178 0 315 96v559h138v-1024h-138v346q-66 -46 -152.5 -71t-168.5 -25q-223 0 -348 131q-115 124 -115 338z" />
<glyph unicode="&#x448;" horiz-adv-x="1462" d="M102 0v1024h138v-905h422v905h137v-905h424v905h137v-1024h-1258z" />
<glyph unicode="&#x449;" horiz-adv-x="1511" d="M102 0v1024h138v-905h424v905h137v-905h424v905h137v-905h98v-330h-106l-23 211h-1229z" />
<glyph unicode="&#x44a;" horiz-adv-x="1202" d="M41 918v106h371v-291h352q156 0 270 -108q107 -102 107 -256q0 -157 -109 -263q-112 -106 -268 -106h-490v903zM412 121h354q106 0 172 69q66 72 66 179q0 100 -64 170q-67 73 -184 73h-344v-491z" />
<glyph unicode="&#x44b;" horiz-adv-x="1312" d="M102 0v1024h138v-291h352q156 0 268 -106q109 -106 109 -258q0 -162 -117 -269q-108 -100 -260 -100h-490zM240 121h362q102 0 168 76q61 70 61 172q0 100 -63 166q-70 77 -182 77h-346v-491zM1073 0v1024h137v-1024h-137z" />
<glyph unicode="&#x44c;" horiz-adv-x="1030" d="M102 0v1024h138v-291h352q175 0 289 -127q88 -101 88 -237q0 -147 -95 -248q-115 -121 -282 -121h-490zM240 121h362q101 0 166 74q63 69 63 174q0 86 -53 155q-69 88 -192 88h-346v-491z" />
<glyph unicode="&#x44d;" horiz-adv-x="1081" d="M82 133l80 90q134 -121 321 -121q189 0 295 115q89 95 101 250h-588v121h583q-18 147 -112 235q-109 101 -279 101q-184 0 -321 -121l-80 86q162 153 401 153t385 -143q152 -149 152 -387q0 -239 -156 -389q-147 -141 -381 -141q-238 0 -401 151z" />
<glyph unicode="&#x44e;" horiz-adv-x="1513" d="M102 0v1024h140v-438h172q24 199 168 327q145 129 348 129q115 0 213 -42.5t168 -118.5q141 -154 141 -369q0 -222 -145 -373q-150 -157 -377 -157q-214 0 -363 143q-140 140 -155 340h-170v-465h-140zM547 512q0 -180 102 -291q113 -119 281 -119q171 0 282 123 q101 115 101 287q0 165 -92 281q-112 131 -291 131q-151 0 -256 -97q-127 -114 -127 -315z" />
<glyph unicode="&#x44f;" horiz-adv-x="1034" d="M51 657q0 149 107 256q111 111 278 111h496v-1024h-135v291h-385l-191 -291h-151l215 317q-104 39 -166 129q-68 98 -68 211zM190 657q0 -96 60 -168q69 -79 186 -79h361v493h-361q-112 0 -180 -74q-66 -76 -66 -172z" />
<glyph unicode="&#x451;" horiz-adv-x="993" d="M102 0v1024h787v-121h-649v-303h579v-119h-579v-362h671v-119h-809zM211 1251q0 41 27.5 69t68.5 28t68.5 -28t27.5 -69t-27.5 -68.5t-68.5 -27.5t-68.5 27.5t-27.5 68.5zM588 1251q0 41 27.5 69t68.5 28t68.5 -28t27.5 -69t-27.5 -68.5t-68.5 -27.5t-68.5 27.5 t-27.5 68.5z" />
<glyph unicode="&#x452;" horiz-adv-x="1409" d="M51 905v119h959v-119h-412v-229q129 90 301 90q193 0 311 -100q138 -116 138 -330v-219q0 -135 -60 -232q-48 -81 -135 -145l-68 67q68 74 93 134q30 66 30 184v203q0 164 -82 243q-79 76 -233 76q-93 0 -160.5 -20.5t-134.5 -69.5v-557h-137v905h-410z" />
<glyph unicode="&#x453;" horiz-adv-x="956" d="M102 0v1024h783v-119h-645v-905h-138zM471 1167l119 297l119 -59l-154 -277z" />
<glyph unicode="&#x454;" horiz-adv-x="1081" d="M61 512q0 238 150 385q148 145 387 145t401 -153l-79 -86q-137 121 -322 121q-175 0 -281 -103q-92 -89 -110 -233h584v-121h-588q12 -163 114 -262q106 -103 281 -103q188 0 322 121l79 -90q-163 -151 -401 -151q-212 0 -356 118q-87 73 -134 180t-47 232z" />
<glyph unicode="&#x455;" horiz-adv-x="1024" d="M61 66l39 108q224 -70 371 -70q64 0 107.5 2.5t100 17.5t89.5 42q57 50 57 127q0 75 -53 115q-9 6 -19 11.5t-23 10.5t-22.5 8t-26.5 7t-25 6t-28.5 6.5t-27.5 5.5l-248 45q-171 30 -235 115q-43 49 -43 151q0 125 104 193q114 75 324 75q200 0 403 -84l-47 -106 q-176 72 -346 72q-166 0 -244 -47q-61 -39 -61 -107q0 -60 47 -90q42 -29 137 -45l225 -39q155 -25 234 -76q113 -78 113 -221q0 -66 -31 -126t-88 -103q-112 -88 -371 -88q-215 0 -412 84z" />
<glyph unicode="&#x456;" horiz-adv-x="342" d="M102 0v1024h138v-1024h-138z" />
<glyph unicode="&#x457;" horiz-adv-x="342" d="M-111 1251q0 41 28 69t69 28t68.5 -28t27.5 -69t-27.5 -68.5t-68.5 -27.5t-69 27.5t-28 68.5zM102 0v1024h138v-1024h-138zM266 1251q0 41 27.5 69t68.5 28t69 -28t28 -69t-28 -68.5t-69 -27.5t-68.5 27.5t-27.5 68.5z" />
<glyph unicode="&#x458;" horiz-adv-x="913" d="M31 121l69 88q130 -107 265 -107q151 0 231 80q88 88 88 238v604h137v-582q0 -116 -29.5 -196t-91.5 -142q-128 -122 -331 -122q-98 0 -186.5 36.5t-151.5 102.5z" />
<glyph unicode="&#x459;" horiz-adv-x="1849" d="M31 12l24 107q39 -10 80 -10q73 0 101 32q37 29 49 115l106 768h688v-291h332q168 0 283 -121q94 -100 94 -243q0 -149 -102 -256q-113 -113 -275 -113h-469v903h-430l-98 -692q-15 -105 -76 -160q-65 -59 -170 -59q-70 0 -137 20zM1079 121h342q106 0 174 84 q56 71 56 164q0 97 -60 163q-70 80 -186 80h-326v-491z" />
<glyph unicode="&#x45a;" horiz-adv-x="1753" d="M102 0v1024h138v-418h606v418h137v-291h332q175 0 289 -127q88 -101 88 -237q0 -147 -95 -248q-115 -121 -282 -121h-469v487h-606v-487h-138zM983 121h342q101 0 166 74q63 69 63 174q0 86 -53 155q-69 88 -192 88h-326v-491z" />
<glyph unicode="&#x45b;" horiz-adv-x="1409" d="M51 905v119h959v-119h-412v-229q129 90 301 90q193 0 311 -100q138 -116 138 -330v-336h-140v328q0 164 -82 243q-79 76 -233 76q-93 0 -160.5 -20.5t-134.5 -69.5v-557h-137v905h-410z" />
<glyph unicode="&#x45c;" horiz-adv-x="1071" d="M102 0v1024h136v-420h180q50 0 94 23q30 20 47 53l127 223q34 63 90 98q51 33 144 33q38 0 84 -6l-13 -110h-28q-68 0 -97 -15q-43 -26 -63 -63l-121 -209q-23 -45 -57 -76l385 -555h-162l-336 496q-34 -9 -84 -9h-190v-487h-136zM416 1167l119 297l118 -59l-153 -277z " />
<glyph unicode="&#x45e;" horiz-adv-x="1134" d="M51 1024h162l373 -668h10l336 668h151l-448 -848q-51 -93 -100 -135q-59 -47 -150 -47q-45 0 -88 6l10 102h35q55 0 92 19q33 14 60 67l18 35zM360 1323l95 29q16 -55 47 -86q36 -31 88 -31t88 31q31 31 47 86l94 -29q-13 -74 -61 -125q-63 -63 -168 -63t-168 63 q-50 53 -62 125z" />
<glyph unicode="&#x45f;" horiz-adv-x="1112" d="M102 0v1024h138v-903h630v903h140v-1024h-389l-11 -213h-108l-10 213h-390z" />
<glyph unicode="&#x462;" horiz-adv-x="1191" d="M0 1008v116h102v105h140v-105h336v-116h-336v-134h442q200 0 330 -139q116 -122 116 -295q0 -185 -126 -311q-62 -62 -145 -95.5t-175 -33.5h-582v1008h-102zM242 121h444q123 0 213 86q90 87 90 233q0 133 -82 215q-96 99 -233 99h-432v-633z" />
<glyph unicode="&#x463;" horiz-adv-x="1030" d="M0 905v119h102v205h138v-205h282v-119h-282v-172h352q175 0 289 -127q88 -101 88 -237q0 -147 -95 -248q-115 -121 -282 -121h-490v905h-102zM240 121h362q101 0 166 74q63 69 63 174q0 86 -53 155q-69 88 -192 88h-346v-491z" />
<glyph unicode="&#x472;" horiz-adv-x="1421" d="M61 614q0 136 51 256t144 207q184 174 455 174q283 0 471 -188q86 -88 132 -204t46 -245q0 -281 -186 -458q-89 -84 -208 -131.5t-255 -47.5q-139 0 -259 48.5t-208 136.5q-87 87 -135 203.5t-48 248.5zM201 657q144 99 266 99q84 0 146.5 -19t127.5 -55q126 -68 236 -68 q70 0 120.5 18.5t110.5 65.5q-20 175 -143 295q-141 135 -354 135q-220 0 -367 -147q-117 -129 -143 -324zM209 545q21 -182 139 -297q148 -148 363 -148q212 0 358 140q127 127 148 344q-137 -90 -254 -90q-132 0 -263 71q-134 72 -247 72q-135 0 -244 -92z" />
<glyph unicode="&#x473;" horiz-adv-x="1208" d="M61 512q0 114 42.5 213t121.5 172q155 145 379 145q237 0 393 -159q150 -150 150 -371q0 -112 -41 -210t-117 -171q-155 -149 -385 -149q-236 0 -389 153q-73 73 -113.5 170.5t-40.5 206.5zM201 567q97 66 202 66q117 0 232 -60q101 -53 188 -53q54 0 92 14t86 50 q-21 141 -114 231q-109 109 -283 109q-177 0 -293 -119q-92 -95 -110 -238zM203 453q15 -141 110 -236q117 -117 291 -117q172 0 285 113q102 102 117 254q-89 -59 -195 -59q-112 0 -221 57t-199 57q-107 0 -188 -69z" />
<glyph unicode="&#x474;" horiz-adv-x="1341" d="M31 1229h151l447 -1090h41l127 365q80 236 223 469q93 153 225 295l96 -80q-107 -114 -221 -295q-124 -204 -207 -436l-165 -457h-199z" />
<glyph unicode="&#x475;" horiz-adv-x="1148" d="M51 1024h150l364 -893h23l100 293q73 216 180 389q80 124 197 248l90 -78q-106 -117 -186 -246q-100 -164 -168 -358l-137 -379h-181z" />
<glyph unicode="&#x490;" horiz-adv-x="1081" d="M102 0v1229h799l19 192l110 -4v-309h-788v-1108h-140z" />
<glyph unicode="&#x491;" horiz-adv-x="956" d="M102 0v1024h664l10 162h109v-281h-645v-905h-138z" />
<glyph unicode="&#x4d8;" horiz-adv-x="1396" d="M61 614q0 64 7 105h1116q-30 169 -135 274q-68 65 -163 100t-200 35q-106 0 -207.5 -35.5t-179.5 -101.5l-78 99q178 161 465 161q141 0 266.5 -50.5t212.5 -139.5q170 -170 170 -447q0 -288 -180 -456q-184 -181 -457 -181q-270 0 -460 187q-177 177 -177 450zM203 596 q13 -229 139 -350q156 -146 356 -146q207 0 353 140q134 141 143 356h-991z" />
<glyph unicode="&#x4d9;" horiz-adv-x="1187" d="M61 512q0 40 7 94h911q-24 132 -107 209q-109 109 -288 109q-189 0 -318 -117l-76 94q72 68 174.5 104.5t219.5 36.5q119 0 222.5 -42t176.5 -117q143 -143 143 -371q0 -236 -151 -381q-155 -149 -381 -149q-230 0 -383 153q-72 72 -111 169.5t-39 207.5zM199 487 q9 -172 110 -270q117 -117 285 -117q167 0 280 113q106 103 115 274h-790z" />
<glyph unicode="&#x2000;" horiz-adv-x="831" />
<glyph unicode="&#x2001;" horiz-adv-x="1663" />
<glyph unicode="&#x2002;" horiz-adv-x="831" />
<glyph unicode="&#x2003;" horiz-adv-x="1663" />
<glyph unicode="&#x2004;" horiz-adv-x="554" />
<glyph unicode="&#x2005;" horiz-adv-x="415" />
<glyph unicode="&#x2006;" horiz-adv-x="277" />
<glyph unicode="&#x2007;" horiz-adv-x="277" />
<glyph unicode="&#x2008;" horiz-adv-x="207" />
<glyph unicode="&#x2009;" horiz-adv-x="332" />
<glyph unicode="&#x200a;" horiz-adv-x="92" />
<glyph unicode="&#x2010;" horiz-adv-x="669" d="M41 487v105h588v-105h-588z" />
<glyph unicode="&#x2011;" horiz-adv-x="669" d="M41 487v105h588v-105h-588z" />
<glyph unicode="&#x2012;" horiz-adv-x="669" d="M41 487v105h588v-105h-588z" />
<glyph unicode="&#x2013;" horiz-adv-x="864" d="M41 487v105h782v-105h-782z" />
<glyph unicode="&#x2014;" horiz-adv-x="1024" d="M41 487v105h942v-105h-942z" />
<glyph unicode="&#x2018;" horiz-adv-x="350" d="M72 1135q0 26 10 49l80 198l74 -20l-25 -133q68 -18 68 -94q0 -43 -27.5 -70t-75.5 -27q-49 0 -76.5 27t-27.5 70z" />
<glyph unicode="&#x2019;" horiz-adv-x="350" d="M72 1133q0 43 27 69.5t75 26.5q50 0 77.5 -26.5t27.5 -69.5q0 -24 -11 -50l-80 -198l-73 20l24 133q-67 18 -67 95z" />
<glyph unicode="&#x201a;" horiz-adv-x="350" d="M72 84q0 43 27 69.5t75 26.5q50 0 77.5 -26.5t27.5 -69.5q0 -23 -11 -49l-80 -199l-73 21l24 133q-67 18 -67 94z" />
<glyph unicode="&#x201c;" horiz-adv-x="593" d="M72 1135q0 26 10 49l80 198l74 -20l-25 -133q68 -18 68 -94q0 -43 -27.5 -70t-75.5 -27q-49 0 -76.5 27t-27.5 70zM315 1135q0 23 11 49l80 198l73 -20l-24 -133q67 -18 67 -94q0 -43 -27 -70t-75 -27q-50 0 -77.5 27t-27.5 70z" />
<glyph unicode="&#x201d;" horiz-adv-x="593" d="M72 1133q0 43 27 69.5t75 26.5q50 0 77.5 -26.5t27.5 -69.5q0 -24 -11 -50l-80 -198l-73 20l24 133q-67 18 -67 95zM315 1133q0 42 27.5 69t75.5 27q50 0 77 -26.5t27 -69.5q0 -27 -10 -50l-80 -198l-74 20l25 133q-68 18 -68 95z" />
<glyph unicode="&#x201e;" horiz-adv-x="593" d="M72 84q0 43 27 69.5t75 26.5q50 0 77.5 -26.5t27.5 -69.5q0 -23 -11 -49l-80 -199l-73 21l24 133q-67 18 -67 94zM315 84q0 42 27.5 69t75.5 27q50 0 77 -26.5t27 -69.5q0 -26 -10 -49l-80 -199l-74 21l25 133q-68 18 -68 94z" />
<glyph unicode="&#x2026;" horiz-adv-x="987" d="M72 90q0 45 28 74t74 29t74 -29t28 -74t-27.5 -73.5t-74.5 -28.5t-74.5 28.5t-27.5 73.5zM391 90q0 45 28 74t75 29q46 0 74 -29t28 -74t-27.5 -73.5t-74.5 -28.5t-75 28.5t-28 73.5zM711 90q0 45 28 74t74 29t74 -29t28 -74t-27.5 -73.5t-74.5 -28.5t-74.5 28.5 t-27.5 73.5z" />
<glyph unicode="&#x202f;" horiz-adv-x="332" />
<glyph unicode="&#x2039;" horiz-adv-x="585" d="M41 485v58l434 286l49 -73l-331 -242l331 -242l-49 -73z" />
<glyph unicode="&#x203a;" horiz-adv-x="585" d="M61 272l332 242l-332 242l50 73l434 -286v-58l-434 -286z" />
<glyph unicode="&#x205f;" horiz-adv-x="415" />
<glyph unicode="&#x20ac;" horiz-adv-x="1083" d="M20 369v104h701l-19 -104h-471q26 -86 88 -148q116 -119 295 -119q99 0 174 30t142 89l82 -90q-83 -75 -178 -112t-220 -37q-234 0 -387 153q-98 91 -137 234h-70zM20 557v105h72q37 131 133 227q153 153 389 153q126 0 221 -36.5t177 -112.5l-82 -90q-67 59 -142 89 t-174 30q-175 0 -290 -115q-63 -63 -93 -145h523l-19 -105h-715z" />
<glyph unicode="&#x2122;" horiz-adv-x="1245" d="M51 1147v82h481v-82h-198v-426h-86v426h-197zM565 721v508h105l196 -244l197 244h100v-508h-86v395l-200 -244h-31l-197 244v-395h-84z" />
<glyph unicode="&#x25fc;" horiz-adv-x="1024" d="M0 0v1024h1024v-1024h-1024z" />
</font>
</defs>
</svg>
