<?xml version="1.0" standalone="no"?>
<!DOCTYPE svg PUBLIC "-//W3C//DTD SVG 1.1//EN" "http://www.w3.org/Graphics/SVG/1.1/DTD/svg11.dtd" >
<svg xmlns="http://www.w3.org/2000/svg">
<metadata></metadata>
<defs>
<font id="roomblack" horiz-adv-x="1210" >
<font-face units-per-em="2048" ascent="1679" descent="-369" />
<missing-glyph horiz-adv-x="614" />
<glyph horiz-adv-x="0" />
<glyph horiz-adv-x="682" />
<glyph unicode=" "  horiz-adv-x="614" />
<glyph unicode="&#x09;" horiz-adv-x="614" />
<glyph unicode="&#xa0;" horiz-adv-x="614" />
<glyph unicode="!" horiz-adv-x="425" d="M70 133q0 63 39 103t102 40q65 0 105 -40t40 -103q0 -66 -39.5 -105.5t-105.5 -39.5q-63 0 -102 39.5t-39 105.5zM102 987v311h217v-311l-6 -641h-200z" />
<glyph unicode="&#x22;" horiz-adv-x="573" d="M55 1229h211l-30 -355h-152zM311 1229h209l-28 -355h-154z" />
<glyph unicode="#" horiz-adv-x="999" d="M82 307v156h182l12 127h-194v158h201l16 188l154 -6l-15 -182h140l14 188l158 -6l-17 -182h185v-158h-193l-12 -127h205v-156h-213l-15 -188l-153 6l12 182h-137l-17 -188l-153 6l12 182h-172zM418 463h139l12 127h-139z" />
<glyph unicode="$" horiz-adv-x="1064" d="M70 90l96 199q98 -48 174 -66t164 -18q128 0 205 35q49 29 49 69t-33 58q-39 23 -119 36l-221 39q-144 24 -223 109q-74 77 -74 192q0 108 90 195q77 74 228 98v123h237v-125q148 -14 322 -96l-97 -193q-173 78 -329 78q-118 0 -172 -32q-29 -19 -29 -43q0 -32 20 -46 q19 -19 91 -32l194 -33q186 -29 283 -121q78 -75 78 -199q0 -126 -89 -215q-91 -87 -272 -112v-125h-237v121q-92 7 -168 30.5t-168 73.5z" />
<glyph unicode="%" horiz-adv-x="1415" d="M41 743q0 130 88 218q87 81 211 81q150 0 235 -104q66 -82 66 -195q0 -114 -72 -198q-88 -101 -229 -101q-127 0 -213 86t-86 213zM213 748q0 -61 37 -95q37 -37 90 -37q56 0 94 41q31 36 31 91t-35 90q-30 34 -90 34q-54 0 -88 -34q-39 -31 -39 -90zM291 57l682 1000 l151 -99l-692 -995zM774 281q0 129 88 217q88 82 211 82q151 0 236 -105q65 -81 65 -194q0 -116 -71 -199q-87 -100 -230 -100q-127 0 -213 86t-86 213zM946 285q0 -61 37 -95q36 -36 90 -36q56 0 94 41q31 36 31 90q0 53 -35 88q-37 37 -90 37t-88 -35q-39 -31 -39 -90z " />
<glyph unicode="&#x26;" horiz-adv-x="1208" d="M61 412q0 134 62 237q30 48 121 123q-31 74 -31 137q0 131 90 228q50 58 115.5 86t169.5 28q263 0 360 -243l-203 -88q-47 124 -157 124q-70 0 -107 -49q-28 -42 -28 -92q0 -60 43 -108l385 -396q25 48 34 109l199 -55q-24 -144 -80 -222l113 -118l-160 -144l-100 107 q-66 -50 -145 -74.5t-191 -24.5q-198 0 -330 103q-74 57 -117 143t-43 189zM295 414q0 -95 72 -160q74 -68 188 -68q103 0 178 45l-366 385q-43 -40 -60 -92q-12 -37 -12 -110z" />
<glyph unicode="'" horiz-adv-x="333" d="M55 1229h224l-29 -355h-166z" />
<glyph unicode="(" horiz-adv-x="468" d="M66 553q0 192 54 377.5t154 333.5l179 -107q-74 -116 -114 -285.5t-40 -318.5t38.5 -309.5t115.5 -274.5l-179 -104q-208 308 -208 688z" />
<glyph unicode=")" horiz-adv-x="468" d="M16 -29q74 118 115 286.5t41 317.5q0 151 -39 311t-117 275l179 103q208 -308 208 -689q0 -192 -54 -377t-154 -333z" />
<glyph unicode="*" horiz-adv-x="559" d="M27 1016l34 110l50 2l104 -49l-6 113l18 49h113l18 -47l-12 -117l103 47l51 -2l35 -118l-41 -25l-99 -23l62 -84l12 -47l-82 -63l-45 12l-59 100l-62 -98l-47 -14l-82 61l2 49l76 84l-111 27z" />
<glyph unicode="+" horiz-adv-x="708" d="M41 457v196h213v215h197v-215h217v-196h-217v-215h-197v215h-213z" />
<glyph unicode="," horiz-adv-x="448" d="M72 137q0 64 41.5 106t109.5 42q71 0 112.5 -41.5t41.5 -106.5q0 -47 -12 -74l-111 -266l-137 39l35 164q-80 44 -80 137z" />
<glyph unicode="-" horiz-adv-x="768" d="M68 438v197h632v-197h-632z" />
<glyph unicode="." horiz-adv-x="448" d="M72 137q0 66 41 107t110 41q71 0 112.5 -40.5t41.5 -107.5q0 -64 -41.5 -105.5t-112.5 -41.5q-68 0 -109.5 41.5t-41.5 105.5z" />
<glyph unicode="/" horiz-adv-x="647" d="M-27 -18l492 1306l188 -69l-491 -1305z" />
<glyph unicode="0" horiz-adv-x="1380" d="M63 614q0 296 189 473q172 164 438 164t438 -164q189 -177 189 -473t-189 -473q-172 -164 -438 -164t-438 164q-189 177 -189 473zM301 614q0 -192 98 -305q106 -125 291 -125t291 125q98 113 98 305q0 193 -98 306q-105 124 -291 124t-291 -124q-98 -113 -98 -306z" />
<glyph unicode="1" horiz-adv-x="604" d="M25 1069l342 160h135v-1229h-228v961l-168 -66z" />
<glyph unicode="2" horiz-adv-x="1110" d="M72 1012q183 239 483 239q109 0 206 -30.5t163 -90.5q114 -100 114 -274q0 -132 -86 -244q-87 -110 -196 -194l-269 -213h543v-205h-917v193l516 403q86 67 135 141q43 62 43 127q0 62 -39 115q-71 68 -213 68q-197 0 -330 -175z" />
<glyph unicode="3" horiz-adv-x="1132" d="M51 195l135 143q93 -87 180 -121.5t187 -34.5q87 0 141 20t99 60q51 54 51 137q0 84 -49 121q-52 41 -150 41h-354v203h325q85 0 125 49q29 37 29 92q0 69 -51 107q-56 39 -187 39q-88 0 -159 -28.5t-144 -98.5l-135 139q185 188 459 188q217 0 336 -108q97 -91 100 -238 q0 -65 -28 -119q-15 -34 -66 -75v-17q87 -46 131 -123q45 -74 45 -172q0 -83 -31.5 -161.5t-95.5 -135.5q-149 -125 -391 -125q-160 0 -280 51.5t-222 166.5z" />
<glyph unicode="4" horiz-adv-x="1177" d="M51 176v162l762 891h186v-846h125v-195l-125 -10v-178h-231v176h-717zM369 383h399v465z" />
<glyph unicode="5" horiz-adv-x="1120" d="M51 190l139 156q84 -87 163 -125.5t186 -38.5q143 0 227 78q68 65 68 162q0 91 -60 151q-78 78 -207 78q-97 0 -157.5 -14t-130.5 -51h-150v643h840v-207h-623v-215q95 45 223 45q229 0 359 -121q131 -118 131 -309q0 -200 -125 -313q-144 -132 -395 -132q-164 0 -282 52 t-206 161z" />
<glyph unicode="6" horiz-adv-x="1150" d="M61 598q0 151 43 279.5t127 218.5q142 155 371 155q125 0 226 -33.5t202 -117.5l-125 -156q-80 59 -141.5 78.5t-159.5 19.5q-136 0 -213 -90q-53 -55 -78 -155q121 49 275 49q115 0 218.5 -36t172.5 -108q111 -111 111 -280q0 -184 -125 -309q-136 -136 -379 -136 q-266 0 -408 195q-117 168 -117 426zM293 571q0 -171 72 -278q79 -111 221 -111q126 0 198 60q78 63 78 180q0 102 -63 153q-72 66 -211 66q-96 0 -163.5 -14t-131.5 -45v-11z" />
<glyph unicode="7" horiz-adv-x="1060" d="M82 1024v205h948v-154l-551 -1075h-258l531 1024h-670z" />
<glyph unicode="8" horiz-adv-x="1189" d="M59 381q0 99 56 186q45 68 135 119q-45 36 -66 82q-30 62 -30 141q0 165 131 258q118 84 313 84q207 0 324 -106q106 -93 106 -230q0 -65 -22 -114q-21 -47 -70 -90q87 -46 139 -127q55 -86 55 -193q0 -183 -135 -299q-145 -115 -403 -115q-272 0 -414 121 q-119 104 -119 283zM291 391q0 -104 90 -158q86 -51 211 -51q158 0 244 78q61 54 61 131q0 83 -55 127q-76 57 -250 57q-103 0 -180 15q-54 -22 -84 -68q-37 -45 -37 -131zM381 907q0 -33 13 -58.5t36 -35.5q46 -29 162 -29q91 0 143 -8q29 23 47 55q15 27 15 78 q0 62 -41 97q-49 43 -164 43q-127 0 -170 -43q-41 -38 -41 -99z" />
<glyph unicode="9" horiz-adv-x="1150" d="M61 807q0 186 123 309q135 135 379 135q269 0 410 -194q117 -168 117 -426q0 -305 -138 -477q-147 -177 -399 -177q-131 0 -231 29t-201 105l110 165q68 -52 142.5 -71t177.5 -19q132 0 209 80q66 66 78 166q-121 -49 -277 -49q-115 0 -218.5 35.5t-172.5 105.5 q-109 119 -109 283zM289 807q0 -103 63 -154q71 -65 209 -65q98 0 165.5 14t131.5 45v10q0 172 -72 279q-79 111 -223 111q-124 0 -196 -60q-78 -60 -78 -180z" />
<glyph unicode=":" horiz-adv-x="348" d="M72 137q0 66 41 107t110 41q71 0 112.5 -40.5t41.5 -107.5q0 -64 -41.5 -105.5t-112.5 -41.5q-68 0 -109.5 41.5t-41.5 105.5zM72 723q0 66 41 106.5t110 40.5q71 0 112.5 -40t41.5 -107q0 -65 -41.5 -106.5t-112.5 -41.5q-68 0 -109.5 42t-41.5 106z" />
<glyph unicode=";" horiz-adv-x="348" d="M72 137q0 64 41.5 106t109.5 42q71 0 112.5 -41.5t41.5 -106.5q0 -47 -12 -74l-111 -266l-137 39l35 164q-80 44 -80 137zM72 723q0 66 41 106.5t110 40.5q71 0 112.5 -40t41.5 -107q0 -65 -41.5 -106.5t-112.5 -41.5q-68 0 -109.5 42t-41.5 106z" />
<glyph unicode="&#x3c;" horiz-adv-x="616" d="M41 455v106l424 295l90 -131l-264 -215l264 -219l-90 -131z" />
<glyph unicode="=" horiz-adv-x="727" d="M68 281v186h589v-186h-589zM68 580v186h589v-186h-589z" />
<glyph unicode="&#x3e;" horiz-adv-x="616" d="M35 291l262 215l-262 219l90 131l422 -295v-106l-422 -295z" />
<glyph unicode="?" horiz-adv-x="1017" d="M20 983q46 81 101.5 135t120 82.5t129 39.5t145.5 11q220 0 356 -112q113 -93 113 -262q0 -73 -22 -138q-38 -93 -121 -137l-213 -108q-32 -18 -51 -48q-19 -36 -19 -77l2 -62h-201v101q0 90 48 157q47 63 145 111l82 37q75 30 104 82q21 35 21 77q0 78 -51 119 q-67 56 -191 56q-121 0 -190.5 -38.5t-139.5 -138.5zM317 133q0 61 41 102t103 41q63 0 103 -40.5t40 -102.5q0 -61 -40.5 -103t-102.5 -42q-61 0 -102.5 42.5t-41.5 102.5z" />
<glyph unicode="@" horiz-adv-x="1384" d="M66 514q0 251 163 414q187 190 469 190q149 0 271 -50t207 -144q144 -167 147 -410q0 -79 -25.5 -154.5t-76.5 -126.5q-59 -53 -164 -53q-88 0 -154 60q-57 -39 -103.5 -55.5t-107.5 -16.5q-69 0 -133 24.5t-108 67.5q-107 102 -107 254q0 135 96 231q103 103 250 103 q109 0 184 -51l31 45l111 -19v-411q0 -31 10 -54q16 -22 35 -22q37 0 55 18q35 35 35 160q0 185 -98 301q-58 67 -150 105t-205 38q-99 0 -186.5 -33.5t-149.5 -95.5q-120 -120 -120 -315q0 -184 110 -307q62 -65 151.5 -103t194.5 -38q189 0 349 61l53 -135 q-194 -88 -402 -88q-294 0 -469 178q-163 163 -163 432zM514 516q0 -75 47 -129q54 -57 137 -57q82 0 146 51q-2 14 -2 57v217q-65 39 -146 39q-72 0 -125 -47q-57 -50 -57 -131z" />
<glyph unicode="A" horiz-adv-x="1441" d="M51 0l545 1229h250l545 -1229h-265l-100 219h-616l-99 -219h-260zM504 442h430l-211 535h-18z" />
<glyph unicode="B" horiz-adv-x="1257" d="M102 0v1229h594q213 0 320 -96q90 -83 90 -226q0 -61 -27 -119q-25 -57 -82 -98v-12q86 -41 129 -113q50 -80 50 -182q0 -161 -115 -270q-62 -58 -141 -85.5t-209 -27.5h-609zM344 215h379q109 0 162 45q51 39 51 125q0 68 -35 109q-27 29 -60.5 43t-95.5 14h-401v-336z M344 764h389q57 0 98 35q35 30 35 90t-37 90q-35 35 -124 35h-361v-250z" />
<glyph unicode="C" horiz-adv-x="1273" d="M59 616q0 267 181 451q88 88 207.5 136t259.5 48q156 0 272 -48.5t233 -160.5l-145 -165q-87 80 -172.5 116.5t-187.5 36.5q-165 0 -283 -115q-55 -55 -88 -134t-33 -165q0 -181 111 -292q123 -123 293 -123q101 0 186.5 37.5t173.5 117.5l145 -161 q-116 -118 -231.5 -168t-273.5 -50q-283 0 -463 177q-185 182 -185 462z" />
<glyph unicode="D" horiz-adv-x="1312" d="M102 0v1229h494q299 0 481 -191q164 -167 164 -424q0 -132 -48 -247t-136 -201q-174 -166 -461 -166h-494zM342 221h246q196 0 303 107q106 106 106 286q0 179 -102 281q-111 111 -307 111h-246v-785z" />
<glyph unicode="E" horiz-adv-x="1175" d="M102 0v1229h963v-225h-715v-250h639v-224h-639v-307h744v-223h-992z" />
<glyph unicode="F" horiz-adv-x="1103" d="M100 0v1229h942v-228h-694v-272h617v-227h-617v-502h-248z" />
<glyph unicode="G" horiz-adv-x="1331" d="M63 616q0 281 189 461q180 174 469 174q305 0 498 -215l-160 -159q-79 81 -157 117t-181 36q-190 0 -301 -123q-103 -112 -103 -291q0 -191 117 -305q114 -108 283 -108q157 0 264 73v220l-309 18v209h553v-709l-166 -24l-27 69q-134 -82 -315 -82q-327 0 -502 199 q-152 168 -152 440z" />
<glyph unicode="H" horiz-adv-x="1292" d="M102 0v1229h246v-467h600v467h242v-1229h-242v543h-600v-543h-246z" />
<glyph unicode="I" horiz-adv-x="444" d="M102 0v1229h240v-1229h-240z" />
<glyph unicode="J" horiz-adv-x="1107" d="M31 168l145 168q127 -127 287 -127q151 0 227 76q41 41 60.5 91.5t19.5 133.5v719h246v-697q0 -139 -35.5 -237.5t-110.5 -171.5q-149 -146 -397 -146q-137 0 -241.5 44.5t-200.5 146.5z" />
<glyph unicode="K" horiz-adv-x="1245" d="M102 0v1229h246v-463h225l318 463h287l-394 -563l420 -666h-282l-344 547h-230v-547h-246z" />
<glyph unicode="L" horiz-adv-x="1110" d="M102 0v1229h246v-1010h711v-219h-957z" />
<glyph unicode="M" horiz-adv-x="1536" d="M102 0v1229h256l416 -584l404 584h256v-1229h-252v836h-8l-363 -523h-94l-365 525h-8v-838h-242z" />
<glyph unicode="N" horiz-adv-x="1345" d="M102 0v1229h222l682 -836v836h237v-1229h-221l-678 831v-831h-242z" />
<glyph unicode="O" horiz-adv-x="1419" d="M59 614q0 258 172 439q88 94 210.5 146t267.5 52q277 0 460 -180q189 -186 189 -457q0 -267 -176 -446q-185 -191 -473 -191q-145 0 -269.5 52.5t-210.5 146.5q-79 83 -124.5 199t-45.5 239zM303 614q0 -165 111 -286q56 -59 132.5 -93t162.5 -34q179 0 292 125 q109 119 109 288q0 184 -106 299q-114 117 -295 117t-295 -123q-111 -118 -111 -293z" />
<glyph unicode="P" horiz-adv-x="1226" d="M100 0v1229h596q109 0 203.5 -43.5t161.5 -122.5q104 -132 104 -289q0 -183 -137 -317q-137 -131 -332 -131h-346v-326h-250zM350 549h344q101 0 164 72q60 66 60 153q0 98 -54 162q-56 68 -186 68h-328v-455z" />
<glyph unicode="Q" horiz-adv-x="1421" d="M59 614q0 258 172 439q88 94 210.5 146t267.5 52q277 0 460 -180q189 -186 189 -457q0 -140 -55 -266q-56 -127 -193 -244q10 -6 40 -26.5t53 -34t48 -23.5q95 -52 246 -65l10 -182q-62 -21 -131 -21q-157 0 -323 109q-141 101 -195 133q-80 -17 -149 -17 q-145 0 -269.5 52.5t-210.5 146.5q-79 83 -124.5 199t-45.5 239zM303 614q0 -165 111 -286q56 -59 132.5 -93t162.5 -34q179 0 292 125q109 119 109 288q0 184 -106 299q-114 117 -295 117t-295 -123q-111 -118 -111 -293z" />
<glyph unicode="R" horiz-adv-x="1239" d="M100 0v1229h586q223 0 356 -133q136 -136 136 -322q0 -134 -70 -244q-66 -102 -174 -153l231 -377h-282l-195 326h-340v-326h-248zM348 549h334q129 0 186 67q62 65 62 158q0 100 -58 158q-57 72 -192 72h-332v-455z" />
<glyph unicode="S" d="M59 92l76 203q118 -49 217.5 -70.5t210.5 -21.5q113 0 180 15.5t119 51.5q41 30 41 92q0 46 -41 87q-43 32 -168 59l-264 45q-180 33 -266 119q-39 39 -62.5 97t-23.5 122q0 165 129 260q133 100 389 100q142 0 255.5 -28t250.5 -103l-98 -192q-203 102 -392 102 q-184 0 -247 -51q-39 -29 -39 -82q0 -49 36 -72q41 -27 121 -39l244 -43q236 -42 338 -147q86 -93 86 -227q0 -192 -145 -287q-80 -52 -199.5 -78.5t-239.5 -26.5q-160 0 -265.5 25t-242.5 90z" />
<glyph unicode="T" horiz-adv-x="1224" d="M49 1008v221h1125v-221h-443v-1008h-239v1008h-443z" />
<glyph unicode="U" horiz-adv-x="1286" d="M100 539v690h248v-703q0 -150 86 -233q82 -88 209 -88q121 0 211 90q82 79 82 231v703h248v-690q0 -254 -166 -414q-151 -145 -375 -145q-236 0 -387 151q-156 159 -156 408z" />
<glyph unicode="V" horiz-adv-x="1396" d="M49 1229h264l383 -985h11l378 985h256l-487 -1229h-317z" />
<glyph unicode="W" horiz-adv-x="1949" d="M51 1229h264l260 -983h9l221 983h332l237 -983h8l252 983h262l-362 -1229h-334l-233 930h-9l-215 -930h-331z" />
<glyph unicode="X" horiz-adv-x="1366" d="M55 0l453 635l-438 594h309l301 -432l285 432h288l-413 -592l465 -637h-310l-327 473l-326 -473h-287z" />
<glyph unicode="Y" horiz-adv-x="1390" d="M45 1229h283l358 -674h21l364 674h268l-522 -934v-295h-242v297z" />
<glyph unicode="Z" horiz-adv-x="1214" d="M80 0v193l698 819l-221 -4h-457v221h1024v-172l-708 -836l205 6h512v-227h-1053z" />
<glyph unicode="[" horiz-adv-x="489" d="M102 -158v1448h363v-205h-141v-1036h141v-207h-363z" />
<glyph unicode="\" horiz-adv-x="647" d="M-27 1278l189 70l512 -1366l-189 -68z" />
<glyph unicode="]" horiz-adv-x="489" d="M25 49h141v1036h-141v205h362v-1448h-362v207z" />
<glyph unicode="^" horiz-adv-x="806" d="M41 870l321 355h91l313 -361l-135 -116l-230 219l-217 -219z" />
<glyph unicode="_" horiz-adv-x="669" d="M0 -53h670v-185h-670v185z" />
<glyph unicode="`" horiz-adv-x="557" d="M102 1456l207 105l146 -363l-166 -78z" />
<glyph unicode="a" horiz-adv-x="1251" d="M51 0l455 1024h239l455 -1024h-268l-76 176h-467l-76 -176h-262zM483 397h275l-129 344h-15z" />
<glyph unicode="b" horiz-adv-x="1091" d="M102 0v1024h510q180 0 273 -96q73 -73 73 -178q0 -58 -24 -105q-21 -46 -72 -74v-8q68 -29 109 -94q39 -62 39 -141q0 -140 -88 -228q-100 -100 -291 -100h-529zM348 215h295q61 0 94 33q29 29 29 74q0 42 -25 67q-26 33 -92 33h-301v-207zM348 639h262q52 0 78 23 q25 22 25 61q0 34 -25 59t-78 25h-262v-168z" />
<glyph unicode="c" horiz-adv-x="1130" d="M70 514q0 238 176 393q158 135 379 135q131 0 234 -43.5t204 -144.5l-156 -158q-69 71 -134 98t-148 27q-67 0 -126.5 -22t-97.5 -62q-82 -88 -82 -223t84 -219q41 -44 99.5 -68t122.5 -24q80 0 145.5 29t140.5 98l152 -160q-105 -100 -205 -144t-233 -44 q-139 0 -250.5 48.5t-186.5 137.5q-118 144 -118 346z" />
<glyph unicode="d" horiz-adv-x="1134" d="M102 0v1024h418q251 0 398 -147q145 -145 145 -365q0 -109 -38 -203.5t-107 -163.5q-148 -145 -398 -145h-418zM348 219h164q153 0 231 88q74 74 74 205q0 130 -76 209q-79 82 -229 82h-164v-584z" />
<glyph unicode="e" horiz-adv-x="1028" d="M102 0v1024h826v-221h-580v-176h518v-219h-518v-189h598v-219h-844z" />
<glyph unicode="f" horiz-adv-x="966" d="M102 0v1024h803v-221h-557v-201h496v-221h-496v-381h-246z" />
<glyph unicode="g" horiz-adv-x="1161" d="M72 514q0 110 40 208t117 171q73 70 174.5 109.5t217.5 39.5q132 0 236.5 -44.5t199.5 -145.5l-160 -158q-71 73 -132.5 100t-143.5 27q-133 0 -213 -86q-89 -83 -89 -221t87 -225q83 -86 210 -86q101 0 185 51v145l-244 11v204h490v-594l-144 -32l-47 61 q-94 -67 -250 -67q-230 0 -379 143q-75 72 -115 172.5t-40 216.5z" />
<glyph unicode="h" horiz-adv-x="1130" d="M102 0v1024h246v-371h434v371h246v-1024h-246v432h-434v-432h-246z" />
<glyph unicode="i" horiz-adv-x="454" d="M102 0v1024h250v-1024h-250z" />
<glyph unicode="j" horiz-adv-x="968" d="M31 160l151 153q100 -106 236 -106q99 0 157 67q54 64 54 162v588h248v-575q0 -230 -129 -353q-123 -114 -332 -114q-243 0 -385 178z" />
<glyph unicode="k" horiz-adv-x="1120" d="M102 0v1024h246v-379h150l266 379h293l-348 -481l366 -543h-299l-270 422h-158v-422h-246z" />
<glyph unicode="l" horiz-adv-x="960" d="M102 0v1024h250v-805h557v-219h-807z" />
<glyph unicode="m" horiz-adv-x="1320" d="M102 0v1024h242l318 -471l315 471h242v-1024h-246v616h-8l-254 -387h-103l-258 387h-8v-616h-240z" />
<glyph unicode="n" horiz-adv-x="1177" d="M102 0v1024h220l514 -616v616h239v-1024h-219l-512 618v-618h-242z" />
<glyph unicode="o" d="M59 512q0 111 44.5 210.5t123.5 174.5q155 145 379 145q116 0 218 -42t175 -117q150 -150 150 -371q0 -111 -41 -210.5t-119 -172.5q-153 -147 -383 -147q-240 0 -391 151q-73 73 -114.5 172t-41.5 207zM307 512q0 -141 86 -221q84 -90 213 -90q123 0 207 84 q88 79 88 227q0 144 -88 229q-88 82 -207 82q-131 0 -215 -90q-84 -81 -84 -221z" />
<glyph unicode="p" horiz-adv-x="1062" d="M102 0v1024h492q188 0 309 -127q98 -110 98 -256q0 -169 -114 -274q-113 -107 -293 -107h-246v-260h-246zM348 479h246q79 0 123 51q39 45 39 111q0 60 -31 102q-43 62 -141 62h-236v-326z" />
<glyph unicode="q" horiz-adv-x="1212" d="M59 512q0 111 44.5 210.5t123.5 174.5q155 145 379 145q116 0 218 -42t175 -117q150 -150 150 -371q0 -124 -53 -236q-55 -110 -138 -176q14 -12 40 -35.5t43.5 -37t35.5 -21.5q63 -23 180 -31l15 -180q-64 -24 -133 -24q-141 0 -260 88q-24 17 -70.5 63t-85.5 72 q-55 -12 -117 -12q-240 0 -391 151q-73 73 -114.5 172t-41.5 207zM307 512q0 -141 86 -221q84 -90 213 -90q123 0 207 84q88 79 88 227q0 144 -88 229q-88 82 -207 82q-131 0 -215 -90q-84 -81 -84 -221z" />
<glyph unicode="r" horiz-adv-x="1073" d="M102 0v1024h502q215 0 330 -147q78 -100 78 -234q0 -108 -49 -190q-47 -81 -140 -134l178 -319h-282l-133 260h-238v-260h-246zM348 479h236q97 0 143 58q37 46 37 106q0 66 -39 111q-51 51 -139 51h-238v-326z" />
<glyph unicode="s" horiz-adv-x="1064" d="M70 90l94 199q100 -48 175 -66t165 -18q128 0 205 35q51 29 51 77q0 32 -35 50q-39 23 -119 36l-221 39q-151 25 -223 103q-74 77 -74 198q0 141 115 220q121 79 329 79q224 0 433 -102l-88 -197q-97 44 -174.5 62t-163.5 18q-116 0 -164 -22q-37 -21 -37 -56 q0 -29 20 -43q26 -23 91 -32l194 -33q207 -41 287 -119q74 -85 74 -196q0 -134 -91 -222q-127 -118 -407 -118q-132 0 -227.5 23.5t-208.5 84.5z" />
<glyph unicode="t" horiz-adv-x="1050" d="M51 805v219h948v-219h-352v-805h-246v805h-350z" />
<glyph unicode="u" horiz-adv-x="1120" d="M102 442v582h246v-592q0 -104 60 -164q57 -63 155 -63q94 0 152 61q57 64 57 166v592h246v-582q0 -208 -139 -338q-126 -120 -316 -120q-202 0 -330 131q-131 134 -131 327z" />
<glyph unicode="v" horiz-adv-x="1212" d="M51 1024h271l276 -772h20l275 772h268l-422 -1024h-270z" />
<glyph unicode="w" horiz-adv-x="1740" d="M61 1024h265l200 -739h9l202 739h267l206 -741h11l196 741h262l-317 -1024h-291l-201 668h-8l-194 -668h-287z" />
<glyph unicode="x" horiz-adv-x="1177" d="M51 0l363 524l-344 500h295l223 -346l217 346h289l-338 -492l370 -532h-301l-241 375l-250 -375h-283z" />
<glyph unicode="y" horiz-adv-x="1212" d="M51 1024h279l276 -532h12l269 532h274l-432 -778v-246h-246v248z" />
<glyph unicode="z" horiz-adv-x="1052" d="M82 0v182l526 635l-131 -8h-387v215h858v-172l-532 -639l114 6h441v-219h-889z" />
<glyph unicode="{" horiz-adv-x="497" d="M33 461v213h45q25 0 40 18.5t15 44.5v301q0 133 71.5 192.5t190.5 59.5h94v-203h-92q-35 0 -35 -34v-342q0 -54 -14 -87t-53 -55v-10q67 -35 67 -139v-342q0 -35 35 -35h92v-201h-94q-119 0 -190.5 59.5t-71.5 192.5v301q0 66 -55 66h-45z" />
<glyph unicode="|" horiz-adv-x="391" d="M102 -307v1638h187v-1638h-187z" />
<glyph unicode="}" horiz-adv-x="497" d="M8 45h92q33 0 33 37v348q0 53 15 86t55 55v13q-70 37 -70 137v334q0 35 -33 35h-92v200h92q120 0 192.5 -59.5t72.5 -192.5v-293q0 -65 53 -65h47v-213h-47q-24 0 -38.5 -19t-14.5 -45v-309q0 -132 -72.5 -192t-192.5 -60h-92v203z" />
<glyph unicode="~" horiz-adv-x="872" d="M66 532q99 113 229 113q79 0 143 -29q62 -28 142 -28q74 0 135 49l92 -121q-95 -108 -227 -108q-71 0 -142 26q-82 29 -143 29q-78 0 -133 -47z" />
<glyph unicode="&#xa2;" horiz-adv-x="1130" d="M72 514q0 108 41 205t114 170q99 105 277 141v129h237v-127q172 -27 318 -178l-154 -160q-68 68 -135.5 97.5t-148.5 29.5q-125 0 -213 -82q-89 -89 -89 -225q0 -137 84 -221q84 -90 218 -90q79 0 147 30.5t137 96.5l154 -160q-75 -78 -147 -117.5t-171 -58.5v-129h-237 v129q-176 38 -273 135q-75 75 -117 175.5t-42 209.5z" />
<glyph unicode="&#xa5;" d="M47 1024h279l274 -516h8l285 516h270l-315 -541h110v-153h-702v153h104zM256 139v152h702v-152h-229v-139h-248v139h-225z" />
<glyph unicode="&#xa8;" horiz-adv-x="880" d="M102 1251q0 57 40.5 97.5t97.5 40.5t97 -40.5t40 -97.5t-40 -97t-97 -40t-97.5 40t-40.5 97zM504 1251q0 58 39 98t98 40q57 0 97 -40.5t40 -97.5t-40 -97t-97 -40q-59 0 -98 39.5t-39 97.5z" />
<glyph unicode="&#xa9;" horiz-adv-x="1206" d="M74 512q0 226 147 373q74 74 173 115.5t208 41.5q113 0 213.5 -41.5t175.5 -119.5q142 -148 142 -369q0 -104 -35 -200t-97 -162q-71 -78 -175 -125.5t-224 -47.5q-115 0 -218.5 45.5t-176.5 124.5q-63 69 -98 165t-35 200zM250 512q0 -147 86 -246q90 -114 266 -114 q86 0 157.5 31.5t119.5 88.5q82 105 82 240q0 142 -91 246q-90 110 -268 110q-150 0 -248 -98q-104 -104 -104 -258zM313 512q0 123 93 209q91 82 204 82q112 0 221 -90l-86 -121q-40 30 -69 40.5t-66 10.5q-47 0 -94 -35q-35 -30 -35 -96q0 -46 25 -84q40 -49 104 -49 q40 0 71.5 10.5t70.5 44.5l77 -123q-54 -48 -105.5 -69t-113.5 -21q-127 0 -211 84q-86 80 -86 207z" />
<glyph unicode="&#xab;" horiz-adv-x="843" d="M41 492v83l295 302l117 -95l-201 -245l201 -252l-117 -95zM369 489v91l293 297l120 -95l-202 -245l202 -252l-120 -95z" />
<glyph unicode="&#xad;" horiz-adv-x="768" d="M68 438v197h632v-197h-632z" />
<glyph unicode="&#xae;" horiz-adv-x="819" d="M41 901q0 163 111 268q106 99 256 99q176 0 284 -127q86 -99 86 -240q0 -154 -98 -252q-108 -114 -272 -114q-78 0 -147 26.5t-116 73.5q-104 107 -104 266zM170 901q0 -113 63 -176t175 -63q120 0 174 65q30 30 47.5 76.5t17.5 97.5q0 99 -63 168q-62 74 -176 74 q-98 0 -164 -60q-74 -65 -74 -182zM258 725v360h166q78 0 121 -49q26 -33 26 -84q0 -37 -18 -67q-13 -23 -45 -37l63 -123h-122l-39 104h-37v-104h-115zM373 928h57q11 0 19 8q6 6 6 16q0 11 -6 17q-8 8 -19 8h-57v-49z" />
<glyph unicode="&#xb4;" horiz-adv-x="567" d="M102 1198l146 363l207 -105l-187 -336z" />
<glyph unicode="&#xb8;" horiz-adv-x="516" d="M102 -367q76 32 101 64q20 33 20 61q0 21 -18 33q-15 12 -39 12h-49v220h166l-4 -99q70 0 106 -45q29 -37 29 -82q0 -90 -62 -155q-81 -81 -207 -117z" />
<glyph unicode="&#xbb;" horiz-adv-x="843" d="M61 285l201 245l-201 252l121 95l293 -297v-91l-293 -299zM391 285l201 245l-201 252l117 95l295 -302v-83l-295 -302z" />
<glyph unicode="&#x2c6;" horiz-adv-x="829" d="M102 1223l267 264h94l264 -264l-113 -125l-198 166l-197 -166z" />
<glyph unicode="&#x2da;" horiz-adv-x="626" d="M102 1300q0 86 64 150q63 63 149 63q90 0 154 -71q55 -58 55 -142q0 -94 -65 -153q-57 -57 -144 -57q-90 0 -149 59q-64 58 -64 151zM248 1300q0 -25 22 -47q20 -20 45 -20q24 0 47 20q21 21 21 47q0 29 -21 50q-19 16 -47 16q-29 0 -47 -18q-20 -17 -20 -48z" />
<glyph unicode="&#x2dc;" horiz-adv-x="950" d="M102 1272q96 110 230 110q72 0 139 -28q69 -31 145 -31q80 0 138 47l94 -123q-93 -106 -227 -106q-67 0 -140 24q-74 31 -145 31q-82 0 -135 -43z" />
<glyph unicode="&#x401;" horiz-adv-x="1144" d="M102 0v1229h963v-225h-715v-250h639v-224h-639v-307h744v-223h-992zM213 1462q0 60 42.5 102t102.5 42t103 -42t43 -102t-43 -102.5t-103 -42.5t-102.5 42.5t-42.5 102.5zM637 1462q0 61 40 102.5t101 41.5q62 0 105 -42t43 -102t-43.5 -102.5t-104.5 -42.5t-101 42 t-40 103z" />
<glyph unicode="&#x402;" horiz-adv-x="1529" d="M41 1010v219h1034v-219h-405v-207q132 69 282 69q238 0 361 -147q110 -128 110 -342v-209q0 -146 -50 -256t-175 -223l-147 133q76 84 106.5 163.5t30.5 180.5v211q0 132 -62 209q-62 65 -174 65q-160 0 -282 -79v-578h-246v1010h-383z" />
<glyph unicode="&#x403;" horiz-adv-x="1087" d="M100 0v1229h936v-221h-690v-1008h-246zM481 1386l178 406l193 -96l-209 -387z" />
<glyph unicode="&#x404;" horiz-adv-x="1275" d="M61 618q3 277 181 455t469 178q154 0 275.5 -55t230.5 -164l-158 -158q-87 86 -163.5 120t-184.5 34q-164 0 -267 -86q-86 -74 -116 -190h628v-226h-634q17 -109 90 -194q118 -131 301 -131q104 0 185.5 35.5t168.5 117.5l152 -157q-208 -220 -506 -220q-309 0 -492 199 q-160 177 -160 442z" />
<glyph unicode="&#x405;" d="M59 92l76 203q118 -49 217.5 -70.5t210.5 -21.5q113 0 180 15.5t119 51.5q41 30 41 92q0 46 -41 87q-43 32 -168 59l-264 45q-180 33 -266 119q-39 39 -62.5 97t-23.5 122q0 165 129 260q133 100 389 100q142 0 255.5 -28t250.5 -103l-98 -192q-203 102 -392 102 q-184 0 -247 -51q-39 -29 -39 -82q0 -49 36 -72q41 -27 121 -39l244 -43q236 -42 338 -147q86 -93 86 -227q0 -192 -145 -287q-80 -52 -199.5 -78.5t-239.5 -26.5q-160 0 -265.5 25t-242.5 90z" />
<glyph unicode="&#x406;" horiz-adv-x="444" d="M102 0v1229h240v-1229h-240z" />
<glyph unicode="&#x407;" horiz-adv-x="444" d="M-133 1462q0 60 42.5 102t102.5 42t103 -42t43 -102t-43 -102.5t-103 -42.5t-102.5 42.5t-42.5 102.5zM102 0v1229h240v-1229h-240zM291 1462q0 61 40 102.5t101 41.5q62 0 105 -42t43 -102t-43.5 -102.5t-104.5 -42.5t-101 42t-40 103z" />
<glyph unicode="&#x408;" horiz-adv-x="1107" d="M31 168l145 168q127 -127 287 -127q151 0 227 76q41 41 60.5 91.5t19.5 133.5v719h246v-697q0 -139 -35.5 -237.5t-110.5 -171.5q-149 -146 -397 -146q-137 0 -241.5 44.5t-200.5 146.5z" />
<glyph unicode="&#x409;" horiz-adv-x="2115" d="M31 29l47 204q63 -16 123 -16q48 0 75 27q32 35 43 92l119 893h842v-322h285q222 0 364 -145q119 -125 119 -305q0 -195 -127 -322q-135 -135 -356 -135h-531v1008h-375l-100 -732q-23 -142 -100 -213t-226 -71q-104 0 -202 37zM1280 221h287q107 0 174 64q63 57 63 172 q0 93 -61 151q-65 78 -189 78h-274v-465z" />
<glyph unicode="&#x40a;" horiz-adv-x="1988" d="M102 0v1229h240v-467h565v467h246v-322h285q222 0 364 -145q121 -127 121 -305q0 -193 -131 -324q-133 -133 -354 -133h-531v541h-565v-541h-240zM1153 221h287q107 0 174 64q63 57 63 172q0 76 -51 147q-68 82 -199 82h-274v-465z" />
<glyph unicode="&#x40b;" horiz-adv-x="1529" d="M41 1010v219h1034v-219h-405v-207q132 69 282 69q238 0 361 -147q110 -128 110 -342v-383h-235v383q0 132 -62 209q-62 65 -174 65q-160 0 -282 -79v-578h-246v1010h-383z" />
<glyph unicode="&#x40c;" horiz-adv-x="1259" d="M100 0v1229h242v-465h158q48 0 78 18q25 18 38 41l140 244q52 91 129 135q75 43 172 43q66 0 137 -18l-25 -207h-65q-53 0 -90 -19q-28 -16 -51 -51l-136 -227q-19 -34 -53 -68l428 -655h-291l-336 549q-31 -8 -69 -8h-164v-541h-242zM496 1386l178 406l192 -96 l-209 -387z" />
<glyph unicode="&#x40e;" horiz-adv-x="1394" d="M45 1229h287l377 -697h12l348 697h277l-537 -1008q-56 -109 -129 -170q-69 -63 -186 -63q-80 0 -152 16l18 203h91q54 0 84 18q30 17 43 47l10 23q-106 178 -184 312.5t-176.5 305.5t-182.5 316zM406 1522l165 86q22 -39 52 -66q39 -39 98 -39q54 0 96 33q33 23 55 72 l166 -86q-32 -80 -118 -144q-85 -63 -201 -63q-112 0 -193 63q-87 61 -120 144z" />
<glyph unicode="&#x40f;" horiz-adv-x="1286" d="M100 0v1229h246v-1008h592v1008h246v-1229h-424l-10 -236h-218l-10 236h-422z" />
<glyph unicode="&#x410;" horiz-adv-x="1441" d="M51 0l545 1229h250l545 -1229h-265l-100 219h-616l-99 -219h-260zM504 442h430l-211 535h-18z" />
<glyph unicode="&#x411;" horiz-adv-x="1236" d="M100 0v1229h947v-221h-701v-177h381q203 0 322 -116q116 -113 116 -299q0 -175 -114 -289q-121 -127 -324 -127h-627zM346 221h381q90 0 147 64q48 51 48 131q0 91 -58 143q-51 51 -147 51h-371v-389z" />
<glyph unicode="&#x412;" horiz-adv-x="1257" d="M102 0v1229h594q213 0 320 -96q90 -83 90 -226q0 -61 -27 -119q-25 -57 -82 -98v-12q86 -41 129 -113q50 -80 50 -182q0 -161 -115 -270q-62 -58 -141 -85.5t-209 -27.5h-609zM344 215h379q109 0 162 45q51 39 51 125q0 68 -35 109q-27 29 -60.5 43t-95.5 14h-401v-336z M344 764h389q57 0 98 35q35 30 35 90t-37 90q-35 35 -124 35h-361v-250z" />
<glyph unicode="&#x413;" horiz-adv-x="1087" d="M100 0v1229h936v-221h-690v-1008h-246z" />
<glyph unicode="&#x414;" horiz-adv-x="1445" d="M51 221q116 0 172 64q46 58 62 168l108 776h881v-1008h119v-454h-211l-25 233h-876l-23 -233h-207v454zM461 221h571v787h-426l-88 -605q-9 -63 -19.5 -101t-37.5 -81z" />
<glyph unicode="&#x415;" horiz-adv-x="1175" d="M102 0v1229h963v-225h-715v-250h639v-224h-639v-307h744v-223h-992z" />
<glyph unicode="&#x416;" horiz-adv-x="1947" d="M51 0l412 657q-19 22 -45 68l-117 233q-18 33 -45 46q-29 16 -86 16h-76l-22 207q77 14 149 14q103 0 174 -41q75 -41 121 -135l119 -246q12 -26 31 -39q29 -16 82 -16h104v465h242v-465h104q53 0 82 16q19 13 31 39l119 246q46 94 120 135q71 41 174 41q73 0 150 -14 l-23 -207h-75q-57 0 -86 -16q-27 -13 -45 -46l-117 -233q-26 -46 -45 -68l411 -657h-290l-326 549q-27 -8 -68 -8h-116v-541h-242v541h-117q-40 0 -67 8l-326 -549h-291z" />
<glyph unicode="&#x417;" horiz-adv-x="1247" d="M72 133l116 197q119 -72 205.5 -98.5t208.5 -26.5q177 0 260 65q66 49 66 140q0 65 -47 106q-46 37 -131 37h-445v219h410q72 0 106 37q31 31 31 88q0 52 -45 90q-36 27 -88.5 37t-134.5 10q-183 0 -355 -104l-106 180q112 74 222 107.5t251 33.5q213 0 332 -63 q82 -45 126 -112t44 -171q0 -61 -25 -119q-28 -54 -74 -88v-8q85 -39 131 -117q46 -76 46 -163q0 -196 -150 -314q-149 -119 -424 -119q-160 0 -286 35.5t-244 120.5z" />
<glyph unicode="&#x418;" horiz-adv-x="1323" d="M100 0v1229h238v-846l661 846h222v-1229h-236v848l-666 -848h-219z" />
<glyph unicode="&#x419;" horiz-adv-x="1308" d="M100 0v1229h238v-846l661 846h222v-1229h-236v848l-666 -848h-219zM369 1522l166 86q23 -41 51 -66q39 -39 98 -39q54 0 96 33q34 24 56 72l165 -86q-32 -80 -118 -144q-85 -63 -201 -63q-112 0 -193 63q-87 61 -120 144z" />
<glyph unicode="&#x41a;" horiz-adv-x="1259" d="M100 0v1229h242v-465h158q48 0 78 18q25 18 38 41l140 244q52 91 129 135q75 43 172 43q66 0 137 -18l-25 -207h-65q-53 0 -90 -19q-28 -16 -51 -51l-136 -227q-19 -34 -53 -68l428 -655h-291l-336 549q-31 -8 -69 -8h-164v-541h-242z" />
<glyph unicode="&#x41b;" horiz-adv-x="1431" d="M31 29l53 207q69 -19 117 -19q59 0 88 29q26 26 35 90l122 893h879v-1229h-240v1008h-430l-100 -732q-18 -138 -96 -210q-83 -74 -221 -74q-112 0 -207 37z" />
<glyph unicode="&#x41c;" horiz-adv-x="1536" d="M102 0v1229h256l416 -584l404 584h256v-1229h-252v836h-8l-363 -523h-94l-365 525h-8v-838h-242z" />
<glyph unicode="&#x41d;" horiz-adv-x="1292" d="M102 0v1229h246v-467h600v467h242v-1229h-242v543h-600v-543h-246z" />
<glyph unicode="&#x41e;" horiz-adv-x="1419" d="M59 614q0 258 172 439q88 94 210.5 146t267.5 52q277 0 460 -180q189 -186 189 -457q0 -267 -176 -446q-185 -191 -473 -191q-145 0 -269.5 52.5t-210.5 146.5q-79 83 -124.5 199t-45.5 239zM303 614q0 -165 111 -286q56 -59 132.5 -93t162.5 -34q179 0 292 125 q109 119 109 288q0 184 -106 299q-114 117 -295 117t-295 -123q-111 -118 -111 -293z" />
<glyph unicode="&#x41f;" horiz-adv-x="1273" d="M100 0v1229h1071v-1229h-245v1008h-580v-1008h-246z" />
<glyph unicode="&#x420;" horiz-adv-x="1226" d="M100 0v1229h596q109 0 203.5 -43.5t161.5 -122.5q104 -132 104 -289q0 -183 -137 -317q-137 -131 -332 -131h-346v-326h-250zM350 549h344q101 0 164 72q60 66 60 153q0 98 -54 162q-56 68 -186 68h-328v-455z" />
<glyph unicode="&#x421;" horiz-adv-x="1273" d="M59 616q0 267 181 451q88 88 207.5 136t259.5 48q156 0 272 -48.5t233 -160.5l-145 -165q-87 80 -172.5 116.5t-187.5 36.5q-165 0 -283 -115q-55 -55 -88 -134t-33 -165q0 -181 111 -292q123 -123 293 -123q101 0 186.5 37.5t173.5 117.5l145 -161 q-116 -118 -231.5 -168t-273.5 -50q-283 0 -463 177q-185 182 -185 462z" />
<glyph unicode="&#x422;" horiz-adv-x="1224" d="M49 1008v221h1125v-221h-443v-1008h-239v1008h-443z" />
<glyph unicode="&#x423;" horiz-adv-x="1396" d="M45 1229h287l377 -697h12l348 697h277l-537 -1008q-56 -109 -129 -170q-69 -63 -186 -63q-80 0 -152 16l18 203h91q54 0 84 18q30 17 43 47l10 23q-106 178 -184 312.5t-176.5 305.5t-182.5 316z" />
<glyph unicode="&#x424;" horiz-adv-x="1656" d="M61 635q0 200 134 340q142 155 378 155h134v121h239v-121h133q237 0 379 -155q133 -139 133 -340q0 -212 -151 -356q-144 -138 -361 -138h-133v-141h-239v141h-134q-216 0 -360 138q-152 145 -152 356zM301 635q0 -123 76 -199q69 -69 211 -69h119v536h-119 q-143 0 -211 -74q-76 -76 -76 -194zM946 367h119q142 0 211 69q76 76 76 199q0 118 -76 194q-68 74 -211 74h-119v-536z" />
<glyph unicode="&#x425;" horiz-adv-x="1366" d="M55 0l453 635l-438 594h309l301 -432l285 432h288l-413 -592l465 -637h-310l-327 473l-326 -473h-287z" />
<glyph unicode="&#x426;" horiz-adv-x="1345" d="M100 0v1229h246v-1008h592v1008h246v-1008h108v-457h-209l-22 236h-961z" />
<glyph unicode="&#x427;" horiz-adv-x="1302" d="M90 834v395h242v-385q0 -166 82 -254q88 -88 239 -88q173 0 301 67v660h246v-1229h-246v344q-152 -65 -315 -65q-281 0 -420 151q-129 141 -129 404z" />
<glyph unicode="&#x428;" horiz-adv-x="1806" d="M102 0v1229h244v-1008h432v1008h246v-1008h432v1008h246v-1229h-1600z" />
<glyph unicode="&#x429;" horiz-adv-x="1867" d="M102 0v1229h244v-1008h432v1008h246v-1008h432v1008h246v-1008h110v-457h-210l-23 236h-1477z" />
<glyph unicode="&#x42a;" horiz-adv-x="1413" d="M41 1022v207h504v-322h319q225 0 367 -145q117 -130 117 -305q0 -194 -127 -324q-130 -133 -357 -133h-565v1008zM545 221h321q112 0 174 62q66 66 66 174q0 94 -59 159q-63 70 -193 70h-309v-465z" />
<glyph unicode="&#x42b;" horiz-adv-x="1619" d="M100 0v1229h246v-322h324q220 0 362 -145q121 -127 121 -305q0 -192 -131 -326q-131 -131 -352 -131h-570zM346 221h326q113 0 178 68q57 63 57 168q0 98 -55 159q-63 70 -193 70h-313v-465zM1272 0v1229h244v-1229h-244z" />
<glyph unicode="&#x42c;" horiz-adv-x="1214" d="M100 0v1229h246v-322h320q241 0 372 -141q115 -128 115 -309q0 -192 -131 -326q-131 -131 -356 -131h-566zM346 221h322q108 0 174 66q65 59 65 170q0 103 -51 157q-69 72 -201 72h-309v-465z" />
<glyph unicode="&#x42d;" horiz-adv-x="1275" d="M55 190l154 164q85 -84 166.5 -118.5t187.5 -34.5q174 0 283 106q94 90 108 219h-635v226h629q-24 111 -117 190q-103 86 -266 86q-112 0 -195 -32.5t-167 -114.5l-148 166q113 113 231 158.5t279 45.5q291 0 469 -178q177 -177 180 -455q0 -266 -159 -442 q-183 -199 -492 -199q-162 0 -281.5 48t-226.5 165z" />
<glyph unicode="&#x42e;" horiz-adv-x="1804" d="M102 0v1229h240v-488h158q38 181 166 322q81 89 197 138.5t253 49.5q271 0 453 -188q83 -88 129.5 -204t46.5 -245q0 -138 -52.5 -260t-146.5 -211q-174 -166 -430 -166q-268 0 -452 191q-127 130 -166 352h-156v-520h-240zM737 614q0 -158 101 -280q111 -135 278 -135 q152 0 266 114q53 53 85 132.5t32 168.5q0 174 -108 297q-106 119 -275 119q-175 0 -282 -129q-97 -118 -97 -287z" />
<glyph unicode="&#x42f;" horiz-adv-x="1241" d="M45 0l258 379q-93 55 -156 139q-79 110 -79 256q0 187 122 309q143 146 355 146h594v-1229h-242v324h-352l-215 -324h-285zM315 774q0 -77 43 -137q28 -41 76 -66.5t111 -25.5h352v463h-352q-54 0 -103 -26t-80 -67q-47 -59 -47 -141z" />
<glyph unicode="&#x430;" horiz-adv-x="1251" d="M51 0l455 1024h239l455 -1024h-268l-76 176h-467l-76 -176h-262zM483 397h275l-129 344h-15z" />
<glyph unicode="&#x431;" horiz-adv-x="1073" d="M102 0v1024h801v-215h-553v-117h271q170 0 282 -106q98 -92 98 -236q0 -148 -98 -246q-104 -104 -282 -104h-519zM350 219h262q89 0 127 55q21 34 21 76q0 46 -33 82q-40 37 -111 37h-266v-250z" />
<glyph unicode="&#x432;" horiz-adv-x="1091" d="M102 0v1024h510q180 0 273 -96q73 -73 73 -178q0 -58 -24 -105q-21 -46 -72 -74v-8q68 -29 109 -94q39 -62 39 -141q0 -140 -88 -228q-100 -100 -291 -100h-529zM348 215h295q61 0 94 33q29 29 29 74q0 42 -25 67q-26 33 -92 33h-301v-207zM348 639h262q52 0 78 23 q25 22 25 61q0 34 -25 59t-78 25h-262v-168z" />
<glyph unicode="&#x433;" horiz-adv-x="966" d="M102 0v1024h793v-219h-547v-805h-246z" />
<glyph unicode="&#x434;" horiz-adv-x="1259" d="M51 -186v405h39q61 0 98 37q41 41 54 131l102 637h752v-805h102v-405h-219l-18 186h-674l-19 -186h-217zM430 219h420v588h-299l-72 -465q-8 -50 -17 -73.5t-32 -49.5z" />
<glyph unicode="&#x435;" horiz-adv-x="1028" d="M102 0v1024h826v-221h-580v-176h518v-219h-518v-189h598v-219h-844z" />
<glyph unicode="&#x436;" horiz-adv-x="1679" d="M57 0l330 543q-26 26 -35 47l-92 184q-9 20 -27 31q-20 10 -59 10h-80l-20 205q55 14 139 14q92 0 154 -35q65 -38 104 -112l98 -203q10 -17 21 -25q8 -8 31 -8h98v373h242v-373h98q23 0 31 8q9 7 20 25l98 203q39 74 105 112q62 35 153 35q85 0 140 -14l-21 -205h-80 q-39 0 -59 -10q-18 -11 -27 -31l-92 -184q-9 -21 -35 -47l330 -543h-291l-244 436q-28 -4 -49 -4h-77v-432h-242v432h-78q-21 0 -49 4l-244 -436h-291z" />
<glyph unicode="&#x437;" horiz-adv-x="1073" d="M61 98l86 191q122 -54 187.5 -71t177.5 -17q138 0 197 45q43 34 43 92q0 52 -27 70q-39 24 -86 24h-381v213h346q38 0 60 19q28 22 28 63q0 53 -41 74q-43 28 -155 28q-82 0 -149.5 -15.5t-166.5 -57.5l-82 176q184 110 408 110q230 0 344 -108q88 -85 88 -203 q0 -40 -23 -94q-23 -41 -55 -66v-8q77 -41 111 -104q30 -73 30 -123q0 -140 -94 -234q-125 -120 -395 -120q-230 0 -451 116z" />
<glyph unicode="&#x438;" horiz-adv-x="1148" d="M102 0v1024h240v-627l487 627h218v-1024h-238v629l-490 -629h-217z" />
<glyph unicode="&#x439;" horiz-adv-x="1130" d="M102 0v1024h240v-627l487 627h218v-1024h-238v629l-490 -629h-217zM248 1313l174 86q18 -32 41 -58q38 -38 102 -38q63 0 101 38q24 24 43 58l172 -86q-34 -85 -115 -142q-86 -61 -205 -61q-113 0 -192 57q-84 59 -121 146z" />
<glyph unicode="&#x43a;" horiz-adv-x="1110" d="M102 0v1024h244v-373h113q32 0 53 15q20 13 31 36l92 185q34 69 94 106q67 43 166 43q91 0 145 -16l-32 -207h-78q-38 0 -58 -14q-16 -10 -32 -41l-86 -168q-11 -24 -35 -45l330 -545h-285l-246 438q-21 -6 -47 -6h-125v-432h-244z" />
<glyph unicode="&#x43b;" horiz-adv-x="1259" d="M31 31l67 200q53 -18 103 -18q39 0 59 20q22 22 25 58l104 733h768v-1024h-246v803h-309l-82 -565q-15 -109 -92 -177q-79 -69 -197 -69q-109 0 -200 39z" />
<glyph unicode="&#x43c;" horiz-adv-x="1320" d="M102 0v1024h242l318 -471l315 471h242v-1024h-246v616h-8l-254 -387h-103l-258 387h-8v-616h-240z" />
<glyph unicode="&#x43d;" horiz-adv-x="1134" d="M102 0v1024h246v-371h434v371h246v-1024h-246v432h-434v-432h-246z" />
<glyph unicode="&#x43e;" d="M59 512q0 111 44.5 210.5t123.5 174.5q155 145 379 145q116 0 218 -42t175 -117q150 -150 150 -371q0 -111 -41 -210.5t-119 -172.5q-153 -147 -383 -147q-240 0 -391 151q-73 73 -114.5 172t-41.5 207zM307 512q0 -141 86 -221q84 -90 213 -90q123 0 207 84 q88 79 88 227q0 144 -88 229q-88 82 -207 82q-131 0 -215 -90q-84 -81 -84 -221z" />
<glyph unicode="&#x43f;" horiz-adv-x="1142" d="M102 0v1024h938v-1024h-249v803h-443v-803h-246z" />
<glyph unicode="&#x440;" horiz-adv-x="1062" d="M102 0v1024h492q188 0 309 -127q98 -110 98 -256q0 -169 -114 -274q-113 -107 -293 -107h-246v-260h-246zM348 479h246q79 0 123 51q39 45 39 111q0 60 -31 102q-43 62 -141 62h-236v-326z" />
<glyph unicode="&#x441;" horiz-adv-x="1130" d="M70 514q0 238 176 393q158 135 379 135q131 0 234 -43.5t204 -144.5l-156 -158q-69 71 -134 98t-148 27q-67 0 -126.5 -22t-97.5 -62q-82 -88 -82 -223t84 -219q41 -44 99.5 -68t122.5 -24q80 0 145.5 29t140.5 98l152 -160q-105 -100 -205 -144t-233 -44 q-139 0 -250.5 48.5t-186.5 137.5q-118 144 -118 346z" />
<glyph unicode="&#x442;" horiz-adv-x="1050" d="M51 805v219h948v-219h-352v-805h-246v805h-350z" />
<glyph unicode="&#x443;" horiz-adv-x="1208" d="M51 1024h285l282 -539h9l258 539h272l-434 -838q-55 -104 -131 -153q-54 -41 -152 -41q-80 0 -145 16l14 195h92q30 0 50 10q19 8 30 33l4 8z" />
<glyph unicode="&#x444;" horiz-adv-x="1402" d="M55 526q0 159 115 287q117 127 311 127h99v102h243v-102h99q96 0 181.5 -40t143.5 -109q101 -115 101 -265q0 -167 -121 -288q-129 -123 -305 -123h-99v-115h-243v115h-99q-90 0 -169.5 34t-135.5 93q-121 127 -121 284zM295 526q0 -83 53 -133q51 -57 146 -57h86v385 h-86q-93 0 -144 -57q-55 -52 -55 -138zM823 336h88q89 0 144 55q53 56 53 135q0 65 -49 129q-25 30 -65 48t-83 18h-88v-385z" />
<glyph unicode="&#x445;" horiz-adv-x="1177" d="M51 0l363 524l-344 500h295l223 -346l217 346h289l-338 -492l370 -532h-301l-241 375l-250 -375h-283z" />
<glyph unicode="&#x446;" horiz-adv-x="1165" d="M102 0v1024h246v-803h422v803h248v-803h96v-409h-215l-18 188h-779z" />
<glyph unicode="&#x447;" horiz-adv-x="1128" d="M82 694v330h248v-322q0 -133 57 -198q52 -62 172 -62q125 0 219 58v524h248v-1024h-248v262q-96 -39 -223 -39q-109 0 -200.5 34.5t-151.5 98.5q-121 131 -121 338z" />
<glyph unicode="&#x448;" horiz-adv-x="1554" d="M102 0v1024h246v-805h305v805h246v-805h307v805h246v-1024h-1350z" />
<glyph unicode="&#x449;" horiz-adv-x="1593" d="M102 0v1024h246v-805h307v805h246v-805h307v805h246v-805h88v-405h-215l-20 186h-1205z" />
<glyph unicode="&#x44a;" horiz-adv-x="1202" d="M41 817v207h453v-258h241q180 0 291 -111q115 -115 115 -270q0 -162 -117 -276q-109 -109 -289 -109h-487v805zM494 221h243q72 0 117 45q41 41 41 119q0 75 -39 111q-49 49 -129 49h-233v-324z" />
<glyph unicode="&#x44b;" horiz-adv-x="1435" d="M102 0v1024h246v-258h244q93 0 175.5 -39t139.5 -102q88 -101 88 -240q0 -148 -92 -254q-118 -131 -311 -131h-490zM348 221h252q73 0 111 47q39 36 39 117q0 44 -29 100q-49 60 -135 60h-238v-324zM1083 0v1024h250v-1024h-250z" />
<glyph unicode="&#x44c;" horiz-adv-x="1056" d="M102 0v1024h246v-258h244q186 0 301 -121q102 -107 102 -260q0 -171 -114 -279q-112 -106 -291 -106h-488zM348 221h246q76 0 119 49q37 43 37 115q0 68 -37 111q-43 49 -133 49h-232v-324z" />
<glyph unicode="&#x44d;" horiz-adv-x="1132" d="M82 172l145 162q145 -133 305 -133q118 0 197 65q71 60 84 150h-500v221h496q-12 78 -82 131q-80 57 -195 57q-166 0 -296 -127l-148 152q96 105 203.5 148.5t243.5 43.5q250 0 399 -155q136 -143 139 -375q0 -116 -41 -218t-119 -177q-141 -135 -381 -135 q-133 0 -240.5 44t-209.5 146z" />
<glyph unicode="&#x44e;" horiz-adv-x="1562" d="M102 0v1024h248v-389h105q40 172 161 278q68 61 161 95t196 34q239 0 387 -161q67 -73 104 -168.5t37 -200.5q0 -222 -145 -373q-71 -74 -169 -115.5t-214 -41.5q-220 0 -367 141q-64 62 -101 131t-54 160h-101v-414h-248zM690 512q0 -140 76 -219q78 -90 207 -90 q125 0 205 92q75 81 75 217q0 127 -67 215q-37 45 -93.5 70.5t-119.5 25.5q-116 0 -187 -71q-96 -93 -96 -240z" />
<glyph unicode="&#x44f;" horiz-adv-x="1081" d="M55 0l197 319q-73 53 -127 138q-51 83 -51 184q0 136 78 240q117 143 342 143h485v-1024h-246v258h-252l-143 -258h-283zM324 641q0 -66 36 -111q50 -53 136 -53h237v326h-241q-91 0 -134 -49q-34 -46 -34 -113z" />
<glyph unicode="&#x451;" horiz-adv-x="993" d="M102 0v1024h826v-221h-580v-176h518v-219h-518v-189h598v-219h-844zM158 1251q0 57 40 97.5t97 40.5t97 -40.5t40 -97.5t-40 -97t-97 -40t-97 40t-40 97zM559 1251q0 58 39 98t98 40q57 0 97.5 -40.5t40.5 -97.5t-40.5 -97t-97.5 -40q-59 0 -98 39.5t-39 97.5z" />
<glyph unicode="&#x452;" horiz-adv-x="1431" d="M37 805v219h979v-219h-367v-115q87 43 203 43q182 0 303 -100q75 -59 117.5 -146t42.5 -194v-133q0 -140 -51 -226q-50 -92 -193 -186l-135 139q73 70 102 129q29 63 29 152v119q0 123 -55 172q-58 55 -168 55q-47 0 -102.5 -13.5t-92.5 -33.5v-467h-246v805h-366z" />
<glyph unicode="&#x453;" horiz-adv-x="966" d="M102 0v1024h793v-219h-547v-805h-246zM414 1198l145 363l207 -105l-186 -336z" />
<glyph unicode="&#x454;" horiz-adv-x="1132" d="M82 512q3 232 139 375q149 155 400 155q135 0 242.5 -43.5t203.5 -148.5l-147 -152q-130 127 -297 127q-115 0 -195 -57q-70 -53 -82 -131h496v-221h-500q13 -90 84 -150q79 -65 197 -65q160 0 305 133l145 -162q-102 -102 -209.5 -146t-240.5 -44q-240 0 -381 135 q-78 75 -119 177t-41 218z" />
<glyph unicode="&#x455;" horiz-adv-x="1064" d="M70 90l94 199q100 -48 175 -66t165 -18q128 0 205 35q51 29 51 77q0 32 -35 50q-39 23 -119 36l-221 39q-151 25 -223 103q-74 77 -74 198q0 141 115 220q121 79 329 79q224 0 433 -102l-88 -197q-97 44 -174.5 62t-163.5 18q-116 0 -164 -22q-37 -21 -37 -56 q0 -29 20 -43q26 -23 91 -32l194 -33q207 -41 287 -119q74 -85 74 -196q0 -134 -91 -222q-127 -118 -407 -118q-132 0 -227.5 23.5t-208.5 84.5z" />
<glyph unicode="&#x456;" horiz-adv-x="454" d="M102 0v1024h250v-1024h-250z" />
<glyph unicode="&#x457;" horiz-adv-x="454" d="M-106 1251q0 57 40 97.5t97 40.5t97 -40.5t40 -97.5t-40 -97t-97 -40t-97 40t-40 97zM102 0v1024h250v-1024h-250zM295 1251q0 58 39 98t98 40q57 0 97 -40.5t40 -97.5t-40 -97t-97 -40q-59 0 -98 39.5t-39 97.5z" />
<glyph unicode="&#x458;" horiz-adv-x="968" d="M31 160l151 153q100 -106 236 -106q99 0 157 67q54 64 54 162v588h248v-575q0 -230 -129 -353q-123 -114 -332 -114q-243 0 -385 178z" />
<glyph unicode="&#x459;" horiz-adv-x="1867" d="M31 31l51 200q66 -18 113 -18q45 0 73 25q22 22 25 53l100 733h758v-258h250q186 0 303 -123q102 -108 102 -258q0 -157 -106 -266q-113 -119 -299 -119h-498v803h-291l-82 -565q-23 -136 -104 -195q-76 -51 -201 -51q-61 0 -102.5 8t-91.5 31zM1151 221h258q71 0 115 51 q37 52 37 113q0 67 -37 107q-50 53 -129 53h-244v-324z" />
<glyph unicode="&#x45a;" horiz-adv-x="1755" d="M102 0v1024h246v-371h443v371h247v-258h248q91 0 174 -37t139 -96q95 -105 95 -248q0 -144 -103 -262q-117 -123 -305 -123h-495v432h-443v-432h-246zM1038 221h258q75 0 113 47q39 42 39 117q0 57 -35 104q-42 56 -131 56h-244v-324z" />
<glyph unicode="&#x45b;" horiz-adv-x="1417" d="M37 805v219h979v-219h-367v-115q87 43 203 43q182 0 303 -100q75 -59 117.5 -146t42.5 -194v-293h-248v287q0 123 -55 172q-58 55 -168 55q-47 0 -102.5 -13.5t-92.5 -33.5v-467h-246v805h-366z" />
<glyph unicode="&#x45c;" horiz-adv-x="1110" d="M102 0v1024h244v-373h113q32 0 53 15q20 13 31 36l92 185q34 69 94 106q67 43 166 43q91 0 145 -16l-32 -207h-78q-38 0 -58 -14q-16 -10 -32 -41l-86 -168q-11 -24 -35 -45l330 -545h-285l-246 438q-21 -6 -47 -6h-125v-432h-244zM455 1198l145 363l207 -105l-186 -336z " />
<glyph unicode="&#x45e;" horiz-adv-x="1208" d="M51 1024h285l282 -539h9l258 539h272l-434 -838q-55 -104 -131 -153q-54 -41 -152 -41q-80 0 -145 16l14 195h92q30 0 50 10q19 8 30 33l4 8zM305 1313l174 86q18 -32 41 -58q38 -38 103 -38q62 0 100 38q24 24 43 58l172 -86q-34 -85 -115 -142q-86 -61 -205 -61 q-113 0 -192 57q-84 59 -121 146z" />
<glyph unicode="&#x45f;" horiz-adv-x="1136" d="M102 0v1024h246v-803h438v803h248v-1024h-348l-12 -188h-213l-12 188h-347z" />
<glyph unicode="&#x462;" horiz-adv-x="1206" d="M-2 936v203h94v90h246v-90h303v-203h-303v-55h319q256 0 390 -160q98 -112 98 -279q0 -203 -144 -331q-123 -111 -344 -111h-565v936h-94zM338 221h321q134 0 199 78q41 59 41 143q0 79 -39 138q-64 77 -209 77h-313v-436z" />
<glyph unicode="&#x463;" horiz-adv-x="1056" d="M10 823v201h92v182h246v-182h250v-201h-250v-57h242q90 0 173 -37t138 -98q94 -100 94 -246q0 -154 -102 -262q-117 -123 -303 -123h-488v823h-92zM348 221h250q75 0 113 47q39 39 39 117q0 51 -31 104q-49 56 -135 56h-236v-324z" />
<glyph unicode="&#x472;" horiz-adv-x="1419" d="M59 614q0 252 164 433q88 96 214 150t272 54q284 0 462 -178q183 -189 183 -459q0 -263 -170 -442q-185 -195 -475 -195q-272 0 -459 177q-92 88 -141.5 206.5t-49.5 253.5zM307 545q18 -123 103 -215q55 -62 132 -96.5t167 -34.5q87 0 165 34.5t132 96.5q67 73 94 168 q-35 -23 -81.5 -37.5t-82.5 -14.5q-84 0 -143 19.5t-119 58.5q-93 56 -203 56q-86 0 -164 -35zM319 764q78 35 173 35q122 0 231 -62q105 -65 223 -65q106 0 156 28q-19 110 -96 201q-58 61 -135.5 95t-161.5 34q-148 0 -263 -88q-87 -69 -127 -178z" />
<glyph unicode="&#x473;" d="M61 512q0 111 43.5 212t122.5 175q153 143 379 143q116 0 218 -42t175 -117q150 -150 150 -371q0 -111 -41 -210.5t-119 -172.5q-153 -147 -383 -147q-238 0 -391 153q-73 73 -113.5 170.5t-40.5 206.5zM315 434q14 -81 78 -145q82 -88 213 -88q114 0 197 65 q68 58 88 131q-94 -32 -146 -32q-96 0 -180 57q-64 43 -149 43q-41 0 -101 -31zM324 647q64 27 127 27q111 0 208 -58q61 -38 148 -38q47 0 86 20q-29 100 -80 143q-88 82 -207 82q-107 0 -180 -49q-73 -55 -102 -127z" />
<glyph unicode="&#x474;" horiz-adv-x="1415" d="M57 1229h260l371 -955h17l75 256q61 205 166 373q124 202 318 383l151 -145q-156 -166 -268 -355q-79 -142 -150 -335l-161 -451h-265z" />
<glyph unicode="&#x475;" horiz-adv-x="1214" d="M51 1024h266l306 -768h12l45 195q39 167 135 319q103 165 250 309l170 -145q-143 -140 -227 -301q-58 -101 -115 -260l-133 -373h-277z" />
<glyph unicode="&#x490;" horiz-adv-x="1114" d="M100 0v1229h734l20 190l209 -8v-403h-717v-1008h-246z" />
<glyph unicode="&#x491;" horiz-adv-x="966" d="M102 0v1024h560l16 162h217v-381h-547v-805h-246z" />
<glyph unicode="&#x4d8;" horiz-adv-x="1396" d="M61 614q0 81 13 148h995q-34 118 -117 186q-101 84 -258 84q-219 0 -360 -141l-152 164q113 105 231.5 150.5t280.5 45.5q286 0 473 -190q168 -168 168 -447q0 -266 -170 -450q-181 -187 -467 -187q-152 0 -279 57.5t-214 162.5q-144 181 -144 417zM313 545 q24 -157 97 -230q118 -118 288 -118q173 0 277 104q92 95 115 244h-777z" />
<glyph unicode="&#x4d9;" horiz-adv-x="1193" d="M61 510q0 62 13 139h784q-24 78 -90 123q-74 51 -182 51q-103 0 -169 -24.5t-141 -87.5l-141 159q95 87 203.5 129.5t247.5 42.5q227 0 377 -131q170 -157 170 -401q0 -110 -40.5 -208.5t-115.5 -172.5q-153 -147 -381 -147q-232 0 -385 153q-150 147 -150 375zM313 430 q15 -87 72 -141q82 -88 211 -88q121 0 205 84q61 61 80 145h-568z" />
<glyph unicode="&#x2000;" horiz-adv-x="896" />
<glyph unicode="&#x2001;" horiz-adv-x="1792" />
<glyph unicode="&#x2002;" horiz-adv-x="896" />
<glyph unicode="&#x2003;" horiz-adv-x="1792" />
<glyph unicode="&#x2004;" horiz-adv-x="597" />
<glyph unicode="&#x2005;" horiz-adv-x="448" />
<glyph unicode="&#x2006;" horiz-adv-x="298" />
<glyph unicode="&#x2007;" horiz-adv-x="298" />
<glyph unicode="&#x2008;" horiz-adv-x="224" />
<glyph unicode="&#x2009;" horiz-adv-x="358" />
<glyph unicode="&#x200a;" horiz-adv-x="99" />
<glyph unicode="&#x2010;" horiz-adv-x="768" d="M68 438v197h632v-197h-632z" />
<glyph unicode="&#x2011;" horiz-adv-x="768" d="M68 438v197h632v-197h-632z" />
<glyph unicode="&#x2012;" horiz-adv-x="768" d="M68 438v197h632v-197h-632z" />
<glyph unicode="&#x2013;" horiz-adv-x="919" d="M68 438v197h782v-197h-782z" />
<glyph unicode="&#x2014;" horiz-adv-x="1079" d="M68 438v197h942v-197h-942z" />
<glyph unicode="&#x2018;" horiz-adv-x="364" d="M57 1112q0 22 13 57l82 211l118 -32l-22 -127q57 -30 57 -109q0 -51 -32.5 -84t-90.5 -33t-91.5 33t-33.5 84z" />
<glyph unicode="&#x2019;" horiz-adv-x="364" d="M57 1155q0 51 32.5 84t90.5 33t91.5 -33t33.5 -84q0 -25 -12 -57l-82 -211l-119 33l23 127q-58 31 -58 108z" />
<glyph unicode="&#x201a;" horiz-adv-x="364" d="M57 106q0 51 32.5 84t90.5 33t91.5 -33t33.5 -84q0 -25 -12 -57l-82 -211l-119 33l23 127q-58 31 -58 108z" />
<glyph unicode="&#x201c;" horiz-adv-x="657" d="M57 1112q0 22 13 57l82 211l118 -32l-22 -127q57 -30 57 -109q0 -51 -32.5 -84t-90.5 -33t-91.5 33t-33.5 84zM350 1112q0 25 12 57l82 211l119 -32l-22 -127q57 -30 57 -109q0 -51 -32.5 -84t-90.5 -33t-91.5 33t-33.5 84z" />
<glyph unicode="&#x201d;" horiz-adv-x="657" d="M57 1155q0 51 32.5 84t90.5 33t91.5 -33t33.5 -84q0 -25 -12 -57l-82 -211l-119 33l23 127q-58 31 -58 108zM348 1155q0 51 32.5 84t90.5 33t91.5 -33t33.5 -84q0 -25 -12 -57l-82 -211l-119 33l23 127q-58 31 -58 108z" />
<glyph unicode="&#x201e;" horiz-adv-x="657" d="M57 106q0 51 32.5 84t90.5 33t91.5 -33t33.5 -84q0 -25 -12 -57l-82 -211l-119 33l23 127q-58 31 -58 108zM348 106q0 51 32.5 84t90.5 33t91.5 -33t33.5 -84q0 -25 -12 -57l-82 -211l-119 33l23 127q-58 31 -58 108z" />
<glyph unicode="&#x2026;" horiz-adv-x="1251" d="M72 137q0 66 41 107t110 41q71 0 112.5 -40.5t41.5 -107.5q0 -64 -41.5 -105.5t-112.5 -41.5q-68 0 -109.5 41.5t-41.5 105.5zM471 137q0 66 41.5 107t110.5 41q71 0 112 -40.5t41 -107.5q0 -65 -41 -106t-112 -41q-68 0 -110 41.5t-42 105.5zM872 137q0 66 41.5 107 t110.5 41q71 0 112.5 -40.5t41.5 -107.5q0 -64 -41.5 -105.5t-112.5 -41.5q-68 0 -110 41.5t-42 105.5z" />
<glyph unicode="&#x202f;" horiz-adv-x="358" />
<glyph unicode="&#x2039;" horiz-adv-x="616" d="M41 461v106l424 295l90 -131l-264 -215l264 -219l-90 -131z" />
<glyph unicode="&#x203a;" horiz-adv-x="616" d="M35 297l262 215l-262 219l90 131l422 -295v-106l-422 -295z" />
<glyph unicode="&#x205f;" horiz-adv-x="448" />
<glyph unicode="&#x20ac;" horiz-adv-x="1118" d="M23 328v159h741l-37 -159h-362q26 -50 90 -88q76 -37 157 -37q148 0 285 125l147 -158q-99 -99 -200.5 -143.5t-231.5 -44.5q-97 0 -194.5 31t-173.5 91q-109 88 -146 224h-75zM23 543v159h77q60 160 166 238q138 102 346 102q132 0 231 -38.5t199 -135.5l-147 -153 q-69 61 -129 83.5t-154 22.5t-151 -28q-55 -26 -92 -91h440l-35 -159h-751z" />
<glyph unicode="&#x2122;" horiz-adv-x="1351" d="M51 1073v156h522v-156h-182v-393h-160v393h-180zM639 680v549h152l165 -203l164 203h150v-549h-160v295l-129 -152h-61l-123 152v-295h-158z" />
<glyph unicode="&#x25fc;" horiz-adv-x="1024" d="M0 0v1024h1024v-1024h-1024z" />
</font>
</defs>
</svg>
