<?xml version="1.0" standalone="no"?>
<!DOCTYPE svg PUBLIC "-//W3C//DTD SVG 1.1//EN" "http://www.w3.org/Graphics/SVG/1.1/DTD/svg11.dtd" >
<svg xmlns="http://www.w3.org/2000/svg">
<metadata></metadata>
<defs>
<font id="roomthin" horiz-adv-x="577" >
<font-face units-per-em="2048" ascent="1690" descent="-358" />
<missing-glyph horiz-adv-x="614" />
<glyph horiz-adv-x="0" />
<glyph horiz-adv-x="682" />
<glyph unicode=" "  horiz-adv-x="614" />
<glyph unicode="&#x09;" horiz-adv-x="614" />
<glyph unicode="&#xa0;" horiz-adv-x="614" />
<glyph unicode="!" horiz-adv-x="344" d="M80 80q0 41 25.5 66.5t66.5 25.5t66.5 -25.5t25.5 -66.5t-25.5 -66.5t-66.5 -25.5t-66.5 25.5t-25.5 66.5zM121 1057v282h104v-282l-12 -774h-82z" />
<glyph unicode="&#x22;" horiz-adv-x="468" d="M88 1229h119l-23 -311h-71zM260 1229h119l-23 -311h-71z" />
<glyph unicode="#" horiz-adv-x="876" d="M92 416v80h182l13 127h-195v82h201l16 188l84 -6l-14 -182h139l14 188l86 -6l-16 -182h184v-82h-192l-12 -127h204v-80h-213l-14 -189l-82 6l12 183h-137l-16 -189l-84 6l12 183h-172zM358 496h140l12 127h-139z" />
<glyph unicode="$" horiz-adv-x="1013" d="M59 59l29 88q211 -67 375 -67q48 0 83 2t81.5 8.5t85 22.5t65.5 41q64 60 64 133q0 80 -58 131q-9 6 -19.5 12t-19 10t-23 8.5t-22 7t-25 6t-24 5t-27.5 5.5t-26 5l-254 47q-132 26 -194 78q-80 64 -80 178q0 123 106 189q89 58 250 69v121h113v-117q185 -9 352 -79 l-35 -78q-176 63 -350 63q-169 0 -260 -49q-72 -47 -72 -123q0 -67 66 -106q48 -29 137 -43l233 -41q186 -32 264 -107q78 -71 78 -186q0 -63 -33.5 -125t-93.5 -105q-93 -69 -286 -81v-117h-113v119q-200 9 -367 75z" />
<glyph unicode="%" horiz-adv-x="1302" d="M45 764q0 116 78 197q75 81 205 81q129 0 204 -81q78 -81 78 -197t-78 -197q-76 -82 -204 -82q-129 0 -205 82q-78 81 -78 197zM131 764q0 -78 47 -131q63 -66 150 -66q86 0 149 66q47 53 47 131t-47 131q-60 66 -149 66q-90 0 -150 -66q-47 -53 -47 -131zM252 25 l698 1013l74 -47l-696 -1016zM690 258q0 116 78 197q76 82 205 82t205 -82q77 -80 77 -197t-77 -197q-75 -81 -205 -81t-205 81q-78 81 -78 197zM776 258q0 -78 47 -131q60 -66 150 -66q86 0 149 66q47 53 47 131t-47 131q-63 66 -149 66q-90 0 -150 -66q-47 -53 -47 -131z " />
<glyph unicode="&#x26;" horiz-adv-x="1179" d="M61 401q0 133 62 236q57 92 168 160q-49 74 -49 155q0 124 82 203q96 96 264 96q100 0 177 -40t126 -111l-72 -56q-87 117 -231 117q-111 0 -176 -53q-62 -53 -62 -143q0 -93 76 -172l508 -535q48 53 72 160l90 -21q-15 -65 -36 -113.5t-59 -95.5l117 -127l-69 -63 l-113 119q-71 -65 -172.5 -102.5t-220.5 -37.5q-197 0 -328 105q-154 123 -154 319zM174 403q0 -134 109 -233q106 -98 264 -98q92 0 176.5 31t144.5 85l-522 543q-88 -52 -133 -137q-39 -74 -39 -191z" />
<glyph unicode="'" horiz-adv-x="292" d="M88 1229h117l-25 -311h-67z" />
<glyph unicode="(" horiz-adv-x="344" d="M66 561q0 213 47.5 398.5t138.5 314.5l76 -37q-79 -114 -124.5 -305t-45.5 -371q0 -177 45.5 -359t124.5 -292l-76 -37q-186 269 -186 688z" />
<glyph unicode=")" horiz-adv-x="344" d="M16 -90q77 113 122.5 305.5t45.5 370.5q0 175 -45.5 352.5t-122.5 296.5l76 39q187 -271 187 -688q0 -212 -48 -398t-139 -315z" />
<glyph unicode="*" horiz-adv-x="516" d="M27 1057l22 78l19 2l157 -70l-14 174l8 12h78l8 -16l-18 -172l153 68l21 -3l22 -77l-12 -11l-160 -32l103 -127l4 -25l-53 -43l-21 8l-90 146l-86 -144l-23 -10l-55 47l2 21l111 127l-166 37z" />
<glyph unicode="+" horiz-adv-x="655" d="M41 520v82h244v246h82v-246h247v-82h-247v-246h-82v246h-244z" />
<glyph unicode="," horiz-adv-x="323" d="M72 78q0 39 25 65.5t65 26.5t65 -26.5t25 -65.5q0 -20 -10 -43l-80 -195l-56 8l17 150q-23 7 -37 30t-14 50z" />
<glyph unicode="-" horiz-adv-x="645" d="M35 500v82h575v-82h-575z" />
<glyph unicode="." horiz-adv-x="323" d="M72 78q0 41 24.5 66.5t65.5 25.5t65.5 -25.5t24.5 -66.5t-24.5 -65.5t-65.5 -24.5t-65.5 24.5t-24.5 65.5z" />
<glyph unicode="/" horiz-adv-x="512" d="M6 -31l500 1329l86 -30l-502 -1331z" />
<glyph unicode="0" horiz-adv-x="1380" d="M63 614q0 263 173 449q182 188 454 188q273 0 455 -188q174 -187 174 -449q0 -277 -197 -471q-174 -166 -432 -166t-432 166q-195 192 -195 471zM176 614q0 -235 154 -389q149 -149 360 -149q212 0 361 149q153 153 153 389q0 225 -143 381q-142 158 -371 158t-371 -158 q-143 -156 -143 -381z" />
<glyph unicode="1" horiz-adv-x="481" d="M57 1100l267 129h55v-1229h-107v1106l-178 -76z" />
<glyph unicode="2" horiz-adv-x="1069" d="M72 1085q187 166 450 166q199 0 328 -92q147 -103 147 -285q0 -131 -84 -241q-33 -44 -79.5 -85t-128.5 -102l-474 -356h756v-90h-913v92l590 449q46 35 68.5 53.5t50 45t46.5 52.5q62 81 62 191q0 146 -131 221q-100 57 -238 57q-91 0 -162.5 -19.5t-116.5 -45.5 t-118 -80z" />
<glyph unicode="3" horiz-adv-x="1099" d="M51 156l62 71q94 -83 180.5 -121t226.5 -38q120 0 194 26.5t132 83.5q88 82 88 209q0 100 -60 172q-73 86 -247 86h-348v86h348q128 0 186 88q31 54 31 127q0 115 -105 170q-95 49 -239 49q-101 0 -181 -26.5t-174 -89.5l-49 65q94 76 190 106.5t224 30.5q166 0 289 -67 q147 -79 147 -238q0 -90 -43 -155q-41 -58 -94 -82v-9q110 -38 164 -114q65 -89 65 -199q0 -169 -125 -283q-72 -62 -163 -94.5t-230 -32.5q-160 0 -270 47.5t-199 131.5z" />
<glyph unicode="4" horiz-adv-x="1136" d="M51 199v86l793 944h96v-938h133v-82l-133 -10v-199h-111v199h-778zM180 291h649v784z" />
<glyph unicode="5" horiz-adv-x="1079" d="M51 139l60 74q89 -77 169.5 -111t215.5 -34q222 0 335 116q84 91 84 228q0 139 -88 227q-110 104 -292 104q-194 0 -336 -67h-88v553h807v-92h-713v-373q137 67 321 67q214 0 351 -114q141 -114 141 -305q0 -174 -117 -291q-144 -144 -405 -144q-160 0 -260.5 41.5 t-184.5 120.5z" />
<glyph unicode="6" horiz-adv-x="1142" d="M61 616q0 152 49.5 282.5t145.5 219.5q140 133 346 133q122 0 214 -27.5t173 -90.5l-51 -76q-94 59 -165.5 82.5t-168.5 23.5q-166 0 -276 -92q-62 -54 -98.5 -137.5t-57.5 -208.5q72 47 181 73.5t233 26.5q224 0 354 -98q141 -101 141 -313q0 -185 -129 -301 q-148 -136 -368 -136q-199 0 -330 115q-193 167 -193 524zM170 623q0 -332 143 -461q104 -94 271 -94q191 0 303 112q90 90 90 234q0 151 -94 233q-101 88 -297 88q-138 0 -228.5 -21.5t-187.5 -72.5v-18z" />
<glyph unicode="7" horiz-adv-x="1021" d="M82 1139v90h909v-82l-585 -1147h-113l584 1139h-795z" />
<glyph unicode="8" horiz-adv-x="1189" d="M61 369q0 142 105 247q61 55 143 91q-26 19 -40.5 31t-32 31t-29.5 38q-35 62 -35 139q0 138 115 221q112 84 311 84q208 0 322 -92q90 -77 90 -207q0 -82 -47 -149q-39 -61 -99 -84q125 -44 189 -123q75 -90 75 -217q0 -176 -131 -279q-148 -123 -405 -123 q-238 0 -391 111q-67 53 -103.5 128.5t-36.5 152.5zM170 379q0 -66 28 -125.5t83 -99.5q120 -86 311 -86q214 0 330 100q98 81 98 211q0 131 -96 203q-58 45 -139 61t-193 16q-90 0 -160 15q-123 -42 -199 -123q-63 -66 -63 -172zM276 936q0 -70 54 -121q75 -61 262 -61 q74 0 145 -9q93 18 133 82q37 52 37 129q0 103 -90 154q-86 53 -225 53q-152 0 -240 -63q-76 -57 -76 -164z" />
<glyph unicode="9" horiz-adv-x="1142" d="M61 815q0 182 132 301q147 135 368 135q198 0 328 -114q188 -163 188 -525q0 -152 -49.5 -285t-146.5 -223q-140 -127 -357 -127q-232 0 -391 123l55 74q95 -62 167 -85t167 -23q187 0 297 102q119 116 154 336q-72 -47 -181.5 -74t-232.5 -27q-222 0 -356 99 q-142 102 -142 313zM166 815q0 -151 94 -233q103 -88 299 -88q134 0 226.5 22t189.5 72v18q0 324 -146 461q-104 94 -268 94q-193 0 -305 -112q-90 -93 -90 -234z" />
<glyph unicode=":" horiz-adv-x="348" d="M72 78q0 41 24.5 66.5t65.5 25.5t65.5 -25.5t24.5 -66.5t-24.5 -65.5t-65.5 -24.5t-65.5 24.5t-24.5 65.5zM72 664q0 41 24.5 66.5t65.5 25.5t65.5 -25.5t24.5 -66.5t-24.5 -66t-65.5 -25t-65.5 25t-24.5 66z" />
<glyph unicode=";" horiz-adv-x="348" d="M72 78q0 39 25 65.5t65 26.5t65 -26.5t25 -65.5q0 -20 -10 -43l-80 -195l-56 8l17 150q-23 7 -37 30t-14 50zM72 664q0 41 24.5 66.5t65.5 25.5t65.5 -25.5t24.5 -66.5t-24.5 -66t-65.5 -25t-65.5 25t-24.5 66z" />
<glyph unicode="&#x3c;" d="M41 516v45l436 285l39 -60l-348 -247l348 -248l-39 -60z" />
<glyph unicode="=" horiz-adv-x="657" d="M35 381v84h590v-84h-590zM35 616v86h590v-86h-590z" />
<glyph unicode="&#x3e;" d="M68 291l350 248l-350 247l38 60l439 -285v-45l-439 -285z" />
<glyph unicode="?" horiz-adv-x="1030" d="M20 1067q187 184 465 184q225 0 338 -90q140 -110 140 -264q0 -142 -93 -238q-37 -38 -88 -65.5t-129 -58.5l-47 -19q-59 -21 -86 -59q-32 -38 -35 -97l-4 -73h-94v80q0 88 45 145q42 52 139 94l93 39q3 1 16 7.5t16.5 8t15 7t16.5 8.5t14.5 8.5t15.5 9.5t13.5 9.5 t14.5 11.5t13 12q57 63 57 158q0 125 -90 202q-92 70 -279 70q-119 0 -215.5 -37.5t-185.5 -122.5zM346 80q0 42 25 67t67 25q41 0 66.5 -25.5t25.5 -66.5t-25.5 -66.5t-66.5 -25.5q-42 0 -67 25t-25 67z" />
<glyph unicode="@" horiz-adv-x="1376" d="M43 514q0 250 168 426q86 91 207 138.5t262 47.5q161 0 293.5 -59.5t218.5 -169.5q123 -156 123 -383q0 -186 -96 -272q-67 -60 -152 -60q-98 0 -162 80q-64 -49 -117.5 -70.5t-123.5 -21.5q-138 0 -234 90q-104 93 -104 246q0 129 86 221q48 52 113.5 81.5t136.5 29.5 q129 0 223 -64l39 45l63 -14v-406q0 -45 17 -73q24 -43 67 -43q45 0 84 39q49 57 49 192q0 99 -30 188t-84 152q-67 81 -173.5 124.5t-236.5 43.5q-112 0 -211.5 -38.5t-167.5 -109.5q-141 -141 -141 -360q0 -216 127 -352q142 -160 393 -160q186 0 354 68l35 -88 q-183 -86 -389 -86q-146 0 -268 45.5t-207 136.5q-162 165 -162 436zM442 506q0 -102 60 -162q67 -70 168 -70q61 0 107 17t97 59q-4 15 -4 74v250q-55 33 -98.5 46t-103.5 13q-99 0 -158 -59q-68 -65 -68 -168z" />
<glyph unicode="A" horiz-adv-x="1372" d="M51 0l545 1229h178l547 -1229h-123l-111 248h-808l-109 -248h-119zM319 348h728l-336 782h-49z" />
<glyph unicode="B" horiz-adv-x="1228" d="M102 0v1229h613q181 0 282 -101q76 -76 76 -196q0 -81 -39 -146q-32 -54 -104 -102v-8q106 -48 155 -123q62 -89 62 -199q0 -150 -100 -250q-117 -104 -306 -104h-639zM219 94h524q149 0 224 84q69 75 69 178q0 106 -55 170q-75 90 -225 90h-537v-522zM219 715h518 q117 0 168 63q53 65 53 142q0 92 -59 151q-73 62 -197 62h-483v-418z" />
<glyph unicode="C" horiz-adv-x="1232" d="M63 618q0 131 48.5 246t136.5 203t207.5 136t259.5 48q149 0 255.5 -40t200.5 -124l-69 -75q-78 68 -169.5 103.5t-217.5 35.5q-236 0 -385 -152q-152 -159 -152 -381q0 -228 148 -382q152 -158 389 -158q128 0 219.5 35t167.5 104l69 -76q-96 -83 -202.5 -123.5 t-253.5 -40.5q-277 0 -467 187q-185 185 -185 454z" />
<glyph unicode="D" horiz-adv-x="1294" d="M102 0v1229h482q303 0 477 -187q162 -170 162 -428q0 -278 -179 -448q-174 -166 -460 -166h-482zM219 100h356q251 0 392 144t141 370q0 109 -36 204t-103 163q-139 145 -394 145h-356v-1026z" />
<glyph unicode="E" horiz-adv-x="1136" d="M102 0v1229h922v-103h-807v-424h721v-100h-721v-502h838v-100h-953z" />
<glyph unicode="F" horiz-adv-x="1062" d="M102 0v1229h899v-103h-784v-460h696v-101h-696v-565h-115z" />
<glyph unicode="G" horiz-adv-x="1308" d="M74 618q0 265 184 449q187 184 471 184q283 0 473 -161l-61 -74q-167 135 -412 135q-238 0 -393 -158q-148 -158 -148 -375q0 -233 158 -391q152 -149 379 -149q208 0 371 119v389l-348 12v82h458v-674l-49 -10l-39 117q-90 -69 -182.5 -102.5t-210.5 -33.5 q-241 0 -422 142q-111 91 -170 219t-59 280z" />
<glyph unicode="H" horiz-adv-x="1269" d="M102 0v1229h113v-510h838v510h114v-1229h-114v621h-838v-621h-113z" />
<glyph unicode="I" horiz-adv-x="319" d="M102 0v1229h115v-1229h-115z" />
<glyph unicode="J" horiz-adv-x="1046" d="M31 127l61 84q161 -133 320 -133q203 0 307 104q63 63 92 140.5t29 195.5v711h114v-684q0 -286 -143 -420q-151 -148 -393 -148q-108 0 -211 40.5t-176 109.5z" />
<glyph unicode="K" horiz-adv-x="1216" d="M102 0v1229h115v-522h367l409 522h131l-442 -561l494 -668h-132l-458 610h-369v-610h-115z" />
<glyph unicode="L" horiz-adv-x="1107" d="M102 0v1229h113v-1133h842v-96h-955z" />
<glyph unicode="M" horiz-adv-x="1538" d="M102 0v1229h164l508 -709l504 709h158v-1229h-113v1108h-16l-529 -748h-22l-535 748h-16v-1108h-103z" />
<glyph unicode="N" horiz-adv-x="1345" d="M102 0v1229h129l906 -1082v1082h106v-1229h-127l-903 1085v-1085h-111z" />
<glyph unicode="O" horiz-adv-x="1421" d="M61 614q0 260 172 441q88 94 210 145t268 51q139 0 258.5 -48t208.5 -136q87 -87 134.5 -204t47.5 -249q0 -266 -178 -444q-183 -193 -471 -193q-147 0 -270.5 52.5t-213.5 148.5q-166 183 -166 436zM176 614q0 -213 139 -372q74 -80 176.5 -124t219.5 -44 q116 0 216.5 43t174.5 123q141 154 141 374q0 228 -147 381q-150 156 -385 156q-117 0 -218.5 -42t-173.5 -120q-143 -156 -143 -375z" />
<glyph unicode="P" horiz-adv-x="1198" d="M102 0v1229h572q231 0 366 -158q97 -117 97 -276q0 -176 -125 -301q-130 -127 -338 -127h-455v-367h-117zM219 467h467q165 0 256 104q80 89 80 224q0 133 -80 225q-94 108 -274 108h-449v-661z" />
<glyph unicode="Q" horiz-adv-x="1421" d="M61 614q0 260 172 441q88 94 210 145t268 51q139 0 258.5 -48t208.5 -136q87 -87 134.5 -204t47.5 -249q0 -266 -178 -444q-76 -79 -183 -131q53 -26 149 -83t136 -79q122 -62 236 -76l8 -71q-27 -9 -68 -9q-132 0 -313 111q-18 12 -60 40.5t-66 44.5t-62 40t-72 43 q-94 -23 -176 -23q-147 0 -270.5 52.5t-213.5 148.5q-166 183 -166 436zM176 614q0 -213 139 -372q74 -80 176.5 -124t219.5 -44q116 0 216.5 43t174.5 123q141 154 141 374q0 228 -147 381q-150 156 -385 156q-117 0 -218.5 -42t-173.5 -120q-143 -156 -143 -375z" />
<glyph unicode="R" horiz-adv-x="1210" d="M102 0v1229h584q208 0 338 -127q125 -125 125 -307q0 -148 -86 -260q-85 -111 -223 -150l233 -385h-121l-215 367h-520v-367h-115zM217 465h473q171 0 258 100q86 95 86 230q0 130 -80 223q-92 110 -276 110h-461v-663z" />
<glyph unicode="S" horiz-adv-x="1169" d="M61 70l31 94q111 -35 234 -59.5t206 -24.5q61 0 98 1.5t95.5 8t105.5 23.5t82 45q82 65 82 176q0 103 -77 164q-78 50 -224 73l-284 47q-164 25 -248 95q-90 74 -90 209q0 170 141 252q129 77 356 77q232 0 461 -90l-37 -90q-209 82 -411 82q-190 0 -293 -55 q-54 -30 -81.5 -68.5t-27.5 -105.5q0 -90 70 -138q62 -42 180 -59l277 -47q108 -20 186.5 -49t130.5 -80q84 -81 84 -211q0 -70 -34.5 -140.5t-98.5 -119.5q-69 -54 -172 -78.5t-268 -24.5q-113 0 -239 25.5t-235 67.5z" />
<glyph unicode="T" horiz-adv-x="1245" d="M51 1133v96h1143v-96h-514v-1133h-115v1133h-514z" />
<glyph unicode="U" horiz-adv-x="1257" d="M102 528v701h115v-715q0 -198 117 -315q116 -125 299 -125q177 0 295 121q112 115 112 319v715h115v-701q0 -259 -158 -411q-146 -140 -364 -140q-227 0 -377 150q-154 154 -154 401z" />
<glyph unicode="V" horiz-adv-x="1327" d="M51 1229h127l469 -1141h37l473 1141h121l-528 -1229h-172z" />
<glyph unicode="W" horiz-adv-x="1959" d="M51 1229h131l363 -1139h24l326 1139h170l338 -1139h24l359 1139h123l-408 -1229h-180l-334 1128h-24l-322 -1128h-176z" />
<glyph unicode="X" horiz-adv-x="1255" d="M63 0l476 637l-449 592h133l404 -543l389 543h133l-442 -590l487 -639h-135l-432 586l-437 -586h-127z" />
<glyph unicode="Y" horiz-adv-x="1288" d="M53 1229h131l459 -830h10l459 830h125l-535 -946v-283h-114v274z" />
<glyph unicode="Z" horiz-adv-x="1234" d="M82 0v61l922 1082l-426 -10h-435v96h992v-82l-893 -1057l409 12h502v-102h-1071z" />
<glyph unicode="[" horiz-adv-x="368" d="M102 -180v1511h242v-90h-143v-1333h143v-88h-242z" />
<glyph unicode="\" horiz-adv-x="512" d="M6 1030l86 31l412 -1092l-82 -32z" />
<glyph unicode="]" horiz-adv-x="368" d="M25 -92h143v1333h-143v90h241v-1511h-241v88z" />
<glyph unicode="^" horiz-adv-x="636" d="M41 932l252 315h49l254 -313l-45 -41l-232 252l-235 -252z" />
<glyph unicode="_" horiz-adv-x="669" d="M0 -135h670v-82h-670v82z" />
<glyph unicode="`" horiz-adv-x="413" d="M102 1393l97 47l112 -281l-63 -29z" />
<glyph unicode="a" horiz-adv-x="1171" d="M51 0l455 1024h158l456 -1024h-119l-92 205h-655l-92 -205h-111zM295 297h575l-272 631h-33z" />
<glyph unicode="b" horiz-adv-x="1058" d="M102 0v1024h519q147 0 229 -82q65 -68 65 -168q0 -66 -30 -121q-29 -50 -78 -78v-8q63 -31 115 -96q55 -79 55 -174q0 -119 -88 -207q-93 -90 -248 -90h-539zM213 90h432q111 0 176 74q49 58 49 137q0 88 -45 139q-63 72 -172 72h-440v-422zM213 602h430q85 0 125 49 q39 45 39 115q0 72 -47 119t-150 47h-397v-330z" />
<glyph unicode="c" horiz-adv-x="1071" d="M72 514q0 220 153 373q158 155 387 155q236 0 387 -139l-63 -72q-65 57 -142 86t-182 29q-186 0 -309 -123t-123 -309t119 -311q125 -125 313 -125q193 0 326 117l61 -74q-76 -70 -168 -104.5t-219 -34.5q-234 0 -387 153q-153 150 -153 379z" />
<glyph unicode="d" horiz-adv-x="1112" d="M102 0v1024h410q238 0 385 -147q143 -143 143 -365q0 -109 -37.5 -204t-105.5 -163q-145 -145 -385 -145h-410zM213 94h291q210 0 321 123q105 117 105 295q0 183 -113 299q-114 117 -313 117h-291v-834z" />
<glyph unicode="e" horiz-adv-x="985" d="M102 0v1024h777v-96h-666v-334h594v-94h-594v-406h690v-94h-801z" />
<glyph unicode="f" horiz-adv-x="917" d="M102 0v1024h754v-96h-643v-355h571v-92h-571v-481h-111z" />
<glyph unicode="g" horiz-adv-x="1118" d="M72 514q0 220 145 371q157 157 401 157q243 0 394 -133l-64 -73q-69 56 -146 83t-184 27q-190 0 -311 -121q-123 -123 -123 -311q0 -196 131 -324q122 -116 299 -116q166 0 299 98v309l-288 11v79h393v-567l-62 -12l-20 90q-70 -50 -145 -75t-175 -25q-243 0 -391 151 q-153 159 -153 381z" />
<glyph unicode="h" horiz-adv-x="1099" d="M102 0v1024h111v-428h674v428h110v-1024h-110v502h-674v-502h-111z" />
<glyph unicode="i" horiz-adv-x="313" d="M102 0v1024h109v-1024h-109z" />
<glyph unicode="j" horiz-adv-x="899" d="M31 111l61 77q129 -110 262 -110q156 0 244 80q54 53 77 113.5t23 140.5v612h109v-590q0 -114 -29.5 -194t-91.5 -142q-119 -116 -328 -116q-93 0 -180.5 34t-146.5 95z" />
<glyph unicode="k" horiz-adv-x="1040" d="M102 0v1024h111v-428h287l334 428h122l-368 -469l413 -555h-124l-379 506h-285v-506h-111z" />
<glyph unicode="l" horiz-adv-x="972" d="M102 0v1024h109v-930h711v-94h-820z" />
<glyph unicode="m" horiz-adv-x="1320" d="M102 0v1024h148l412 -575l409 575h148v-1024h-111v905h-8l-428 -602h-31l-432 602h-8v-905h-99z" />
<glyph unicode="n" horiz-adv-x="1157" d="M102 0v1024h117l731 -883v883h105v-1024h-115l-731 885v-885h-107z" />
<glyph unicode="o" horiz-adv-x="1208" d="M61 512q0 114 42.5 213t121.5 172q155 145 379 145q239 0 395 -159q144 -144 144 -371q0 -233 -154 -381q-155 -149 -385 -149q-236 0 -389 153q-73 73 -113.5 170.5t-40.5 206.5zM172 512q0 -190 121 -311q123 -123 311 -123q186 0 303 117q129 129 129 317 q0 98 -34.5 181t-96.5 141q-115 112 -301 112q-192 0 -311 -125q-121 -121 -121 -309z" />
<glyph unicode="p" horiz-adv-x="1030" d="M102 0v1024h484q173 0 280 -113q103 -103 103 -249q0 -137 -95 -242q-116 -119 -288 -119h-373v-301h-111zM213 395h385q113 0 190 80q70 80 70 187q0 111 -65 182q-73 86 -211 86h-369v-535z" />
<glyph unicode="q" horiz-adv-x="1204" d="M61 512q0 114 42.5 213t121.5 172q155 145 379 145q239 0 395 -159q144 -144 144 -371q0 -233 -154 -381q-63 -60 -133 -94q54 -30 124 -70.5t95 -54.5q108 -53 201 -57l6 -70q-27 -6 -61 -6q-67 0 -128.5 23t-134.5 69q-23 14 -65 41t-78 49t-70 39q-67 -18 -141 -18 q-236 0 -389 153q-73 73 -113.5 170.5t-40.5 206.5zM172 512q0 -190 121 -311q123 -123 311 -123q186 0 303 117q129 129 129 317q0 98 -34.5 181t-96.5 141q-115 112 -301 112q-192 0 -311 -125q-121 -121 -121 -309z" />
<glyph unicode="r" horiz-adv-x="1040" d="M102 0v1024h494q156 0 266 -96q117 -107 117 -266q0 -116 -68 -209q-72 -97 -182 -136l211 -317h-119l-196 301h-412v-301h-111zM213 395h389q124 0 197 80q69 75 69 189q0 104 -61 174q-76 92 -217 92h-377v-535z" />
<glyph unicode="s" horiz-adv-x="1013" d="M59 59l39 95q186 -74 365 -74q232 0 319 76q60 51 60 131q0 78 -58 129q-22 16 -56.5 28.5t-56.5 17.5t-73 15l-254 47q-124 25 -182 70q-92 69 -92 184q0 125 106 191q114 73 318 73q209 0 397 -79l-37 -84q-175 69 -348 69q-169 0 -260 -49q-66 -41 -66 -123 q0 -57 39 -90q19 -18 48 -30.5t49.5 -17t58.5 -11.5l235 -41q191 -33 271 -113q71 -74 71 -180q0 -139 -96 -215q-119 -96 -391 -96q-234 0 -406 77z" />
<glyph unicode="t" horiz-adv-x="1062" d="M51 930v94h961v-94h-426v-930h-111v930h-424z" />
<glyph unicode="u" horiz-adv-x="1089" d="M102 432v592h111v-604q0 -151 92 -246q94 -100 240 -100t241 98q91 94 91 248v604h110v-592q0 -209 -135 -332q-121 -118 -307 -118q-192 0 -316 124q-127 130 -127 326z" />
<glyph unicode="v" horiz-adv-x="1132" d="M51 1024h119l387 -926h23l387 926h114l-436 -1024h-158z" />
<glyph unicode="w" horiz-adv-x="1697" d="M61 1024h121l301 -936h17l260 936h174l274 -936h17l295 936h116l-336 -1024h-180l-270 934h-10l-262 -934h-179z" />
<glyph unicode="x" horiz-adv-x="1064" d="M51 0l402 532l-381 492h127l329 -438l318 438h127l-371 -492l412 -532h-129l-359 475l-350 -475h-125z" />
<glyph unicode="y" horiz-adv-x="1099" d="M51 1024h125l371 -670h8l375 670h119l-443 -778v-246h-110v240z" />
<glyph unicode="z" horiz-adv-x="1060" d="M82 0v59l754 877l-336 -4h-367v92h846v-59l-741 -877l321 8h420v-96h-897z" />
<glyph unicode="{" horiz-adv-x="468" d="M33 532v89h43q110 0 110 114v385q0 211 217 211h58v-90h-64q-61 0 -89.5 -30t-28.5 -95v-334q0 -152 -84 -202v-9q84 -56 84 -202v-334q0 -66 28 -95.5t90 -29.5h64v-90h-58q-99 0 -158 50.5t-59 160.5v385q0 116 -110 116h-43z" />
<glyph unicode="|" horiz-adv-x="299" d="M102 -307v1638h95v-1638h-95z" />
<glyph unicode="}" horiz-adv-x="468" d="M8 -90h64q62 0 91.5 29t29.5 94v334q0 150 81 202v6q-81 54 -81 205v336q0 65 -29.5 95t-91.5 30h-64v90h60q97 0 156 -50.5t59 -160.5v-387q0 -117 112 -117h41v-88h-41q-59 0 -85.5 -29t-26.5 -85v-383q0 -211 -215 -211h-60v90z" />
<glyph unicode="~" horiz-adv-x="731" d="M47 535q89 69 178 69q62 0 144 -29q79 -28 141 -28q74 0 135 49l39 -68q-88 -67 -178 -67q-70 0 -141 26q-82 29 -144 29q-78 0 -133 -47z" />
<glyph unicode="&#xa2;" horiz-adv-x="1071" d="M72 514q0 223 153 373q132 132 330 153v119h113v-117q104 -10 179.5 -43.5t149.5 -97.5l-61 -70q-65 57 -142 86t-182 29q-186 0 -309 -123t-123 -309q0 -182 119 -307q129 -129 313 -129q107 0 183.5 29t140.5 88l63 -72q-73 -66 -150 -100.5t-181 -40.5v-117h-113v119 q-193 20 -330 147q-74 72 -113.5 171.5t-39.5 211.5z" />
<glyph unicode="&#xa5;" horiz-adv-x="1126" d="M66 1024h124l367 -596h18l371 596h115l-365 -590h189v-92h-639v92h184zM246 160v92h639v-92h-267v-160h-108v160h-264z" />
<glyph unicode="&#xa8;" horiz-adv-x="747" d="M102 1251q0 35 25.5 60.5t60.5 25.5t60.5 -25.5t25.5 -60.5t-25.5 -60.5t-60.5 -25.5t-60.5 25.5t-25.5 60.5zM473 1251q0 35 25.5 60.5t60.5 25.5t60.5 -25.5t25.5 -60.5t-25.5 -60.5t-60.5 -25.5t-60.5 25.5t-25.5 60.5z" />
<glyph unicode="&#xa9;" horiz-adv-x="1185" d="M61 512q0 219 154 373q73 75 170.5 116t206.5 41q120 0 225 -50t180 -138q125 -144 125 -342q0 -220 -151 -371q-74 -75 -171.5 -117t-207.5 -42q-209 0 -363 141q-80 73 -124 173.5t-44 215.5zM145 512q0 -97 38.5 -182t107.5 -148q129 -116 301 -116q92 0 175 36.5 t146 100.5q125 125 125 309q0 171 -110 293q-62 73 -149.5 113t-186.5 40q-185 0 -316 -131q-61 -61 -96 -143t-35 -172zM309 518q0 119 90 209q83 80 199 80q132 0 221 -102l-59 -56q-60 76 -162 76q-79 0 -143 -57q-64 -64 -64 -150q0 -85 64 -149q65 -58 143 -58 q43 0 87.5 20t74.5 50l55 -53q-86 -99 -217 -99q-121 0 -205 84t-84 205z" />
<glyph unicode="&#xab;" horiz-adv-x="649" d="M41 512v51l276 283l54 -43l-219 -266l219 -265l-54 -43zM258 512v49l279 285l51 -43l-217 -266l217 -265l-51 -43z" />
<glyph unicode="&#xad;" horiz-adv-x="645" d="M35 500v82h575v-82h-575z" />
<glyph unicode="&#xae;" horiz-adv-x="798" d="M41 909q0 145 102 252q107 107 256 107q170 0 275 -127q84 -104 84 -232q0 -146 -101 -247q-108 -111 -258 -111t-256 106q-102 107 -102 252zM111 909q0 -120 84 -204t204 -84q61 0 115.5 24t93.5 66q80 83 80 198q0 109 -70 189q-87 100 -219 100q-61 0 -115.5 -24 t-93.5 -66q-79 -82 -79 -199zM260 737v357h152q73 0 114 -41q35 -35 35 -84q0 -39 -18 -66q-23 -30 -56 -47l54 -119h-70l-43 105h-104v-105h-64zM324 901h94q42 0 59 17q21 15 21 49q0 21 -17 45q-19 22 -69 22h-88v-133z" />
<glyph unicode="&#xb4;" horiz-adv-x="411" d="M102 1159l113 281l96 -47l-145 -263z" />
<glyph unicode="&#xb8;" horiz-adv-x="452" d="M102 -324q70 20 113 50q49 27 49 81q0 21 -12 33q-13 13 -41 13h-53v180h75l-4 -109q47 0 82 -35q33 -36 33 -92q0 -72 -72 -123q-51 -37 -149 -59z" />
<glyph unicode="&#xbb;" horiz-adv-x="649" d="M61 272l220 267l-220 264l52 43l278 -285v-49l-278 -283zM279 272l219 267l-219 264l53 43l276 -283v-51l-276 -283z" />
<glyph unicode="&#x2c6;" horiz-adv-x="729" d="M102 1174l238 231h49l238 -231l-43 -48l-219 181l-220 -181z" />
<glyph unicode="&#x2da;" horiz-adv-x="595" d="M102 1354q0 78 56 137q55 55 139 55q80 0 139 -53q58 -58 58 -139q0 -76 -56 -135q-58 -58 -141 -58q-81 0 -139 58q-56 56 -56 135zM178 1354q0 -57 31 -88q30 -35 88 -35q61 0 88 35q31 31 31 88q0 52 -31 88q-30 37 -88 37q-54 0 -88 -37q-31 -39 -31 -88z" />
<glyph unicode="&#x2dc;" horiz-adv-x="825" d="M102 1233q88 80 177 80q81 0 159 -49q51 -31 125 -31q38 0 61 9t56 36l43 -49q-82 -76 -172 -76q-80 0 -150 41t-135 41t-125 -51z" />
<glyph unicode="&#x401;" horiz-adv-x="1144" d="M102 0v1229h922v-103h-807v-424h721v-100h-721v-502h838v-100h-953zM268 1423q0 41 28 70t66 29q41 0 69 -29t28 -70q0 -39 -28 -66.5t-69 -27.5q-38 0 -66 28t-28 66zM684 1423q0 41 28.5 70t67.5 29t68 -29t29 -70q0 -38 -29 -66t-68 -28q-38 0 -67 28t-29 66z" />
<glyph unicode="&#x402;" horiz-adv-x="1542" d="M41 1135v94h1003v-94h-456v-304q92 72 186 108t217 36q216 0 342 -139q109 -127 109 -330v-385q0 -145 -38.5 -242.5t-135.5 -183.5l-56 51q66 82 92.5 163.5t26.5 203.5v393q0 174 -90 278q-86 99 -250 99q-121 0 -212 -34.5t-191 -115.5v-733h-113v1135h-434z" />
<glyph unicode="&#x403;" horiz-adv-x="1079" d="M102 0v1229h926v-96h-813v-1133h-113zM518 1354l115 276l100 -47l-145 -262z" />
<glyph unicode="&#x404;" horiz-adv-x="1232" d="M61 618q0 280 183 453q189 180 469 180q148 0 253.5 -39t200.5 -120l-65 -76q-82 67 -173 102t-216 35q-117 0 -218.5 -40.5t-175.5 -115.5q-120 -126 -139 -307h727v-94h-729q9 -206 123 -342q74 -87 181 -132.5t233 -45.5t217.5 35.5t171.5 103.5l67 -74 q-96 -83 -202.5 -123.5t-253.5 -40.5q-280 0 -471 185q-183 180 -183 456z" />
<glyph unicode="&#x405;" horiz-adv-x="1169" d="M61 70l31 94q111 -35 234 -59.5t206 -24.5q61 0 98 1.5t95.5 8t105.5 23.5t82 45q82 65 82 176q0 103 -77 164q-78 50 -224 73l-284 47q-164 25 -248 95q-90 74 -90 209q0 170 141 252q129 77 356 77q232 0 461 -90l-37 -90q-209 82 -411 82q-190 0 -293 -55 q-54 -30 -81.5 -68.5t-27.5 -105.5q0 -90 70 -138q62 -42 180 -59l277 -47q108 -20 186.5 -49t130.5 -80q84 -81 84 -211q0 -70 -34.5 -140.5t-98.5 -119.5q-69 -54 -172 -78.5t-268 -24.5q-113 0 -239 25.5t-235 67.5z" />
<glyph unicode="&#x406;" horiz-adv-x="319" d="M102 0v1229h115v-1229h-115z" />
<glyph unicode="&#x407;" horiz-adv-x="319" d="M-139 1423q0 41 28 70t66 29q41 0 68.5 -28.5t27.5 -70.5q0 -39 -27.5 -66.5t-68.5 -27.5q-38 0 -66 28t-28 66zM102 0v1229h115v-1229h-115zM276 1423q0 41 29 70t68 29t67.5 -29t28.5 -70q0 -38 -29 -66t-67 -28q-39 0 -68 28t-29 66z" />
<glyph unicode="&#x408;" horiz-adv-x="1046" d="M31 127l61 84q161 -133 320 -133q203 0 307 104q63 63 92 140.5t29 195.5v711h114v-684q0 -286 -143 -420q-151 -148 -393 -148q-108 0 -211 40.5t-176 109.5z" />
<glyph unicode="&#x409;" horiz-adv-x="2189" d="M31 8l18 84q37 -6 80 -6q92 0 147 55q54 54 66 152l129 936h791v-363h419q96 0 183.5 -36.5t148.5 -100.5q117 -123 117 -293q0 -182 -127 -309q-60 -60 -145 -93.5t-177 -33.5h-532v1133h-580l-125 -889q-15 -114 -88 -181q-74 -71 -186 -71q-73 0 -139 16zM1262 98h421 q139 0 234 88q96 96 96 250q0 140 -86 232q-97 100 -256 100h-409v-670z" />
<glyph unicode="&#x40a;" horiz-adv-x="2052" d="M102 0v1229h115v-510h795v510h112v-363h418q96 0 185 -36.5t149 -100.5q117 -123 117 -293q0 -182 -125 -307q-61 -61 -147 -95t-179 -34h-530v621h-795v-621h-115zM1124 98h420q141 0 236 88q96 96 96 250q0 144 -88 232q-43 47 -110 73.5t-146 26.5h-408v-670z" />
<glyph unicode="&#x40b;" horiz-adv-x="1542" d="M41 1135v94h1003v-94h-456v-304q92 72 186 108t217 36q216 0 342 -139q109 -127 109 -330v-506h-111v506q0 179 -90 282q-83 95 -250 95q-121 0 -212 -34.5t-191 -115.5v-733h-113v1135h-434z" />
<glyph unicode="&#x40c;" horiz-adv-x="1236" d="M102 0v1229h115v-524h254q82 0 123 24q31 16 76 84l159 277q48 79 107 112q62 39 162 39q40 0 78 -6l-15 -88h-16q-79 0 -133 -25q-55 -24 -92 -88l-146 -262q-3 -5 -10.5 -17t-11.5 -17.5t-11 -15.5t-13 -17t-15 -16t-19 -17l475 -672h-131l-436 621q-54 -11 -115 -11 h-270v-610h-115zM502 1354l114 276l101 -47l-146 -262z" />
<glyph unicode="&#x40e;" horiz-adv-x="1304" d="M53 1229h133l490 -858h12l432 858h125l-540 -1026q-54 -99 -115 -150q-76 -63 -176 -63q-50 0 -80 6l8 80h27q66 0 120 28q62 41 91 95l30 55zM414 1534l86 12q16 -77 59 -114q48 -39 119 -39q76 0 117 41q36 39 53 112l88 -12q-23 -108 -78 -158q-69 -63 -180 -63 q-120 0 -193 67q-49 49 -71 154z" />
<glyph unicode="&#x40f;" horiz-adv-x="1257" d="M102 0v1229h113v-1133h827v1133h113v-1229h-469l-10 -264h-92l-11 264h-471z" />
<glyph unicode="&#x410;" horiz-adv-x="1372" d="M51 0l545 1229h178l547 -1229h-123l-111 248h-808l-109 -248h-119zM319 348h728l-336 782h-49z" />
<glyph unicode="&#x411;" horiz-adv-x="1208" d="M102 0v1229h893v-96h-780v-314h492q211 0 329 -137q101 -123 101 -268q0 -176 -119 -295q-122 -119 -311 -119h-605zM215 98h492q153 0 241 97q78 84 78 219q0 112 -72 204q-92 103 -258 103h-481v-623z" />
<glyph unicode="&#x412;" horiz-adv-x="1228" d="M102 0v1229h613q181 0 282 -101q76 -76 76 -196q0 -81 -39 -146q-32 -54 -104 -102v-8q106 -48 155 -123q62 -89 62 -199q0 -150 -100 -250q-117 -104 -306 -104h-639zM219 94h524q149 0 224 84q69 75 69 178q0 106 -55 170q-75 90 -225 90h-537v-522zM219 715h518 q117 0 168 63q53 65 53 142q0 92 -59 151q-73 62 -197 62h-483v-418z" />
<glyph unicode="&#x413;" horiz-adv-x="1079" d="M102 0v1229h926v-96h-813v-1133h-113z" />
<glyph unicode="&#x414;" horiz-adv-x="1415" d="M51 96q103 0 180 97q60 75 84 229l117 807h799v-1133h133v-358h-82l-31 262h-1093l-25 -262h-82v358zM274 96h842v1037h-592l-108 -742q-17 -114 -49 -179.5t-93 -115.5z" />
<glyph unicode="&#x415;" horiz-adv-x="1136" d="M102 0v1229h922v-103h-807v-424h721v-100h-721v-502h838v-100h-953z" />
<glyph unicode="&#x416;" horiz-adv-x="1884" d="M59 1237q46 4 72 4q93 0 160 -33q60 -34 100 -112l135 -285q36 -67 80 -84q42 -22 121 -22h158v524h108v-524h162q66 0 121 22q41 21 78 84l137 285q41 86 119 121q56 26 139 26q39 0 76 -6l-13 -88h-8q-93 0 -141 -27q-49 -27 -80 -90l-127 -258q-33 -62 -78 -104 l414 -670h-135l-369 623q-57 -13 -119 -13h-176v-610h-108v610h-176q-62 0 -119 13l-365 -623h-139l418 670q-53 46 -78 104l-127 258q-42 72 -94 94q-48 23 -127 23h-10z" />
<glyph unicode="&#x417;" horiz-adv-x="1206" d="M63 78l33 86q239 -86 475 -86q220 0 342 88q107 77 107 221q0 114 -70 184q-70 76 -198 76h-435v94h398q110 0 174 70q47 47 47 125q0 57 -22 93.5t-66 64.5q-101 65 -299 65q-189 0 -393 -67l-27 82q198 77 434 77q245 0 379 -98q107 -80 107 -215q0 -78 -37 -133 q-36 -53 -111 -88v-8q101 -34 166 -115q68 -86 68 -207q0 -183 -140 -291q-145 -119 -424 -119q-295 0 -508 101z" />
<glyph unicode="&#x418;" horiz-adv-x="1304" d="M102 0v1229h111v-1096l866 1096h123v-1229h-104v1096l-871 -1096h-125z" />
<glyph unicode="&#x419;" horiz-adv-x="1308" d="M102 0v1229h111v-1096l866 1096h123v-1229h-104v1096l-871 -1096h-125zM383 1534l86 12q16 -77 59 -114q48 -39 119 -39q76 0 117 41q36 39 53 112l88 -12q-23 -108 -78 -158q-69 -63 -180 -63q-119 0 -192 67q-50 50 -72 154z" />
<glyph unicode="&#x41a;" horiz-adv-x="1236" d="M102 0v1229h115v-524h254q82 0 123 24q31 16 76 84l159 277q48 79 107 112q62 39 162 39q40 0 78 -6l-15 -88h-16q-79 0 -133 -25q-55 -24 -92 -88l-146 -262q-3 -5 -10.5 -17t-11.5 -17.5t-11 -15.5t-13 -17t-15 -16t-19 -17l475 -672h-131l-436 621q-54 -11 -115 -11 h-270v-610h-115z" />
<glyph unicode="&#x41b;" horiz-adv-x="1402" d="M31 12l16 86q58 -10 90 -10q89 0 142 53q26 27 40 60.5t21 91.5l133 936h830v-1229h-115v1128h-617l-127 -878q-16 -117 -86 -187q-71 -71 -190 -71q-78 0 -137 20z" />
<glyph unicode="&#x41c;" horiz-adv-x="1538" d="M102 0v1229h164l508 -709l504 709h158v-1229h-113v1108h-16l-529 -748h-22l-535 748h-16v-1108h-103z" />
<glyph unicode="&#x41d;" horiz-adv-x="1269" d="M102 0v1229h113v-510h838v510h114v-1229h-114v621h-838v-621h-113z" />
<glyph unicode="&#x41e;" horiz-adv-x="1421" d="M61 614q0 260 172 441q88 94 210 145t268 51q139 0 258.5 -48t208.5 -136q87 -87 134.5 -204t47.5 -249q0 -266 -178 -444q-183 -193 -471 -193q-147 0 -270.5 52.5t-213.5 148.5q-166 183 -166 436zM176 614q0 -213 139 -372q74 -80 176.5 -124t219.5 -44 q116 0 216.5 43t174.5 123q141 154 141 374q0 228 -147 381q-150 156 -385 156q-117 0 -218.5 -42t-173.5 -120q-143 -156 -143 -375z" />
<glyph unicode="&#x41f;" horiz-adv-x="1253" d="M102 0v1229h1049v-1229h-113v1133h-823v-1133h-113z" />
<glyph unicode="&#x420;" horiz-adv-x="1198" d="M102 0v1229h572q231 0 366 -158q97 -117 97 -276q0 -176 -125 -301q-130 -127 -338 -127h-455v-367h-117zM219 467h467q165 0 256 104q80 89 80 224q0 133 -80 225q-94 108 -274 108h-449v-661z" />
<glyph unicode="&#x421;" horiz-adv-x="1232" d="M63 618q0 131 48.5 246t136.5 203t207.5 136t259.5 48q149 0 255.5 -40t200.5 -124l-69 -75q-78 68 -169.5 103.5t-217.5 35.5q-236 0 -385 -152q-152 -159 -152 -381q0 -228 148 -382q152 -158 389 -158q128 0 219.5 35t167.5 104l69 -76q-96 -83 -202.5 -123.5 t-253.5 -40.5q-277 0 -467 187q-185 185 -185 454z" />
<glyph unicode="&#x422;" horiz-adv-x="1245" d="M51 1133v96h1143v-96h-514v-1133h-115v1133h-514z" />
<glyph unicode="&#x423;" horiz-adv-x="1296" d="M53 1229h133l490 -858h12l432 858h125l-540 -1026q-54 -99 -115 -150q-76 -63 -176 -63q-50 0 -80 6l8 80h27q66 0 120 28q62 41 91 95l30 55z" />
<glyph unicode="&#x424;" horiz-adv-x="1648" d="M61 635q0 179 115 313q139 164 387 164h207v139h113v-139h202q234 0 375 -147q129 -142 129 -330q0 -101 -39.5 -191t-109.5 -157q-136 -133 -355 -133h-202v-154h-113v154h-207q-221 0 -364 143q-138 138 -138 338zM172 635q0 -159 100 -264q115 -115 303 -115h195v760 h-195q-203 0 -319 -135q-84 -96 -84 -246zM883 256h194q184 0 291 104q115 105 115 275q0 167 -111 272q-109 109 -295 109h-194v-760z" />
<glyph unicode="&#x425;" horiz-adv-x="1255" d="M63 0l476 637l-449 592h133l404 -543l389 543h133l-442 -590l487 -639h-135l-432 586l-437 -586h-127z" />
<glyph unicode="&#x426;" horiz-adv-x="1333" d="M102 0v1229h113v-1133h827v1133h113v-1133h127v-360h-84l-24 264h-1072z" />
<glyph unicode="&#x427;" horiz-adv-x="1282" d="M92 874v355h115v-344q0 -230 92 -344q101 -131 346 -131q222 0 422 143v676h113v-1229h-113v457q-201 -148 -428 -148q-273 0 -412 142q-135 141 -135 423z" />
<glyph unicode="&#x428;" horiz-adv-x="1693" d="M102 0v1229h113v-1133h576v1133h112v-1133h576v1133h112v-1229h-1489z" />
<glyph unicode="&#x429;" horiz-adv-x="1767" d="M102 0v1229h113v-1133h576v1133h112v-1133h576v1133h112v-1133h127v-360h-84l-24 264h-1508z" />
<glyph unicode="&#x42a;" horiz-adv-x="1415" d="M41 1147v82h403v-363h449q212 0 346 -137q117 -123 117 -293q0 -182 -127 -309q-130 -127 -336 -127h-561v1130zM444 100h443q166 0 254 88q100 93 100 246q0 66 -23.5 127.5t-66.5 104.5q-87 100 -279 100h-428v-666z" />
<glyph unicode="&#x42b;" horiz-adv-x="1466" d="M102 0v1229h113v-363h440q110 0 201.5 -36.5t151.5 -102.5q116 -119 116 -291q0 -182 -125 -307q-129 -129 -344 -129h-553zM215 100h449q159 0 247 88q99 94 99 248q0 142 -88 230q-87 100 -271 100h-436v-666zM1251 0v1229h113v-1229h-113z" />
<glyph unicode="&#x42c;" horiz-adv-x="1185" d="M102 0v1229h113v-363h449q214 0 344 -139q116 -119 116 -291q0 -182 -125 -307q-129 -129 -335 -129h-562zM215 100h451q157 0 245 88q99 94 99 248q0 136 -88 230q-90 100 -269 100h-438v-666z" />
<glyph unicode="&#x42d;" horiz-adv-x="1232" d="M63 141l66 74q80 -68 171.5 -103.5t219.5 -35.5q124 0 231.5 46.5t180.5 133.5q116 138 125 340h-729v94h725q-19 180 -140 307q-153 156 -391 156q-126 0 -216.5 -35t-172.5 -104l-67 76q97 84 201.5 122.5t254.5 38.5q278 0 467 -180q180 -171 180 -453 q0 -279 -178 -454q-92 -89 -213 -138t-258 -49q-149 0 -257.5 40.5t-199.5 123.5z" />
<glyph unicode="&#x42e;" horiz-adv-x="1773" d="M102 0v1229h115v-549h252q22 230 168 383q185 188 448 188q271 0 453 -188q82 -86 126 -202.5t44 -246.5q0 -140 -49.5 -261.5t-142.5 -209.5q-174 -166 -431 -166q-133 0 -248 50.5t-202 140.5q-156 170 -168 416h-250v-584h-115zM582 614q0 -224 133 -376 q145 -164 370 -164q212 0 361 149q147 147 147 391q0 234 -137 383q-142 158 -371 158q-241 0 -378 -172q-125 -144 -125 -369z" />
<glyph unicode="&#x42f;" horiz-adv-x="1208" d="M59 795q0 171 117 295q133 139 379 139h551v-1229h-115v365h-516l-246 -365h-125l261 381q-147 53 -230 170q-76 107 -76 244zM180 795q0 -144 94 -238t265 -94h452v667h-442q-179 0 -279 -100q-90 -93 -90 -235z" />
<glyph unicode="&#x430;" horiz-adv-x="1171" d="M51 0l455 1024h158l456 -1024h-119l-92 205h-655l-92 -205h-111zM295 297h575l-272 631h-33z" />
<glyph unicode="&#x431;" horiz-adv-x="1040" d="M102 0v1024h750v-90h-637v-242h391q179 0 281 -117q82 -95 82 -227t-86 -231q-104 -117 -277 -117h-504zM215 96h393q130 0 197 80q57 69 57 172q0 99 -55 166q-66 84 -211 84h-381v-502z" />
<glyph unicode="&#x432;" horiz-adv-x="1058" d="M102 0v1024h519q147 0 229 -82q65 -68 65 -168q0 -66 -30 -121q-29 -50 -78 -78v-8q63 -31 115 -96q55 -79 55 -174q0 -119 -88 -207q-93 -90 -248 -90h-539zM213 90h432q111 0 176 74q49 58 49 137q0 88 -45 139q-63 72 -172 72h-440v-422zM213 602h430q85 0 125 49 q39 45 39 115q0 72 -47 119t-150 47h-397v-330z" />
<glyph unicode="&#x433;" horiz-adv-x="954" d="M102 0v1024h781v-94h-670v-930h-111z" />
<glyph unicode="&#x434;" horiz-adv-x="1210" d="M51 94h31q76 0 127 72q45 71 61 190l86 668h678v-930h115v-311h-80l-25 217h-890l-21 -217h-82v311zM266 94h658v836h-473l-84 -606q-23 -158 -101 -230z" />
<glyph unicode="&#x435;" horiz-adv-x="985" d="M102 0v1024h777v-96h-666v-334h594v-94h-594v-406h690v-94h-801z" />
<glyph unicode="&#x436;" horiz-adv-x="1589" d="M55 1030q37 6 72 6q86 0 129 -28q53 -27 90 -99l111 -233q17 -39 49 -58q35 -26 115 -26h120v432h105v-432h121q79 0 114 26q32 19 49 58l111 233q37 72 90 99q43 28 129 28q34 0 72 -6l-10 -84h-17q-69 0 -112 -22q-43 -21 -64 -68l-104 -215q-25 -45 -68 -82l354 -559 h-127l-309 512q-45 -10 -90 -10h-139v-502h-105v502h-139q-45 0 -90 10l-309 -512h-127l354 559q-43 37 -68 82l-104 215q-22 48 -63 68q-43 22 -113 22h-16z" />
<glyph unicode="&#x437;" horiz-adv-x="1032" d="M61 70l33 86q186 -78 398 -78q90 0 173.5 23t131.5 75q57 64 57 150q0 83 -47 141q-24 34 -69.5 52t-98.5 18h-363v90h336q85 0 131 49q39 39 39 102q0 72 -55 117q-73 57 -254 57q-163 0 -326 -61l-28 82q154 69 366 69q242 0 338 -96q66 -66 66 -164q0 -72 -31 -116 q-29 -46 -78 -66v-8q71 -26 109 -70q72 -81 72 -188q0 -73 -33 -142t-92 -116q-116 -94 -344 -94q-253 0 -431 88z" />
<glyph unicode="&#x438;" horiz-adv-x="1126" d="M102 0v1024h105v-887l704 887h113v-1024h-102v887l-707 -887h-113z" />
<glyph unicode="&#x439;" horiz-adv-x="1130" d="M102 0v1024h105v-887l704 887h113v-1024h-102v887l-707 -887h-113zM356 1325l74 14q16 -61 49 -92q31 -28 84 -28q55 0 86 28q35 35 47 92l76 -14q-6 -69 -49 -121q-60 -63 -158 -63q-100 0 -162 65q-41 53 -47 119z" />
<glyph unicode="&#x43a;" horiz-adv-x="1060" d="M102 0v1024h109v-432h197q59 0 98 22q29 14 57 60l137 233q50 75 105 105q53 24 123 24q40 0 67 -6l-6 -86h-24q-72 0 -107 -18q-34 -16 -63 -66l-131 -219q-25 -44 -68 -78l403 -563h-131l-358 512q-52 -10 -92 -10h-207v-502h-109z" />
<glyph unicode="&#x43b;" horiz-adv-x="1187" d="M31 8l20 82q36 -8 68 -8q78 0 119 47q38 47 47 119l106 776h694v-1024h-110v928h-486l-102 -723q-15 -102 -80 -158q-61 -55 -155 -55q-59 0 -121 16z" />
<glyph unicode="&#x43c;" horiz-adv-x="1320" d="M102 0v1024h148l412 -575l409 575h148v-1024h-111v905h-8l-428 -602h-31l-432 602h-8v-905h-99z" />
<glyph unicode="&#x43d;" horiz-adv-x="1083" d="M102 0v1024h111v-428h674v428h110v-1024h-110v502h-674v-502h-111z" />
<glyph unicode="&#x43e;" horiz-adv-x="1208" d="M61 512q0 114 42.5 213t121.5 172q155 145 379 145q239 0 395 -159q144 -144 144 -371q0 -233 -154 -381q-155 -149 -385 -149q-236 0 -389 153q-73 73 -113.5 170.5t-40.5 206.5zM172 512q0 -190 121 -311q123 -123 311 -123q186 0 303 117q129 129 129 317 q0 98 -34.5 181t-96.5 141q-115 112 -301 112q-192 0 -311 -125q-121 -121 -121 -309z" />
<glyph unicode="&#x43f;" horiz-adv-x="1103" d="M102 0v1024h899v-1024h-110v928h-678v-928h-111z" />
<glyph unicode="&#x440;" horiz-adv-x="1030" d="M102 0v1024h484q173 0 280 -113q103 -103 103 -249q0 -137 -95 -242q-116 -119 -288 -119h-373v-301h-111zM213 395h385q113 0 190 80q70 80 70 187q0 111 -65 182q-73 86 -211 86h-369v-535z" />
<glyph unicode="&#x441;" horiz-adv-x="1071" d="M72 514q0 220 153 373q158 155 387 155q236 0 387 -139l-63 -72q-65 57 -142 86t-182 29q-186 0 -309 -123t-123 -309t119 -311q125 -125 313 -125q193 0 326 117l61 -74q-76 -70 -168 -104.5t-219 -34.5q-234 0 -387 153q-153 150 -153 379z" />
<glyph unicode="&#x442;" horiz-adv-x="1062" d="M51 930v94h961v-94h-426v-930h-111v930h-424z" />
<glyph unicode="&#x443;" horiz-adv-x="1116" d="M51 1024h129l398 -700h10l356 700h121l-453 -850q-49 -93 -92 -129q-64 -51 -149 -51q-28 0 -74 4l6 80h25q69 0 102 18q42 22 68 78l20 41z" />
<glyph unicode="&#x444;" horiz-adv-x="1392" d="M61 528q0 160 107 277q55 60 133.5 92.5t165.5 32.5h176v112h107v-112h176q92 0 173.5 -36.5t135.5 -102.5q96 -117 96 -263q0 -163 -119 -282q-54 -56 -129.5 -87.5t-156.5 -31.5h-176v-127h-107v127h-176q-85 0 -161.5 33.5t-133.5 91.5q-111 118 -111 276zM166 528 q0 -131 84 -215q87 -90 223 -90h170v613h-170q-133 0 -221 -88q-86 -86 -86 -220zM750 223h170q139 0 221 88q86 86 86 217q0 124 -74 207q-95 101 -233 101h-170v-613z" />
<glyph unicode="&#x445;" horiz-adv-x="1064" d="M51 0l402 532l-381 492h127l329 -438l318 438h127l-371 -492l412 -532h-129l-359 475l-350 -475h-125z" />
<glyph unicode="&#x446;" horiz-adv-x="1136" d="M102 0v1024h111v-928h659v928h113v-928h100v-315h-81l-21 219h-881z" />
<glyph unicode="&#x447;" horiz-adv-x="1099" d="M82 725v299h113v-291q0 -203 88 -295q82 -88 266 -88q197 0 340 107v567h108v-1024h-108v367q-70 -53 -163.5 -82t-182.5 -29q-219 0 -336 111q-125 119 -125 358z" />
<glyph unicode="&#x448;" horiz-adv-x="1439" d="M102 0v1024h111v-930h451v930h110v-930h453v930h110v-1024h-1235z" />
<glyph unicode="&#x449;" horiz-adv-x="1490" d="M102 0v1024h111v-930h453v930h110v-930h453v930h110v-930h101v-311h-80l-23 217h-1235z" />
<glyph unicode="&#x44a;" horiz-adv-x="1202" d="M41 942v82h350v-299h371q159 0 274 -109q105 -105 105 -251q0 -157 -107 -259q-112 -106 -272 -106h-481v928zM391 96h373q124 0 194 76q72 75 72 193q0 109 -69 184q-77 80 -207 80h-363v-533z" />
<glyph unicode="&#x44b;" horiz-adv-x="1282" d="M102 0v1024h111v-299h371q157 0 264 -98q115 -105 115 -262q0 -163 -123 -273q-50 -44 -118 -68t-138 -24h-482zM213 96h381q116 0 188 82q70 79 70 187q0 110 -72 182q-76 82 -202 82h-365v-533zM1071 0v1024h109v-1024h-109z" />
<glyph unicode="&#x44c;" horiz-adv-x="1024" d="M102 0v1024h111v-299h371q87 0 163 -32.5t127 -92.5q89 -102 89 -235q0 -143 -93 -246q-54 -56 -129.5 -87.5t-156.5 -31.5h-482zM213 96h381q111 0 188 80q70 76 70 189q0 96 -59 167q-36 45 -93 71t-122 26h-365v-533z" />
<glyph unicode="&#x44d;" horiz-adv-x="1069" d="M80 123l65 78q74 -65 149 -94t177 -29q206 0 320 127q92 103 104 274h-604v96h600q-18 160 -121 263q-110 110 -299 110q-103 0 -179.5 -32t-144.5 -91l-63 70q77 74 170 110.5t217 36.5q239 0 385 -143q152 -152 152 -387q0 -234 -156 -387q-150 -143 -381 -143 q-232 0 -391 141z" />
<glyph unicode="&#x44e;" horiz-adv-x="1501" d="M102 0v1024h113v-451h188q21 210 170 340q145 129 347 129q230 0 378 -161q142 -155 142 -369q0 -221 -146 -373q-150 -157 -374 -157q-214 0 -363 143q-67 67 -108.5 159t-47.5 193h-186v-477h-113zM512 512q0 -188 109 -309q116 -125 299 -125q186 0 301 131 q106 118 106 303q0 184 -98 297q-114 139 -309 139q-161 0 -275 -102q-63 -58 -98 -144t-35 -190z" />
<glyph unicode="&#x44f;" horiz-adv-x="1021" d="M45 662q0 155 115 260q53 49 124.5 75.5t145.5 26.5h490v-1024h-107v299h-416l-200 -299h-121l217 317q-114 36 -176 127q-72 99 -72 218zM158 662q0 -106 65 -183q73 -86 207 -86h383v535h-381q-124 0 -201 -80q-73 -76 -73 -186z" />
<glyph unicode="&#x451;" horiz-adv-x="993" d="M102 0v1024h777v-96h-666v-334h594v-94h-594v-406h690v-94h-801zM223 1251q0 35 25.5 60.5t60.5 25.5t60.5 -25.5t25.5 -60.5t-25.5 -60.5t-60.5 -25.5t-60.5 25.5t-25.5 60.5zM594 1251q0 35 25.5 60.5t60.5 25.5t60.5 -25.5t25.5 -60.5t-25.5 -60.5t-60.5 -25.5 t-60.5 25.5t-25.5 60.5z" />
<glyph unicode="&#x452;" horiz-adv-x="1402" d="M55 930v94h953v-94h-422v-258q136 102 325 102q193 0 314 -100q131 -115 131 -328v-240q0 -133 -62 -233q-49 -81 -120 -135l-52 49q62 67 90 135q31 71 31 193v219q0 172 -82 254q-82 88 -256 88q-104 0 -175.5 -22t-143.5 -79v-575h-111v930h-420z" />
<glyph unicode="&#x453;" horiz-adv-x="954" d="M102 0v1024h781v-94h-670v-930h-111zM483 1159l113 281l96 -47l-145 -263z" />
<glyph unicode="&#x454;" horiz-adv-x="1069" d="M61 512q0 236 150 383q147 147 387 147q123 0 216 -36.5t173 -106.5l-61 -70q-136 119 -328 119t-303 -114q-99 -99 -117 -259h606v-96h-610q9 -177 123 -291q110 -110 301 -110q185 0 326 117l61 -72q-157 -141 -387 -141q-207 0 -346 114q-92 72 -141.5 179.5 t-49.5 236.5z" />
<glyph unicode="&#x455;" horiz-adv-x="1013" d="M59 59l39 95q186 -74 365 -74q232 0 319 76q60 51 60 131q0 78 -58 129q-22 16 -56.5 28.5t-56.5 17.5t-73 15l-254 47q-124 25 -182 70q-92 69 -92 184q0 125 106 191q114 73 318 73q209 0 397 -79l-37 -84q-175 69 -348 69q-169 0 -260 -49q-66 -41 -66 -123 q0 -57 39 -90q19 -18 48 -30.5t49.5 -17t58.5 -11.5l235 -41q191 -33 271 -113q71 -74 71 -180q0 -139 -96 -215q-119 -96 -391 -96q-234 0 -406 77z" />
<glyph unicode="&#x456;" horiz-adv-x="313" d="M102 0v1024h109v-1024h-109z" />
<glyph unicode="&#x457;" horiz-adv-x="313" d="M-111 1251q0 35 25.5 60.5t60.5 25.5t60.5 -25.5t25.5 -60.5t-25.5 -60.5t-60.5 -25.5t-60.5 25.5t-25.5 60.5zM102 0v1024h109v-1024h-109zM260 1251q0 35 25.5 60.5t60.5 25.5t60.5 -25.5t25.5 -60.5t-25.5 -60.5t-60.5 -25.5t-60.5 25.5t-25.5 60.5z" />
<glyph unicode="&#x458;" horiz-adv-x="899" d="M31 111l61 77q129 -110 262 -110q156 0 244 80q54 53 77 113.5t23 140.5v612h109v-590q0 -114 -29.5 -194t-91.5 -142q-119 -116 -328 -116q-93 0 -180.5 34t-146.5 95z" />
<glyph unicode="&#x459;" horiz-adv-x="1845" d="M31 8l18 82q31 -8 72 -8q74 0 106 35q41 35 56 131l108 776h670v-299h344q172 0 287 -121q92 -102 92 -239q0 -146 -103 -254q-50 -53 -123.5 -82t-152.5 -29h-453v928h-465l-102 -723q-15 -100 -70 -152q-61 -61 -161 -61q-61 0 -123 16zM1061 96h354q123 0 199 92 q59 71 59 177q0 107 -65 178q-73 86 -209 86h-338v-533z" />
<glyph unicode="&#x45a;" horiz-adv-x="1753" d="M102 0v1024h111v-430h647v430h109v-299h344q86 0 162.5 -32.5t130.5 -92.5q86 -99 86 -235q0 -141 -93 -244q-115 -121 -286 -121h-453v502h-647v-502h-111zM969 96h354q111 0 188 80q70 76 70 189q0 90 -57 167q-37 45 -94.5 71t-122.5 26h-338v-533z" />
<glyph unicode="&#x45b;" horiz-adv-x="1406" d="M55 930v94h953v-94h-422v-258q136 102 325 102q193 0 314 -100q131 -115 131 -328v-346h-113v338q0 172 -88 260q-86 80 -250 80q-104 0 -175.5 -21.5t-143.5 -78.5v-578h-111v930h-420z" />
<glyph unicode="&#x45c;" horiz-adv-x="1060" d="M102 0v1024h109v-432h197q59 0 98 22q29 14 57 60l137 233q50 75 105 105q53 24 123 24q40 0 67 -6l-6 -86h-24q-72 0 -107 -18q-34 -16 -63 -66l-131 -219q-25 -44 -68 -78l403 -563h-131l-358 512q-52 -10 -92 -10h-207v-502h-109zM406 1159l112 281l96 -47l-145 -263z " />
<glyph unicode="&#x45e;" horiz-adv-x="1116" d="M51 1024h129l398 -700h10l356 700h121l-453 -850q-49 -93 -92 -129q-64 -51 -149 -51q-28 0 -74 4l6 80h25q69 0 102 18q42 22 68 78l20 41zM373 1325l73 14q15 -60 50 -92q31 -28 84 -28q55 0 86 28q35 35 47 92l75 -14q-6 -69 -49 -121q-60 -63 -157 -63 q-100 0 -162 65q-41 53 -47 119z" />
<glyph unicode="&#x45f;" horiz-adv-x="1105" d="M102 0v1024h111v-928h678v928h110v-1024h-397l-10 -219h-82l-10 219h-400z" />
<glyph unicode="&#x462;" horiz-adv-x="1187" d="M0 1026v94h104v109h113v-109h344v-94h-344v-154h449q209 0 338 -135q122 -122 122 -297q0 -179 -122 -307q-130 -133 -338 -133h-562v1026h-104zM217 96h451q146 0 241 88q103 95 103 256q0 141 -90 234q-97 104 -269 104h-436v-682z" />
<glyph unicode="&#x463;" horiz-adv-x="1024" d="M-2 926v98h104v211h111v-211h291v-98h-291v-201h371q87 0 163 -32.5t127 -92.5q89 -102 89 -235q0 -141 -93 -244q-115 -121 -286 -121h-482v926h-104zM213 96h381q111 0 188 80q70 76 70 189q0 96 -59 167q-36 45 -93 71t-122 26h-365v-533z" />
<glyph unicode="&#x472;" horiz-adv-x="1421" d="M59 614q0 140 53.5 262t151.5 209q184 166 447 166q283 0 473 -190q86 -87 131 -202t45 -245q0 -136 -49 -255t-142 -205q-89 -82 -207.5 -129.5t-250.5 -47.5q-278 0 -463 179q-91 86 -140 204.5t-49 253.5zM170 629q154 116 293 116q143 0 282 -77q115 -62 240 -62 q80 0 130 19t124 73q-10 96 -52 178.5t-106 139.5q-146 137 -370 137q-228 0 -383 -152q-145 -158 -158 -372zM174 545q14 -187 152 -318q75 -72 175 -111.5t210 -39.5q225 0 374 143q143 140 164 387q-152 -100 -280 -100q-135 0 -262 69q-136 76 -258 76q-160 0 -275 -106 z" />
<glyph unicode="&#x473;" horiz-adv-x="1208" d="M63 512q0 235 162 385q155 145 379 145q237 0 393 -159q148 -148 148 -371q0 -112 -40.5 -210.5t-115.5 -170.5q-155 -149 -385 -149q-236 0 -389 153q-73 73 -112.5 170.5t-39.5 206.5zM168 545q107 78 223 78q53 0 99.5 -9.5t72.5 -20t66 -30.5q55 -29 99 -43t99 -14 q63 0 106 15.5t97 56.5q-14 150 -125 256q-117 114 -301 114q-190 0 -315 -125q-103 -109 -121 -278zM174 457q15 -152 119 -256q125 -125 311 -125q183 0 303 117q118 115 127 292q-94 -67 -207 -67q-115 0 -231 57q-120 62 -211 62q-115 0 -211 -80z" />
<glyph unicode="&#x474;" horiz-adv-x="1323" d="M25 1229h122l467 -1125h48l139 394q90 259 237 491q89 147 203 275l82 -64q-108 -116 -209 -280q-133 -211 -221 -461l-168 -459h-182z" />
<glyph unicode="&#x475;" horiz-adv-x="1132" d="M51 1024h121l379 -924h24l115 318q78 226 193 405q71 117 182 234l70 -62q-94 -105 -174 -231q-104 -166 -183 -383l-139 -381h-156z" />
<glyph unicode="&#x490;" horiz-adv-x="1073" d="M102 0v1229h813l23 192l84 -4v-284h-807v-1133h-113z" />
<glyph unicode="&#x491;" horiz-adv-x="954" d="M102 0v1024h691l8 162h82v-256h-670v-930h-111z" />
<glyph unicode="&#x4d8;" horiz-adv-x="1396" d="M61 614q0 72 5 95h1146q-36 192 -139 295q-72 72 -173.5 110.5t-213.5 38.5q-219 0 -389 -137l-64 80q82 74 200 114.5t253 40.5q147 0 270 -49t211 -139q168 -168 168 -449q0 -288 -180 -456q-184 -181 -457 -181q-260 0 -452 179q-91 85 -138 203t-47 255zM176 608 q10 -247 150 -379q156 -153 372 -153q222 0 369 147q145 145 154 385h-1045z" />
<glyph unicode="&#x4d9;" horiz-adv-x="1185" d="M61 512q0 22 5 84h944q-24 139 -111 229q-123 123 -315 123q-88 0 -173 -29.5t-145 -84.5l-59 75q66 65 165 99t212 34q121 0 225.5 -44.5t177.5 -123.5q137 -143 137 -362q0 -236 -149 -379q-158 -151 -381 -151q-230 0 -383 153q-72 72 -111 169.5t-39 207.5zM170 502 q9 -194 121 -303q123 -123 303 -123t299 119q114 111 123 307h-846z" />
<glyph unicode="&#x2000;" horiz-adv-x="815" />
<glyph unicode="&#x2001;" horiz-adv-x="1630" />
<glyph unicode="&#x2002;" horiz-adv-x="815" />
<glyph unicode="&#x2003;" horiz-adv-x="1630" />
<glyph unicode="&#x2004;" horiz-adv-x="543" />
<glyph unicode="&#x2005;" horiz-adv-x="407" />
<glyph unicode="&#x2006;" horiz-adv-x="271" />
<glyph unicode="&#x2007;" horiz-adv-x="271" />
<glyph unicode="&#x2008;" horiz-adv-x="203" />
<glyph unicode="&#x2009;" horiz-adv-x="326" />
<glyph unicode="&#x200a;" horiz-adv-x="90" />
<glyph unicode="&#x2010;" horiz-adv-x="645" d="M35 500v82h575v-82h-575z" />
<glyph unicode="&#x2011;" horiz-adv-x="645" d="M35 500v82h575v-82h-575z" />
<glyph unicode="&#x2012;" horiz-adv-x="645" d="M35 500v82h575v-82h-575z" />
<glyph unicode="&#x2013;" horiz-adv-x="849" d="M35 500v82h782v-82h-782z" />
<glyph unicode="&#x2014;" horiz-adv-x="1009" d="M35 500v82h942v-82h-942z" />
<glyph unicode="&#x2018;" horiz-adv-x="346" d="M74 1141q0 24 10 47l80 194l61 -16l-24 -135q69 -15 69 -90q0 -40 -25 -66t-71 -26q-48 0 -74 26t-26 66z" />
<glyph unicode="&#x2019;" horiz-adv-x="346" d="M76 1126q0 40 25.5 66.5t70.5 26.5q48 0 74 -26.5t26 -66.5q0 -24 -10 -47l-80 -194l-61 16l24 135q-69 15 -69 90z" />
<glyph unicode="&#x201a;" horiz-adv-x="346" d="M76 78q0 40 25 66t71 26q48 0 74 -26t26 -66q0 -24 -10 -47l-80 -195l-61 17l24 135q-69 15 -69 90z" />
<glyph unicode="&#x201c;" d="M74 1141q0 24 10 47l80 194l61 -16l-24 -135q69 -15 69 -90q0 -40 -25 -66t-71 -26q-48 0 -74 26t-26 66zM305 1141q0 24 10 47l80 194l62 -16l-25 -135q70 -15 70 -90q0 -40 -25 -66t-71 -26q-48 0 -74.5 26t-26.5 66z" />
<glyph unicode="&#x201d;" d="M76 1126q0 40 25.5 66.5t70.5 26.5q48 0 74 -26.5t26 -66.5q0 -24 -10 -47l-80 -194l-61 16l24 135q-69 15 -69 90zM307 1126q0 40 25.5 66.5t70.5 26.5q48 0 74.5 -26.5t26.5 -66.5q0 -24 -10 -47l-80 -194l-62 16l25 135q-70 15 -70 90z" />
<glyph unicode="&#x201e;" d="M76 78q0 40 25 66t71 26q48 0 74 -26t26 -66q0 -24 -10 -47l-80 -195l-61 17l24 135q-69 15 -69 90zM307 78q0 40 25 66t71 26q48 0 74.5 -26t26.5 -66q0 -24 -10 -47l-80 -195l-62 17l25 135q-70 15 -70 90z" />
<glyph unicode="&#x2026;" horiz-adv-x="921" d="M72 78q0 41 24.5 66.5t65.5 25.5t65.5 -25.5t24.5 -66.5t-24.5 -65.5t-65.5 -24.5t-65.5 24.5t-24.5 65.5zM371 78q0 41 24.5 66.5t65.5 25.5t65.5 -25.5t24.5 -66.5t-24.5 -65.5t-65.5 -24.5t-65.5 24.5t-24.5 65.5zM670 78q0 41 24.5 66.5t65.5 25.5t65.5 -25.5 t24.5 -66.5t-24.5 -65.5t-65.5 -24.5t-65.5 24.5t-24.5 65.5z" />
<glyph unicode="&#x202f;" horiz-adv-x="326" />
<glyph unicode="&#x2039;" d="M41 492v45l436 284l39 -59l-348 -248l348 -248l-39 -59z" />
<glyph unicode="&#x203a;" d="M68 266l350 248l-350 248l38 59l439 -284v-45l-439 -285z" />
<glyph unicode="&#x205f;" horiz-adv-x="407" />
<glyph unicode="&#x20ac;" horiz-adv-x="1075" d="M20 379v90h691l-15 -90h-497q27 -95 88 -162q124 -139 327 -139q199 0 330 115l60 -72q-158 -139 -390 -139q-233 0 -391 161q-97 97 -135 236h-68zM20 561v90h70q35 126 121 221q75 80 179 125t224 45q127 0 219.5 -34.5t170.5 -104.5l-62 -72q-65 57 -142.5 86 t-185.5 29q-200 0 -325 -137q-54 -60 -90 -158h540l-14 -90h-705z" />
<glyph unicode="&#x2122;" horiz-adv-x="1218" d="M51 1165v64h471v-64h-203v-434h-67v434h-201zM547 731v498h92l205 -254l205 254h88v-498h-68v420l-219 -266h-23l-215 266v-420h-65z" />
<glyph unicode="&#x25fc;" horiz-adv-x="1024" d="M0 0v1024h1024v-1024h-1024z" />
</font>
</defs>
</svg>
